<svg xmlns="http://www.w3.org/2000/svg" xmlns:xlink="http://www.w3.org/1999/xlink" width="850" height="720.085" viewBox="0 0 850 720.085"><defs><linearGradient id="a" x1="0.5" y1="1" x2="0.5" gradientUnits="objectBoundingBox"><stop offset="0" stop-color="gray" stop-opacity="0.251"/><stop offset="0.54" stop-color="gray" stop-opacity="0.122"/><stop offset="1" stop-color="gray" stop-opacity="0.102"/></linearGradient><linearGradient id="b" x1="-10.47" y1="33.141" x2="-10.47" y2="32.127" xlink:href="#a"/><linearGradient id="c" x1="-10.544" y1="33.584" x2="-10.544" y2="32.57" xlink:href="#a"/><linearGradient id="d" x1="-6.8" y1="22.569" x2="-6.8" y2="21.562" xlink:href="#a"/><linearGradient id="e" x1="-9.897" y1="33.438" x2="-9.897" y2="32.452" xlink:href="#a"/><linearGradient id="f" x1="-10.176" y1="33.465" x2="-10.176" y2="32.452" xlink:href="#a"/><linearGradient id="g" x1="-6.509" y1="22.781" x2="-6.509" y2="21.774" xlink:href="#a"/><linearGradient id="h" x1="-5.632" y1="23.498" x2="-5.632" y2="22.491" xlink:href="#a"/><linearGradient id="i" x1="-5.008" y1="26.1" x2="-5.008" y2="25.093" xlink:href="#a"/><linearGradient id="j" x1="-10.623" y1="33.309" x2="-10.623" y2="32.322" xlink:href="#a"/><linearGradient id="k" x1="-11.431" y1="29.02" x2="-11.431" y2="28.034" xlink:href="#a"/><linearGradient id="l" x1="-10.313" y1="29.417" x2="-10.313" y2="28.431" xlink:href="#a"/><linearGradient id="m" x1="-9.236" y1="27.427" x2="-9.236" y2="26.441" xlink:href="#a"/><linearGradient id="n" x1="-10.03" y1="35.188" x2="-10.03" y2="34.202" xlink:href="#a"/><linearGradient id="o" x1="-6.653" y1="23.243" x2="-6.653" y2="22.23" xlink:href="#a"/><linearGradient id="p" x1="-2.07" y1="11.566" x2="-2.07" y2="10.532" xlink:href="#a"/><linearGradient id="q" x1="-0.664" y1="6.158" x2="-0.664" y2="5.134" xlink:href="#a"/><linearGradient id="r" x1="-2.627" y1="10.765" x2="-2.627" y2="9.763" xlink:href="#a"/><linearGradient id="s" x1="-2.611" y1="10.786" x2="-2.611" y2="9.783" xlink:href="#a"/><linearGradient id="t" x1="-6.529" y1="22.952" x2="-6.529" y2="21.939" xlink:href="#a"/><linearGradient id="u" x1="-6.548" y1="23.5" x2="-6.548" y2="22.486" xlink:href="#a"/></defs><g transform="translate(0 133.858)"><rect width="850" height="720" transform="translate(0 -133.858)" fill="none"/><rect width="71.035" height="10.791" transform="translate(762.396 211.748)" fill="#4d8af0"/><path d="M17.165,235.85,25.2,599.791H20.181L9.05,236.1Z" transform="translate(816.266 -13.565)" fill="#eee"/><path d="M92.36,235.85,84.33,599.791h5.014L100.475,236.1Z" transform="translate(670.045 -13.565)" fill="#eee"/><path d="M29.863,236.1l8.614,363.686H32.455L24.5,235.85Z" transform="translate(788.432 -13.565)" fill="#e0e0e0"/><path d="M81.414,236.1,72.79,599.791h6.032L86.767,235.85Z" transform="translate(694.629 -13.565)" fill="#e0e0e0"/><rect width="45.682" height="5.523" transform="translate(774.196 542.052)" fill="#e0e0e0"/><rect width="49.198" height="5.523" transform="translate(772.188 511.431)" fill="#e0e0e0"/><rect width="47.69" height="5.523" transform="translate(772.188 481.309)" fill="#e0e0e0"/><rect width="45.682" height="5.523" transform="translate(774.196 450.687)" fill="#e0e0e0"/><rect width="45.682" height="5.023" transform="translate(774.196 419.067)" fill="#e0e0e0"/><rect width="44.174" height="6.022" transform="translate(774.196 388.945)" fill="#e0e0e0"/><rect width="42.666" height="4.015" transform="translate(775.704 358.823)" fill="#e0e0e0"/><rect width="37.652" height="6.522" transform="translate(779.219 326.703)" fill="#e0e0e0"/><rect width="39.151" height="5.523" transform="translate(777.721 296.581)" fill="#e0e0e0"/><rect width="39.151" height="6.022" transform="translate(777.721 265.461)" fill="#e0e0e0"/><rect width="35.645" height="6.022" transform="translate(779.219 234.839)" fill="#e0e0e0"/><rect width="104.409" height="22.092" transform="translate(745.591 191.164)" fill="#4d8af0"/><g transform="translate(744.155 35.814)" opacity="0.5"><path d="M175.086,177,211.4,200.656a6.843,6.843,0,0,1,2.356-3.713,6,6,0,0,1-.2-3.563,2.234,2.234,0,0,1,.386-.943,1.593,1.593,0,0,1,1.423-.4l5.768.377a3.025,3.025,0,0,1,1.885.547c.811.679,1.056,2.1,1.885,2.7.556.4,1.263.358,1.885.669,1.329.707,1.621,2.827,1.725,4.552.141,2.356.132,5.127-1.4,6.6-1.122,1.046-2.677.942-4.09.867l-1.423-.113a6.8,6.8,0,0,1-1.131.537v2.007h.264s16.277-4.712,34.156,44.523h.311s2.639,8.954-1.583,7.38c-3.676-1.376-3.77-5.966-3.7-7.116h-.245s-7.38-21.6-18.972-24.241c0,0-8.435,10.537,5.268,31.611H225.236a16.371,16.371,0,0,1-1.395,6.852c-3.157,6.324,6.324,66.389,6.324,66.389h-7.907l-3.977-19.905-.5,19.905h-5.8l-5.8-38.274.792-46.106V239.864l-1.056,1.4V222.824H190.646l-2.639-20.546h.273a24.864,24.864,0,0,1,.179-4.3l-19.7-4.138C165.661,180.676,175.086,177,175.086,177Zm17.247,25.6,4.618,11.809s12.648-5.8,17.389-3.685h.264v-2.507a6.842,6.842,0,0,1-3.4-5.448l-18.991-3.987a12.034,12.034,0,0,1,.132,3.808Z" transform="translate(-168.136 -177)" fill="url(#a)"/></g><path d="M234.662,206.939s-.6-8.709,2.111-6.8,1.546,7.333,1.546,7.333Z" transform="translate(530.816 -142.501)" fill="#fda57d"/><path d="M175.393,260.07s2.507,8.529-1.508,7.031-3.515-7.031-3.515-7.031Z" transform="translate(653.778 -145.963)" fill="#fda57d"/><rect width="5.523" height="5.023" transform="translate(790.51 68.424)" fill="#fda57d"/><rect width="4.515" height="22.591" transform="translate(796.043 96.039)" fill="#4d8af0"/><rect width="4.515" height="22.591" transform="translate(796.043 96.039)" opacity="0.1"/><path d="M64.471,76.07H59.249a5.419,5.419,0,0,0-5.419,5.419v33.732H69.852V81.489a5.419,5.419,0,0,0-5.382-5.419Z" transform="translate(729.414 -4.375)" fill="#fff"/><circle cx="6.522" cy="6.522" r="6.522" transform="translate(787.259 57.133)" fill="#fda57d"/><path d="M172.169,215.063s15.56-4.514,32.629,42.666h-5.023s-7.031-20.584-18.067-23.091c0,0-8.03,10.037,5.023,30.16H176.184v-6.729a117.454,117.454,0,0,0-3.77-30.235,24.5,24.5,0,0,1-.245-12.771Z" transform="translate(624.119 -143.368)" fill="#4d8af0"/><path d="M237.577,214.58v1.508s-3.516,15.56-6.522,25.6l-1.536,2.045V226.125H214.957L212.45,206.55h4.015l4.571,11.536S233.062,212.563,237.577,214.58Z" transform="translate(552.688 -142.885)" fill="#4d8af0"/><path d="M210.532,256.608s3.016,11.046,0,17.068,6.022,63.25,6.022,63.25h-7.54L198.223,282.96l-1.753-26.39Z" transform="translate(588.772 -145.762)" fill="#333"/><path d="M58.544,117.61l-.754,43.92,5.523,36.4h5.523l2.007-80.319Z" transform="translate(724.69 -6.764)" fill="#333"/><path d="M203.561,203.454a2.6,2.6,0,0,0-.49-.584,1.234,1.234,0,0,0-.622-.17c-1.367-.113-2.941-.141-3.77-1.433a5.184,5.184,0,0,1-.415-3.77,2.121,2.121,0,0,1,.368-.943,1.517,1.517,0,0,1,1.357-.377l5.495.358a2.884,2.884,0,0,1,1.762.518c.773.65,1,2,1.81,2.582.537.377,1.206.339,1.772.641,1.263.669,1.536,2.667,1.64,4.335.132,2.243.132,4.882-1.338,6.249-1.065,1-2.545.942-3.892.829l-2.507-.207a1.16,1.16,0,0,1-.707-.217,1.885,1.885,0,0,1-.339-1.5c.066-1.263.2-2.7,1.027-3.468a3.252,3.252,0,0,0,.537-.509C206.143,204.4,204.032,204.076,203.561,203.454Z" transform="translate(591.285 -142.287)" fill="#333"/><path d="M222.019,181s-9.038,3.515-6.022,16.022l40.659,8.529v-2.007Z" transform="translate(530.849 -141.416)" fill="#f55f44"/><rect width="70.781" height="2.007" transform="translate(762.405 213.002)" opacity="0.1"/><rect width="5.523" height="1.008" transform="translate(816.117 354.563)" opacity="0.1"/><rect width="5.523" height="1.008" transform="translate(772.942 354.563)" opacity="0.1"/><rect width="70.781" height="8.529" transform="translate(762.65 346.279)" fill="#eee"/><path d="M131.737,38.173l-.707-.358.17-.019-.057-.038.1.028L150.7,35.27l-.415,6.437-.613,5.711-1.2-.613-1.112,2.526Z" transform="translate(575.806 -2.029)" fill="url(#b)"/><path d="M150.114,41.751l-.565,5.231L132.16,38.17l15.1.33Z" transform="translate(575.327 -2.195)" fill="#e11d48"/><path d="M150.114,41.751l-.565,5.231L132.16,38.17l15.1.33Z" transform="translate(575.327 -2.195)" opacity="0.2"/><path d="M150.091,35.72,131.75,38.029,149.7,41.611Z" transform="translate(575.737 -2.054)" fill="#e11d48"/><path d="M147.616,48.713,132.48,38.11l17.549,5.221Z" transform="translate(575.11 -2.192)" fill="#e11d48"/><path d="M231.8,9.583l-.707-.358.17-.028-.057-.038.1.038L250.769,6.68l-.424,6.437-.613,5.711-1.2-.613-1.112,2.526Z" transform="translate(381.432 -0.384)" fill="url(#c)"/><path d="M250.184,13.161l-.565,5.231L232.23,9.58l15.1.33Z" transform="translate(380.942 -0.551)" fill="#e11d48"/><path d="M250.184,13.161l-.565,5.231L232.23,9.58l15.1.33Z" transform="translate(380.942 -0.551)" opacity="0.2"/><path d="M250.161,7.13,231.82,9.439l17.954,3.581Z" transform="translate(381.352 -0.41)" fill="#e11d48"/><path d="M247.686,20.123,232.55,9.52,250.1,14.732Z" transform="translate(380.726 -0.548)" fill="#e11d48"/><path d="M396.411.792,395.44.066l.254.009L395.629,0l.141.075L425.732,1.31l-2.3,9.595-2.394,8.435-1.649-1.235-2.319,3.515Z" transform="translate(51.572)" fill="url(#d)"/><path d="M425.006,10.577l-2.2,7.728L398.89.54l22.657,4.4Z" transform="translate(49.045 -0.031)" fill="#e11d48"/><path d="M425.006,10.577l-2.2,7.728L398.89.54l22.657,4.4Z" transform="translate(49.045 -0.031)" opacity="0.2"/><path d="M424.878,1.8,396.66.54l26.116,10.037Z" transform="translate(51.275 -0.031)" fill="#e11d48"/><path d="M419.866,20.366,399.8.48l25.089,12.394Z" transform="translate(48.305 -0.028)" fill="#e11d48"/><path d="M322.1,57.959l-.773-.179.16-.057-.066-.028h.113l18.275-7.125,1.14,6.352.782,5.683-1.31-.3-.462,2.714Z" transform="translate(205.416 -2.908)" fill="url(#e)"/><path d="M340.384,57.2l.716,5.2-19-4.354,14.731-3.318Z" transform="translate(205.325 -3.148)" fill="#e11d48"/><path d="M340.384,57.2l.716,5.2-19-4.354,14.731-3.318Z" transform="translate(205.325 -3.148)" opacity="0.2"/><path d="M340.1,51.18,322.86,57.843,341.144,57Z" transform="translate(204.565 -2.944)" fill="#e11d48"/><path d="M340.008,64.8,322.76,58.16,341.054,59Z" transform="translate(204.749 -3.345)" fill="#e11d48"/><g transform="translate(634.293 119.262)" opacity="0.5"><path d="M208.7,129.452l-.7-.368.16-.019-.047-.038.1.028,19.453-2.516-.424,6.447-.613,5.7-1.2-.613-1.1,2.526Z" transform="translate(-208 -126.54)" fill="url(#f)"/><path d="M227.094,133.031l-.566,5.221L209.14,129.44l15.1.33Z" transform="translate(-208.499 -126.707)" fill="#e11d48"/><path d="M227.094,133.031l-.566,5.221L209.14,129.44l15.1.33Z" transform="translate(-208.499 -126.707)" opacity="0.2"/><path d="M227.071,126.99,208.73,129.3l17.954,3.591Z" transform="translate(-208.089 -126.566)" fill="#e11d48"/><path d="M224.6,139.983l-15.136-10.6,17.549,5.221Z" transform="translate(-208.715 -126.703)" fill="#e11d48"/></g><g transform="translate(423.176 35.24)" opacity="0.2"><path d="M421.711,38.182l-.971-.735.255.009-.075-.066.151.075,29.952,1.225-2.3,9.595-2.385,8.445L444.689,55.5l-2.328,3.515Z" transform="translate(-420.74 -37.39)" fill="url(#g)"/><path d="M450.3,47.967l-2.2,7.719L424.18,37.93l22.657,4.4Z" transform="translate(-423.256 -37.421)" fill="#e11d48"/><path d="M450.3,47.967l-2.2,7.719L424.18,37.93l22.657,4.4Z" transform="translate(-423.256 -37.421)" opacity="0.2"/><path d="M450.168,39.193,421.95,37.93l26.116,10.037Z" transform="translate(-421.026 -37.421)" fill="#e11d48"/><path d="M445.155,57.756,425.09,37.87l25.089,12.394Z" transform="translate(-423.997 -37.418)" fill="#e11d48"/></g><g transform="translate(343.376 139.912)" opacity="0.3"><path d="M506.371,149.242l-.961-.726.254.009-.075-.075.151.075,29.952,1.235-2.3,9.595L531,167.8l-1.64-1.244-2.328,3.525Z" transform="translate(-505.41 -148.45)" fill="url(#h)"/><path d="M534.976,159.027l-2.2,7.728L508.85,148.99l22.667,4.4Z" transform="translate(-507.936 -148.481)" fill="#e11d48"/><path d="M534.976,159.027l-2.2,7.728L508.85,148.99l22.667,4.4Z" transform="translate(-507.936 -148.481)" opacity="0.2"/><path d="M534.847,150.253,506.62,148.99l26.126,10.037Z" transform="translate(-505.706 -148.481)" fill="#e11d48"/><path d="M529.826,168.817,509.76,148.94l25.089,12.384Z" transform="translate(-508.667 -148.478)" fill="#e11d48"/></g><g transform="translate(96.708 191.739)" opacity="0.3"><path d="M768.1,204.232l-.971-.735.255.009-.075-.066.151.066,29.952,1.235-2.3,9.594-2.384,8.445-1.649-1.235-2.318,3.515Z" transform="translate(-767.13 -203.44)" fill="url(#i)"/><path d="M796.686,214.017l-2.2,7.719L770.57,203.97l22.657,4.4Z" transform="translate(-769.646 -203.471)" fill="#e11d48"/><path d="M796.686,214.017l-2.2,7.719L770.57,203.97l22.657,4.4Z" transform="translate(-769.646 -203.471)" opacity="0.2"/><path d="M796.558,205.242,768.34,203.97l26.116,10.047Z" transform="translate(-767.416 -203.471)" fill="#e11d48"/><path d="M791.545,223.806,771.48,203.92,796.569,216.3Z" transform="translate(-770.387 -203.468)" fill="#e11d48"/></g><g transform="translate(523.636 131.609)" opacity="0.5"><path d="M325.4,147.039l-.773-.189.16-.057-.066-.028.113.009,18.275-7.135,1.14,6.352.782,5.693-1.3-.311-.471,2.714Z" transform="translate(-324.63 -139.64)" fill="url(#j)"/><path d="M343.684,146.269l.716,5.2-19-4.354,14.731-3.318Z" transform="translate(-324.721 -139.879)" fill="#e11d48"/><path d="M343.684,146.269l.716,5.2-19-4.354,14.731-3.318Z" transform="translate(-324.721 -139.879)" opacity="0.2"/><path d="M343.4,140.25l-17.238,6.663,18.284-.848Z" transform="translate(-325.481 -139.675)" fill="#e11d48"/><path d="M343.307,153.885,326.06,147.24l18.294.829Z" transform="translate(-325.297 -140.077)" fill="#e11d48"/></g><g transform="translate(184.737 254.942)" opacity="0.5"><path d="M684.983,277.889l-.773-.179.151-.066-.057-.019h.113l18.265-7.125,1.15,6.352.782,5.683-1.31-.311-.471,2.724Z" transform="translate(-684.21 -270.5)" fill="url(#k)"/><path d="M703.284,277.129l.707,5.2-19-4.354,14.741-3.318Z" transform="translate(-684.321 -270.739)" fill="#e11d48"/><path d="M703.284,277.129l.707,5.2-19-4.354,14.741-3.318Z" transform="translate(-684.321 -270.739)" opacity="0.2"/><path d="M702.988,271.11l-17.247,6.663,18.294-.848Z" transform="translate(-685.071 -270.535)" fill="#e11d48"/><path d="M702.9,284.735,685.65,278.09l18.284.839Z" transform="translate(-684.887 -270.937)" fill="#e11d48"/></g><g transform="translate(205.462 124.352)" opacity="0.5"><path d="M662.993,139.339l-.773-.189.16-.057-.066-.028.113.009L680.7,131.94l1.141,6.352.782,5.693-1.31-.311-.471,2.714Z" transform="translate(-662.22 -131.94)" fill="url(#l)"/><path d="M681.284,138.569l.716,5.2-19.01-4.354,14.741-3.318Z" transform="translate(-662.321 -132.179)" fill="#e11d48"/><path d="M681.284,138.569l.716,5.2-19.01-4.354,14.741-3.318Z" transform="translate(-662.321 -132.179)" opacity="0.2"/><path d="M681,132.56l-17.247,6.654,18.294-.848Z" transform="translate(-663.081 -131.976)" fill="#e11d48"/><path d="M680.9,146.185,663.65,139.54l18.294.829Z" transform="translate(-662.887 -132.377)" fill="#e11d48"/></g><g transform="translate(33.421 15.532)" opacity="0.2"><path d="M845.533,23.869l-.773-.179.151-.057-.057-.028.113.009,18.275-7.135,1.14,6.352.782,5.693-1.31-.311-.471,2.714Z" transform="translate(-844.76 -16.48)" fill="url(#m)"/><path d="M863.824,23.109l.716,5.2-19.01-4.354,14.741-3.318Z" transform="translate(-844.861 -16.719)" fill="#e11d48"/><path d="M863.824,23.109l.716,5.2-19.01-4.354,14.741-3.318Z" transform="translate(-844.861 -16.719)" opacity="0.2"/><path d="M863.537,17.09,846.29,23.753l18.294-.848Z" transform="translate(-845.621 -16.515)" fill="#e11d48"/><path d="M863.447,30.724,846.2,24.07l18.284.839Z" transform="translate(-845.436 -16.917)" fill="#e11d48"/></g><g transform="translate(669.768 50.772)" opacity="0.2"><path d="M170.343,61.259l-.773-.179.16-.066L169.664,61h.113l18.275-7.125,1.14,6.352.792,5.683-1.319-.311-.462,2.724Z" transform="translate(-169.57 -53.87)" fill="url(#n)"/><path d="M188.634,60.5l.716,5.2-19-4.354,14.731-3.318Z" transform="translate(-169.671 -54.109)" fill="#e11d48"/><path d="M188.634,60.5l.716,5.2-19-4.354,14.731-3.318Z" transform="translate(-169.671 -54.109)" opacity="0.2"/><path d="M188.348,54.48,171.11,61.143l18.284-.848Z" transform="translate(-170.431 -53.905)" fill="#e11d48"/><path d="M188.258,68.1,171.01,61.46,189.3,62.3Z" transform="translate(-170.247 -54.307)" fill="#e11d48"/></g><path d="M552.134,36.919l-1.074-.556.254-.038-.085-.057.16.047,29.735-3.845-.65,9.849-.933,8.727-1.828-.952-1.7,3.864Z" transform="translate(-250.492 -1.867)" fill="url(#o)"/><path d="M580.236,42.385l-.858,7.983L552.8,36.9l23.072.509Z" transform="translate(-251.242 -2.122)" fill="#e11d48"/><path d="M580.236,42.385l-.858,7.983L552.8,36.9l23.072.509Z" transform="translate(-251.242 -2.122)" opacity="0.2"/><path d="M580.2,33.16,552.17,36.685l27.436,5.485Z" transform="translate(-250.612 -1.907)" fill="#e11d48"/><path d="M576.428,53.021,553.29,36.81l26.823,7.973Z" transform="translate(-251.581 -2.117)" fill="#e11d48"/><path d="M583.331,196.174l-2.771.17.462-.358-.236-.019.377-.094,53.91-42.4,10.273,20.094,8.4,18.247-4.7.283,1.188,9.576Z" transform="translate(-350.914 -8.827)" fill="url(#p)"/><path d="M643.987,175.346l7.662,16.691-68.01,4.7,45.937-26.05Z" transform="translate(-351.722 -9.817)" fill="#e11d48"/><path d="M643.987,175.346l7.662,16.691-68.01,4.7,45.937-26.05Z" transform="translate(-351.722 -9.817)" opacity="0.2"/><path d="M642.721,156.13,591.77,195.9l60.347-21.394Z" transform="translate(-359.853 -8.98)" fill="#e11d48"/><path d="M651.636,201.728,587.17,197l62.053-15.777Z" transform="translate(-355.036 -10.423)" fill="#e11d48"/><path d="M745.286,363.84l-5.8.189.98-.726-.471-.057.782-.17,115.209-85.1,20.169,42.6,16.371,38.6-9.821.311,1.866,20.047Z" transform="translate(-739.49 -15.988)" fill="url(#q)"/><path d="M873.171,324.141l14.948,35.324L745.86,364.979,843.4,313.5Z" transform="translate(-741.081 -18.031)" fill="#e11d48"/><path d="M873.171,324.141l14.948,35.324L745.86,364.979,843.4,313.5Z" transform="translate(-741.081 -18.031)" opacity="0.2"/><path d="M870.587,283.45,761.72,363.25l127.311-40.838Z" transform="translate(-756.941 -16.302)" fill="#e11d48"/><path d="M888.1,379.539,753.85,365.581,884.356,336.59Z" transform="translate(-748.591 -19.359)" fill="#e11d48"/><path d="M723.876,24.393l-2.526-1.15.575-.1-.2-.123.377.094L789.586,10.84l-.321,22.573-1.1,20.047-4.288-1.942-3.431,9.02Z" transform="translate(-619.448 -0.623)" fill="url(#r)"/><path d="M787.464,33.787l-1.027,18.341L724.12,24.476l52.789-1.546Z" transform="translate(-619.938 -1.319)" fill="#e11d48"/><path d="M787.464,33.787l-1.027,18.341L724.12,24.476l52.789-1.546Z" transform="translate(-619.938 -1.319)" opacity="0.2"/><path d="M787.447,12.55,723.81,23.879l63.344,9.312Z" transform="translate(-619.628 -0.722)" fill="#e11d48"/><path d="M779.7,58.685,724.93,24.35l62.223,15.08Z" transform="translate(-620.39 -1.4)" fill="#e11d48"/><path d="M799.765,104.663l-2.535-1.14.575-.1-.188-.132.368.094L865.466,91.11l-.32,22.573-1.1,20.047-4.288-1.932-3.431,9.01Z" transform="translate(-766.844 -5.24)" fill="url(#s)"/><path d="M863.335,114.067l-1.018,18.341L800,104.756l52.789-1.546Z" transform="translate(-767.324 -5.936)" fill="#e11d48"/><path d="M863.335,114.067l-1.018,18.341L800,104.756l52.789-1.546Z" transform="translate(-767.324 -5.936)" opacity="0.2"/><path d="M863.317,92.83,799.68,104.159l63.335,9.312Z" transform="translate(-767.004 -5.339)" fill="#e11d48"/><path d="M855.568,138.955,800.81,104.63l62.214,15.07Z" transform="translate(-767.776 -6.018)" fill="#e11d48"/><path d="M452.884,100.459,451.8,99.9l.255-.028-.075-.057.16.047,29.726-3.845-.65,9.84-.924,8.727-1.828-.942-1.7,3.864Z" transform="translate(-57.681 -5.523)" fill="url(#t)"/><path d="M480.976,105.935l-.858,7.973L453.54,100.45l23.072.509Z" transform="translate(-58.431 -5.777)" fill="#e11d48"/><path d="M480.976,105.935l-.858,7.973L453.54,100.45l23.072.509Z" transform="translate(-58.431 -5.777)" opacity="0.2"/><path d="M480.94,96.71l-28.03,3.525,27.436,5.485Z" transform="translate(-57.801 -5.562)" fill="#e11d48"/><path d="M477.158,116.571,454.02,100.36l26.823,7.973Z" transform="translate(-58.751 -5.772)" fill="#e11d48"/><path d="M643.115,86.169l-1.074-.556.245-.038-.075-.057.16.047L672.1,81.72l-.641,9.849-.933,8.727-1.828-.942-1.7,3.855Z" transform="translate(-427.21 -4.7)" fill="url(#u)"/><path d="M671.216,91.635l-.858,7.983L643.78,86.15l23.072.509Z" transform="translate(-427.97 -4.955)" fill="#e11d48"/><path d="M671.216,91.635l-.858,7.983L643.78,86.15l23.072.509Z" transform="translate(-427.97 -4.955)" opacity="0.2"/><path d="M671.18,82.42,643.15,85.935l27.436,5.485Z" transform="translate(-427.34 -4.74)" fill="#e11d48"/><path d="M667.4,102.271,644.26,86.06l26.823,7.983Z" transform="translate(-428.289 -4.95)" fill="#e11d48"/></g></svg>