<svg xmlns="http://www.w3.org/2000/svg" width="680" height="574.204" viewBox="0 0 680 574.204"><path d="M93.512,513.782,106.7,517.47l20.505-49.13-19.47-5.443Z" transform="translate(7.324 36.253)" fill="#ffb8b8"/><path d="M0,0H43.053V16.634H14.969A14.969,14.969,0,0,1,0,1.665V0Z" transform="matrix(-0.963, -0.269, 0.269, -0.963, 136.048, 573.085)" fill="#2f2e41"/><path d="M239.451,523.5h13.7l6.514-52.838H239.447Z" transform="translate(18.753 36.862)" fill="#ffb8b8"/><path d="M0,0H43.053V16.634H14.969A14.969,14.969,0,0,1,0,1.665V0Z" transform="translate(298.323 573.083) rotate(179.995)" fill="#2f2e41"/><path d="M147.339,316.237l-31.53,77.241L244.557,422.4l1.642-43.215-58.462-62.27Z" transform="translate(9.07 24.767)" fill="#b3b3b3"/><circle cx="29.43" cy="29.43" r="29.43" transform="translate(172.204 183.146) rotate(-28.663)" fill="#ffb8b8"/><path d="M505.577,503.641,447.3,479.785l-5.189-34.212a39.311,39.311,0,0,1,31.161-44.487l7.708-1.548a39.673,39.673,0,0,1,35.528,10.537,37.878,37.878,0,0,1,11.114,34.08,33,33,0,0,1-6.234,14.525c-18.307,23.94-15.957,43.842-15.931,44.04Z" transform="translate(-272.401 -166.91)" fill="#0284c7"/><path d="M525.316,592.864,496.11,546.417l9.2-84.491L492.6,398.735l.676.017a28.8,28.8,0,0,1,28.076,28.088l12.362,61.921Z" transform="translate(-268.411 -166.913)" fill="#2f2e41"/><path d="M534.88,711.962a5.333,5.333,0,0,1-5.223-4.281l-12.8-63.626a99.813,99.813,0,0,0-13-32.912l-36.1-58.4a1.857,1.857,0,0,0-3.294.263L405.11,695.6a5.344,5.344,0,0,1-5.988,3.175l-15.857-3.233a5.31,5.31,0,0,1-4.192-6.116l12.936-76.235a196.762,196.762,0,0,1,13.392-45.17l43.809-101.247L513.86,488l4.266,45.27L548,605.606a49.583,49.583,0,0,1,3.653,15.688l5.519,83.6a5.357,5.357,0,0,1-4.886,5.666l-16.964,1.388C535.172,711.956,535.026,711.962,534.88,711.962Z" transform="translate(-277.309 -161.584)" fill="#2f2e41"/><path d="M415.674,613.315l-20.5-19.455,38.735-149.366a62.608,62.608,0,0,1,36.84-42.088l.761-.31L469.444,493Z" transform="translate(-276.041 -166.649)" fill="#2f2e41"/><path d="M477.179,396.4c-7.271-6.293-9.482-18.033-5.027-26.688s15.108-13.315,24.217-10.592c8.579,2.564,18.332-5.989,17.286-15.16s-12.453-15.145-20.221-10.589a32.9,32.9,0,0,0-35.071,6.831c-9.126,8.94-12.588,23.555-8.491,35.845S465.405,397.636,477.179,396.4Z" transform="translate(-271.891 -172.218)" fill="#2f2e41"/><path d="M458.02,624.621a5.015,5.015,0,0,1-1.114.287l-46.794,6.532a5.036,5.036,0,0,1-5.421-3.195L364.414,523.439a5.057,5.057,0,0,1,3.619-6.751h0l44-9.82a4.019,4.019,0,0,0,.977-.357l42.8-22.378a5.011,5.011,0,0,1,1.04-.4l47.1-12.557a5.048,5.048,0,0,1,6.024,3.072l35.12,91.385a5.032,5.032,0,0,1-.664,4.835l-12.146,16.311a5.051,5.051,0,0,1-2.242,1.7l-26.544,10.2a4.021,4.021,0,0,0-.552.262l-44.232,25.35a5.055,5.055,0,0,1-.7.333Z" transform="translate(-278.477 -161.253)" fill="#fff"/><path d="M479.191,484.574l-5.981,1.6L457.359,490.4l-.028.007-21.7,11.347-8.053,4.212h0l-12.1,6.323-.332.075-12.565,2.8-6.073,1.358-24.768,5.527,38.883,101.177,25.524-3.562,6.258-.875,13.339-1.864.155-.02,42.862-24.566,26.079-10.022,11.907-15.989L502.9,478.255Z" transform="translate(-277.877 -160.685)" fill="#e5e7eb"/><rect width="138.14" height="6.156" transform="translate(101.653 381.633) rotate(-21.022)" fill="#fff"/><rect width="138.14" height="6.156" transform="translate(109.013 400.786) rotate(-21.022)" fill="#fff"/><rect width="138.14" height="6.156" transform="translate(123.882 439.475) rotate(-21.022)" fill="#fff"/><path d="M187.126,300.365l38.6,100.45-5.745,2.208-38.84-101.062Z" transform="translate(14.187 23.524)" fill="#fff"/><path d="M149.056,316.294,141.13,338.35,138.381,346l-6.412,17.852-1.374,3.816-1.375,3.834-1.811,5.035L114.415,412.7l-3.378-8.792,10.6-29.491,2.4-6.677.352-.975,2.835-7.894,3.577-9.956,2.749-7.652L141,320.507h0Z" transform="translate(8.696 24.772)" fill="#fff"/><path d="M211.848,407.348l-.935.359-42.862,24.566-.155.019L127.3,327.729l.332-.074,12.1-6.323h0l8.054-4.212,21.7-11.347.028-.006Z" transform="translate(9.97 23.947)" opacity="0.1"/><path d="M458.252,625.164a5.575,5.575,0,0,1-1.233.318l-46.794,6.532a5.573,5.573,0,0,1-6-3.536L363.949,523.671a5.6,5.6,0,0,1,4.005-7.47l44-9.82a3.5,3.5,0,0,0,.844-.309l42.8-22.377a5.561,5.561,0,0,1,1.151-.448l47.1-12.557a5.585,5.585,0,0,1,6.666,3.4l35.12,91.385a5.57,5.57,0,0,1-.735,5.351l-12.146,16.31a5.589,5.589,0,0,1-2.481,1.882l-26.544,10.2a3.457,3.457,0,0,0-.477.227l-44.231,25.35A5.6,5.6,0,0,1,458.252,625.164ZM367.939,518.452a3.441,3.441,0,0,0-1.976,4.445L406.241,627.7a3.426,3.426,0,0,0,3.687,2.173l46.794-6.532a3.454,3.454,0,0,0,1.235-.422l44.232-25.35a5.62,5.62,0,0,1,.775-.369L529.508,587a3.438,3.438,0,0,0,1.525-1.156l12.146-16.31a3.423,3.423,0,0,0,.452-3.289l-35.12-91.385a3.433,3.433,0,0,0-4.1-2.09l-47.1,12.557a3.551,3.551,0,0,0-.707.275l-42.8,22.378a5.685,5.685,0,0,1-1.374.5l-44,9.82a3.414,3.414,0,0,0-.486.147Z" transform="translate(-278.516 -161.292)" fill="#e5e7eb"/><path d="M116.087,328.733,155.91,432.358l-6.257.875L110.014,330.091Z" transform="translate(8.616 25.746)" fill="#fff"/><circle cx="2.873" cy="2.873" r="2.873" transform="translate(133.284 390.561)" fill="#3f3d56"/><circle cx="2.873" cy="2.873" r="2.873" transform="translate(235.137 393.623)" fill="#0284c7"/><path d="M509.262,504.25c3.26,8.483-.663,36.6-2.043,45.622a1.64,1.64,0,0,1-2.661,1.023c-7.068-5.778-28.81-24.028-32.07-32.512a19.7,19.7,0,0,1,36.774-14.132Z" transform="translate(-270.09 -159.639)" fill="#0284c7"/><circle cx="10.67" cy="10.67" r="10.67" transform="translate(210.116 341.008)" fill="#fff"/><path d="M476.765,490.309a11.236,11.236,0,0,1,15.652-7.2l19.047-17.218,13.286,9.023-27.24,23.937a11.3,11.3,0,0,1-20.746-8.543Z" transform="translate(-269.684 -161.653)" fill="#ffb8b8"/><path d="M506.28,500.942,491.35,480.679l34.039-21.785-24.4-34.813a14.107,14.107,0,0,1,21.06-18.517l30.547,27.87a25.588,25.588,0,0,1-3.59,40.542Z" transform="translate(-268.509 -166.666)" fill="#2f2e41"/><path d="M398.007,546.709a11.236,11.236,0,0,0,1.56-17.158l9.87-23.7L396.5,496.337l-13.468,33.669a11.3,11.3,0,0,0,14.98,16.7Z" transform="translate(-277.213 -159.269)" fill="#ffb8b8"/><path d="M404.595,529.573l-23.342-5.436,17.394-50.158a82.236,82.236,0,0,1,13.084-23.945l28.377-36.085a15.868,15.868,0,1,1,25.017,19.528l-31.488,40.64Z" transform="translate(-277.132 -166.199)" fill="#2f2e41"/><path d="M696.612,716.407H285.772a1.078,1.078,0,0,1,0-2.157H696.612a1.078,1.078,0,1,1,0,2.157Z" transform="translate(-284.694 -142.202)" fill="#ccc"/><path d="M815.186,757.415h-9.7V188.6a4.852,4.852,0,0,1,9.7,0Z" transform="translate(-243.907 -183.75)" fill="#e5e7eb"/><path d="M890.737,716.407H739.773a1.078,1.078,0,1,1,0-2.157H890.737a1.078,1.078,0,1,1,0,2.157Z" transform="translate(-249.138 -142.202)" fill="#ccc"/><path d="M887.54,256.431H746.334a4.858,4.858,0,0,1-4.852-4.852V210.6a4.858,4.858,0,0,1,4.852-4.852H887.55a4.863,4.863,0,0,1,2.365.615l36.517,20.379a4.852,4.852,0,0,1,.019,8.464l-36.527,20.6A4.866,4.866,0,0,1,887.54,256.431Z" transform="translate(-248.919 -182.027)" fill="#0284c7"/><path d="M878.243,338.431H737.037a4.865,4.865,0,0,1-2.383-.626l-36.527-20.6a4.852,4.852,0,0,1,.019-8.464l36.517-20.379a4.863,4.863,0,0,1,2.365-.616H878.243A4.858,4.858,0,0,1,883.1,292.6v40.976a4.858,4.858,0,0,1-4.852,4.852Z" transform="translate(-252.508 -175.605)" fill="#e5e7eb"/><path d="M878.743,418.931H737.537a4.865,4.865,0,0,1-2.383-.626l-36.527-20.6a4.852,4.852,0,0,1,.019-8.464l36.517-20.379a4.863,4.863,0,0,1,2.365-.616H878.743A4.858,4.858,0,0,1,883.6,373.1v40.976a4.858,4.858,0,0,1-4.853,4.852Z" transform="translate(-252.469 -169.3)" fill="#e5e7eb"/></svg>