<svg xmlns="http://www.w3.org/2000/svg" width="850" height="720.178" viewBox="0 0 850 720.178"><g transform="translate(0 2.422)"><rect width="850" height="720" transform="translate(0 -2.422)" fill="none"/><path d="M93.512,526.5l16.49,4.61L135.634,469.7,111.3,462.9Z" transform="translate(32.533 161.041)" fill="#ffb8b8"/><path d="M0,0H53.816V20.793h-35.1A18.711,18.711,0,0,1,0,2.081V0Z" transform="matrix(-0.963, -0.269, 0.269, -0.963, 170.061, 716.356)" fill="#2f2e41"/><path d="M239.452,536.714h17.124l8.143-66.047H239.447Z" transform="translate(83.303 163.744)" fill="#ffb8b8"/><path d="M0,0H53.816V20.792h-35.1A18.712,18.712,0,0,1,0,2.081V0Z" transform="translate(372.904 716.354) rotate(179.995)" fill="#2f2e41"/><path d="M155.222,316.237l-39.413,96.551,160.935,36.155,2.053-54.018-73.078-77.837Z" transform="translate(40.29 110.018)" fill="#b3b3b3"/><circle cx="36.788" cy="36.788" r="36.788" transform="translate(215.255 228.932) rotate(-28.663)" fill="#ffb8b8"/><path d="M521.557,529.859l-72.846-29.82-6.486-42.765a49.138,49.138,0,0,1,38.951-55.609l9.635-1.935a49.591,49.591,0,0,1,44.41,13.172,47.347,47.347,0,0,1,13.893,42.6,41.247,41.247,0,0,1-7.793,18.156c-22.884,29.926-19.947,54.8-19.914,55.051Z" transform="translate(-230.088 -108.947)" fill="#0284c7"/><path d="M533.494,641.4l-36.507-58.06,11.5-105.614L492.6,398.735l.844.021a35.994,35.994,0,0,1,35.1,35.11l15.452,77.4Z" transform="translate(-212.364 -108.957)" fill="#2f2e41"/><path d="M573.852,773.26a6.667,6.667,0,0,1-6.529-5.351l-15.994-79.533a124.764,124.764,0,0,0-16.244-41.14l-45.13-73a2.322,2.322,0,0,0-4.118.329L411.639,752.8a6.68,6.68,0,0,1-7.485,3.969l-19.821-4.041a6.637,6.637,0,0,1-5.24-7.645l16.169-95.293A245.952,245.952,0,0,1,412,593.33l54.761-126.559,80.813,26.541,5.333,56.588,37.34,90.415a61.983,61.983,0,0,1,4.566,19.61l6.9,104.5a6.7,6.7,0,0,1-6.107,7.082L574.4,773.238Q574.125,773.259,573.852,773.26Z" transform="translate(-251.888 -85.287)" fill="#2f2e41"/><path d="M420.8,666.12,395.178,641.8,443.6,455.094a78.26,78.26,0,0,1,46.051-52.609l.951-.387L488.01,515.732Z" transform="translate(-246.257 -107.787)" fill="#2f2e41"/><path d="M484.432,412.746c-9.088-7.867-11.853-22.542-6.284-33.361s18.885-16.643,30.271-13.24c10.724,3.205,22.915-7.486,21.608-18.95s-15.567-18.931-25.276-13.236a41.125,41.125,0,0,0-43.839,8.538c-11.407,11.175-15.735,29.444-10.614,44.806S469.715,414.3,484.432,412.746Z" transform="translate(-227.822 -132.522)" fill="#2f2e41"/><path d="M481.506,663.027a6.267,6.267,0,0,1-1.393.359l-58.492,8.165a6.3,6.3,0,0,1-6.776-3.994L364.5,536.549a6.322,6.322,0,0,1,4.524-8.438h0l55.006-12.275a5.023,5.023,0,0,0,1.221-.447l53.5-27.972a6.262,6.262,0,0,1,1.3-.506l58.878-15.7a6.31,6.31,0,0,1,7.53,3.84l43.9,114.232a6.291,6.291,0,0,1-.831,6.044l-15.182,20.388a6.314,6.314,0,0,1-2.8,2.125L538.362,630.6a5.032,5.032,0,0,0-.689.328l-55.289,31.688a6.32,6.32,0,0,1-.877.417Z" transform="translate(-257.077 -83.817)" fill="#fff"/><path d="M506.054,486.154l-7.477,1.994-19.813,5.284-.035.008L451.6,507.624l-10.067,5.265,0,0-15.119,7.9-.415.093-15.706,3.5-7.591,1.7L371.739,533l48.6,126.472,31.9-4.452,7.823-1.094,16.673-2.33.194-.025,53.578-30.707,32.6-12.528L578,588.346,535.688,478.255Z" transform="translate(-254.411 -81.292)" fill="#e5e7eb"/><rect width="172.675" height="7.694" transform="translate(127.066 477.042) rotate(-21.022)" fill="#fff"/><rect width="172.675" height="7.694" transform="translate(136.266 500.983) rotate(-21.022)" fill="#fff"/><rect width="172.675" height="7.694" transform="translate(154.852 549.344) rotate(-21.022)" fill="#fff"/><path d="M188.622,300.365l48.255,125.562-7.182,2.76L181.145,302.36Z" transform="translate(63.02 104.496)" fill="#fff"/><path d="M158.561,316.294l-9.908,27.57-3.436,9.563L137.2,375.742l-1.717,4.77-1.719,4.793L131.5,391.6,115.26,436.8l-4.223-10.989,13.244-36.864,3-8.346.439-1.219,3.544-9.868,4.471-12.445,3.436-9.565,9.322-25.948h0Z" transform="translate(38.63 110.038)" fill="#fff"/><path d="M232.985,432.744l-1.169.449L178.239,463.9l-.194.024L127.3,333.22l.415-.093,15.119-7.9h0l10.067-5.265,27.126-14.184.035-.008Z" transform="translate(44.287 106.375)" opacity="0.1"/><path d="M481.921,663.831a6.97,6.97,0,0,1-1.541.4l-58.492,8.165a6.966,6.966,0,0,1-7.5-4.42L364.043,536.964a7,7,0,0,1,5.006-9.338l55.006-12.275a4.37,4.37,0,0,0,1.056-.387l53.5-27.972a6.949,6.949,0,0,1,1.439-.56l58.879-15.7a6.982,6.982,0,0,1,8.332,4.25l43.9,114.232a6.963,6.963,0,0,1-.919,6.689L575.06,616.3a6.986,6.986,0,0,1-3.1,2.352L538.778,631.4a4.321,4.321,0,0,0-.6.283l-55.289,31.688A7.011,7.011,0,0,1,481.921,663.831ZM369.029,530.441a4.3,4.3,0,0,0-2.47,5.556l50.348,131.009a4.282,4.282,0,0,0,4.609,2.717l58.492-8.165a4.319,4.319,0,0,0,1.544-.528l55.289-31.687a7.032,7.032,0,0,1,.969-.461l33.18-12.751a4.3,4.3,0,0,0,1.907-1.446L588.08,594.3a4.279,4.279,0,0,0,.565-4.111l-43.9-114.232a4.292,4.292,0,0,0-5.121-2.613l-58.878,15.7a4.437,4.437,0,0,0-.884.344l-53.5,27.973a7.106,7.106,0,0,1-1.717.628l-55.006,12.275a4.258,4.258,0,0,0-.607.183Z" transform="translate(-257.251 -83.991)" fill="#e5e7eb"/><path d="M117.605,328.733l49.779,129.532-7.822,1.093L110.014,330.43Z" transform="translate(38.274 114.366)" fill="#fff"/><circle cx="3.591" cy="3.591" r="3.591" transform="translate(166.605 488.202)" fill="#3f3d56"/><circle cx="3.591" cy="3.591" r="3.591" transform="translate(293.921 492.029)" fill="#0284c7"/><path d="M518.785,507.41c4.075,10.6-.829,45.747-2.554,57.027a2.05,2.05,0,0,1-3.326,1.278c-8.836-7.222-36.012-30.035-40.088-40.64a24.622,24.622,0,0,1,45.967-17.666Z" transform="translate(-219.819 -76.645)" fill="#0284c7"/><circle cx="13.337" cy="13.337" r="13.337" transform="translate(262.645 426.26)" fill="#fff"/><path d="M476.869,496.413a14.045,14.045,0,0,1,19.566-9l23.809-21.522,16.608,11.279L502.8,507.092a14.121,14.121,0,0,1-25.933-10.678Z" transform="translate(-218.019 -85.594)" fill="#ffb8b8"/><path d="M510.013,525.708,491.35,500.379,533.9,473.148l-30.5-43.516a17.633,17.633,0,0,1,26.325-23.146l38.184,34.838A31.985,31.985,0,0,1,563.423,492Z" transform="translate(-212.799 -107.863)" fill="#2f2e41"/><path d="M402.456,559.3a14.045,14.045,0,0,0,1.95-21.448l12.337-29.629-16.177-11.889-16.835,42.087A14.121,14.121,0,0,0,402.456,559.3Z" transform="translate(-251.464 -75.002)" fill="#ffb8b8"/><path d="M410.43,560l-29.177-6.795L403,490.512a102.792,102.792,0,0,1,16.355-29.931l35.471-45.107a19.835,19.835,0,0,1,31.272,24.41l-39.36,50.8Z" transform="translate(-251.102 -105.788)" fill="#2f2e41"/><path d="M799.591,716.946H286.042a1.348,1.348,0,1,1,0-2.7H799.591a1.348,1.348,0,1,1,0,2.7Z" transform="translate(-284.694 0.81)" fill="#ccc"/><path d="M817.613,900.832H805.482V189.816a6.066,6.066,0,1,1,12.131,0Z" transform="translate(-103.513 -183.75)" fill="#e5e7eb"/><path d="M928.748,716.946H740.042a1.348,1.348,0,1,1,0-2.7H928.748a1.348,1.348,0,1,1,0,2.7Z" transform="translate(-126.748 0.81)" fill="#ccc"/><path d="M924.054,269.1H747.547a6.072,6.072,0,0,1-6.066-6.066v-51.22a6.072,6.072,0,0,1,6.066-6.066h176.52a6.079,6.079,0,0,1,2.956.769l45.646,25.474a6.065,6.065,0,0,1,.023,10.58l-45.659,25.746A6.082,6.082,0,0,1,924.054,269.1Z" transform="translate(-125.779 -176.096)" fill="#0284c7"/><path d="M923.889,351.1H747.382a6.081,6.081,0,0,1-2.979-.782l-45.659-25.746a6.065,6.065,0,0,1,.023-10.58l45.646-25.474a6.079,6.079,0,0,1,2.956-.769h176.52a6.072,6.072,0,0,1,6.065,6.066v51.22a6.072,6.072,0,0,1-6.065,6.066Z" transform="translate(-141.721 -147.569)" fill="#e5e7eb"/><path d="M924.389,431.6H747.882a6.081,6.081,0,0,1-2.979-.782l-45.659-25.746a6.065,6.065,0,0,1,.023-10.58l45.646-25.474a6.08,6.08,0,0,1,2.956-.769h176.52a6.072,6.072,0,0,1,6.065,6.066v51.22a6.073,6.073,0,0,1-6.066,6.066Z" transform="translate(-141.547 -119.563)" fill="#e5e7eb"/></g></svg>