<svg xmlns="http://www.w3.org/2000/svg" width="850" height="645.472" viewBox="0 0 850 645.472"><g transform="translate(0.09)"><path d="M993.935,754.065,906.962,603.422a2.767,2.767,0,0,0-4.8,0L815.184,754.065a2.767,2.767,0,0,0,2.4,4.193h25.944a2.784,2.784,0,0,1,2.775,2.776v32.158a2.776,2.776,0,0,0,2.767,2.776h33.818a2.776,2.776,0,0,0,2.776-2.776V777.644a2.767,2.767,0,0,1,2.767-2.767h32.192a2.775,2.775,0,0,1,2.776,2.767v15.546a2.776,2.776,0,0,0,2.776,2.776h33.86a2.776,2.776,0,0,0,2.776-2.776V761a2.776,2.776,0,0,1,2.776-2.776h25.944a2.776,2.776,0,0,0,2.407-4.159Zm-121.261,16.67a2.767,2.767,0,0,1-1.962.839H858.5a2.776,2.776,0,1,1,0-5.551h12.209a2.776,2.776,0,0,1,1.962,4.738Zm79.9,0a2.767,2.767,0,0,1-1.962.839h-12.2a2.776,2.776,0,1,1,0-5.551h12.2a2.776,2.776,0,0,1,1.962,4.738Z" transform="translate(-209.733 -151.811)" fill="#fff" opacity="0.672"/><path d="M355.2,755.646,268.229,605a2.775,2.775,0,0,0-4.8,0L188.3,735.119a229.484,229.484,0,0,0,31.47,32.46h12.209a2.776,2.776,0,1,1,0,5.551h-5.165a134.409,134.409,0,0,0,20.125,12.519v-6.415a2.776,2.776,0,0,1,2.776-2.776h32.25a2.776,2.776,0,0,1,2.767,2.776v15.53a2.7,2.7,0,0,0,.26,1.166,2.776,2.776,0,0,0,2.516,1.61h33.852a2.717,2.717,0,0,0,2.205-1.115,2.666,2.666,0,0,0,.562-1.677V762.589a2.776,2.776,0,0,1,2.776-2.776h25.944a2.776,2.776,0,0,0,2.356-4.168Zm-57.49,12.746a2.768,2.768,0,0,1,1.962-.839h12.209a2.776,2.776,0,0,1,0,5.551H299.674a2.776,2.776,0,0,1-1.962-4.738Zm-54.631-55.746a2.776,2.776,0,0,1-2.776-2.776V688.79a2.776,2.776,0,0,1,2.776-2.776h45.5a2.776,2.776,0,0,1,2.767,2.776v21.081a2.775,2.775,0,0,1-2.767,2.776Z" transform="translate(-108.578 -152.067)" fill="#fff" opacity="0.672"/><path d="M732.045,451.2h-107.6V427.919a5.568,5.568,0,0,0-5.568-5.568h-31.63v-24.8a3.505,3.505,0,0,0-3.505-3.505H543.031a3.505,3.505,0,0,0-3.505,3.505v24.8H502.37a5.568,5.568,0,0,0-5.568,5.568V451.2H394.174a1.132,1.132,0,0,0-1.124,1.132V761.346a1.132,1.132,0,0,0,1.124,1.132H462.38a1.132,1.132,0,0,0,1.132-1.132V719.771a1.141,1.141,0,0,1,1.132-1.132h28.812a1.141,1.141,0,0,1,1.132,1.132v41.575a1.132,1.132,0,0,0,1.124,1.132H630.507a1.14,1.14,0,0,0,1.132-1.132V719.771a1.132,1.132,0,0,1,1.124-1.132h28.812a1.132,1.132,0,0,1,1.132,1.132v41.575a1.14,1.14,0,0,0,1.132,1.132h68.207a1.14,1.14,0,0,0,1.132-1.132V452.328A1.141,1.141,0,0,0,732.045,451.2ZM451.3,704.2a1.124,1.124,0,0,1-1.124,1.124H408.051a1.124,1.124,0,0,1-1.132-1.124V689.81a1.132,1.132,0,0,1,1.132-1.132H450.18a1.132,1.132,0,0,1,1.124,1.132Zm0-37.181a1.124,1.124,0,0,1-1.124,1.132H408.051a1.124,1.124,0,0,1-1.132-1.132V652.638a1.124,1.124,0,0,1,1.132-1.132H450.18a1.124,1.124,0,0,1,1.124,1.132Zm0-37.172a1.132,1.132,0,0,1-1.124,1.132H408.051a1.132,1.132,0,0,1-1.132-1.132V615.457a1.132,1.132,0,0,1,1.132-1.132H450.18a1.132,1.132,0,0,1,1.124,1.132Zm0-37.181a1.124,1.124,0,0,1-1.124,1.132H408.051a1.124,1.124,0,0,1-1.132-1.132V578.285a1.124,1.124,0,0,1,1.132-1.132H450.18a1.124,1.124,0,0,1,1.124,1.132Zm0-37.172a1.132,1.132,0,0,1-1.124,1.132H408.051a1.132,1.132,0,0,1-1.132-1.132V541.1a1.123,1.123,0,0,1,1.132-1.124H450.18A1.124,1.124,0,0,1,451.3,541.1Zm0-37.172a1.124,1.124,0,0,1-1.124,1.124H408.051a1.124,1.124,0,0,1-1.132-1.124V503.932a1.132,1.132,0,0,1,1.132-1.132H450.18a1.132,1.132,0,0,1,1.124,1.132Zm0-37.181a1.124,1.124,0,0,1-1.124,1.132H408.051a1.124,1.124,0,0,1-1.132-1.132V466.76a1.124,1.124,0,0,1,1.132-1.132H450.18a1.124,1.124,0,0,1,1.124,1.132Zm99.878,223.051a1.124,1.124,0,0,1-1.132,1.124H507.888a1.132,1.132,0,0,1-1.132-1.124V689.81a1.14,1.14,0,0,1,1.132-1.132h42.128a1.132,1.132,0,0,1,1.132,1.132Zm0-37.181a1.124,1.124,0,0,1-1.132,1.132H507.888a1.132,1.132,0,0,1-1.132-1.132V652.638a1.132,1.132,0,0,1,1.132-1.132h42.128a1.124,1.124,0,0,1,1.132,1.132Zm0-37.172a1.132,1.132,0,0,1-1.132,1.132H507.888a1.14,1.14,0,0,1-1.132-1.132V615.457a1.14,1.14,0,0,1,1.132-1.132h42.128a1.132,1.132,0,0,1,1.132,1.132Zm0-37.181a1.124,1.124,0,0,1-1.132,1.132H507.888a1.132,1.132,0,0,1-1.132-1.132V578.285a1.132,1.132,0,0,1,1.132-1.132h42.128a1.124,1.124,0,0,1,1.132,1.132Zm0-37.172a1.132,1.132,0,0,1-1.132,1.132H507.888a1.14,1.14,0,0,1-1.132-1.132V541.1a1.132,1.132,0,0,1,1.132-1.124h42.128a1.124,1.124,0,0,1,1.132,1.124Zm0-37.172a1.124,1.124,0,0,1-1.132,1.124H507.888a1.132,1.132,0,0,1-1.132-1.124V503.932a1.14,1.14,0,0,1,1.132-1.132h42.128a1.132,1.132,0,0,1,1.132,1.132Zm0-37.181a1.124,1.124,0,0,1-1.132,1.132H507.888a1.132,1.132,0,0,1-1.132-1.132V466.76a1.132,1.132,0,0,1,1.132-1.132h42.128a1.124,1.124,0,0,1,1.132,1.132ZM619.43,704.183a1.124,1.124,0,0,1-1.132,1.124H576.17a1.132,1.132,0,0,1-1.132-1.124V689.81a1.14,1.14,0,0,1,1.132-1.132H618.3a1.132,1.132,0,0,1,1.132,1.132Zm0-37.181a1.124,1.124,0,0,1-1.132,1.132H576.17A1.132,1.132,0,0,1,575.038,667V652.638a1.132,1.132,0,0,1,1.132-1.132H618.3a1.124,1.124,0,0,1,1.132,1.132Zm0-37.172a1.132,1.132,0,0,1-1.132,1.132H576.17a1.141,1.141,0,0,1-1.132-1.132V615.457a1.14,1.14,0,0,1,1.132-1.132H618.3a1.132,1.132,0,0,1,1.132,1.132Zm0-37.181a1.124,1.124,0,0,1-1.132,1.132H576.17a1.132,1.132,0,0,1-1.132-1.132V578.285a1.132,1.132,0,0,1,1.132-1.132H618.3a1.124,1.124,0,0,1,1.132,1.132Zm0-37.172a1.132,1.132,0,0,1-1.132,1.132H576.17a1.141,1.141,0,0,1-1.132-1.132V541.1a1.132,1.132,0,0,1,1.132-1.124H618.3a1.124,1.124,0,0,1,1.132,1.124Zm0-37.172a1.124,1.124,0,0,1-1.132,1.124H576.17a1.132,1.132,0,0,1-1.132-1.124V503.932a1.14,1.14,0,0,1,1.132-1.132H618.3a1.132,1.132,0,0,1,1.132,1.132Zm0-37.181a1.124,1.124,0,0,1-1.132,1.132H576.17a1.132,1.132,0,0,1-1.132-1.132V466.76a1.132,1.132,0,0,1,1.132-1.132H618.3a1.124,1.124,0,0,1,1.132,1.132Zm99.878,223.051a1.132,1.132,0,0,1-1.132,1.124H676.048a1.124,1.124,0,0,1-1.132-1.124V689.81a1.132,1.132,0,0,1,1.132-1.132h42.128a1.14,1.14,0,0,1,1.132,1.132Zm0-37.181a1.132,1.132,0,0,1-1.132,1.132H676.048a1.124,1.124,0,0,1-1.132-1.132V652.638a1.124,1.124,0,0,1,1.132-1.132h42.128a1.132,1.132,0,0,1,1.132,1.132Zm0-37.172a1.14,1.14,0,0,1-1.132,1.132H676.048a1.132,1.132,0,0,1-1.132-1.132V615.457a1.132,1.132,0,0,1,1.132-1.132h42.128a1.14,1.14,0,0,1,1.132,1.132Zm0-37.181a1.132,1.132,0,0,1-1.132,1.132H676.048a1.124,1.124,0,0,1-1.132-1.132V578.285a1.124,1.124,0,0,1,1.132-1.132h42.128a1.132,1.132,0,0,1,1.132,1.132Zm0-37.172a1.14,1.14,0,0,1-1.132,1.132H676.048a1.132,1.132,0,0,1-1.132-1.132V541.1a1.124,1.124,0,0,1,1.132-1.124h42.128a1.132,1.132,0,0,1,1.132,1.124Zm0-37.172a1.132,1.132,0,0,1-1.132,1.124H676.048a1.124,1.124,0,0,1-1.132-1.124V503.932a1.132,1.132,0,0,1,1.132-1.132h42.128a1.14,1.14,0,0,1,1.132,1.132Zm0-37.181a1.132,1.132,0,0,1-1.132,1.132H676.048a1.124,1.124,0,0,1-1.132-1.132V466.76a1.124,1.124,0,0,1,1.132-1.132h42.128a1.132,1.132,0,0,1,1.132,1.132Z" transform="translate(-141.638 -118.23)" fill="#fff" opacity="0.672"/><g transform="translate(-0.09 235.553)" opacity="0.672"><path d="M178.143,702.457a20.5,20.5,0,0,1-2.708,10.381,21.249,21.249,0,0,1,0,20.762,19.078,19.078,0,0,1,2.046,5.031A380.775,380.775,0,0,1,152.249,700.9h0a20.126,20.126,0,0,1,2.65-8.855,20.5,20.5,0,0,1-2.708-10.314,21.349,21.349,0,0,1,1.224-7.22,17.936,17.936,0,0,1,1.484-3.161c2.365-4.017,6.088-6.608,10.264-6.608s7.907,2.591,10.272,6.608a18.683,18.683,0,0,1,1.451,3.061,21.491,21.491,0,0,1,1.258,7.32,20.5,20.5,0,0,1-2.708,10.381A20.5,20.5,0,0,1,178.143,702.457Z" transform="translate(-102.657 -397.489)" fill="#fff"/><ellipse cx="12.972" cy="16.989" rx="12.972" ry="16.989" transform="translate(49.533 246.455)" fill="#fff"/><ellipse cx="12.972" cy="16.989" rx="12.972" ry="16.989" transform="translate(49.533 225.693)" fill="#fff"/><path d="M217.509,485.059a61.867,61.867,0,0,1-13.308,38.43,62.161,62.161,0,0,1-36.9,99.425c-1.493.3-3.01.537-4.545.721a62.8,62.8,0,0,1-14.255.076q-2.365-.252-4.671-.7a61.465,61.465,0,0,1-19.286-7.052,619.282,619.282,0,0,1-29.273-70.294,61.876,61.876,0,0,1,11.144-22.18A62.211,62.211,0,0,1,96.4,465.119l47.193,15.84L99.334,457.966a62.413,62.413,0,0,1,7.161-11.337,62.161,62.161,0,1,1,102.662-69.557l-45.625,33.542,49.474-25.659a62.236,62.236,0,0,1-1.191,49.247l-36.9-.277,34.095,5.6a62.411,62.411,0,0,1-4.838,7.111,61.884,61.884,0,0,1,13.333,38.422Z" transform="translate(-93.12 -346.029)" fill="#fff"/><path d="M217.517,588.514a62.175,62.175,0,0,1-50.151,60.993c-1.5.3-3.02.539-4.555.723a62.8,62.8,0,0,1-14.255.076q-2.365-.252-4.671-.7a61.464,61.464,0,0,1-19.286-7.052,619.273,619.273,0,0,1-29.273-70.295,61.875,61.875,0,0,1,11.144-22.179,61.91,61.91,0,0,1-13.3-38.43c0-6.977,119.341,27.856,111.006,38.43a61.867,61.867,0,0,1,13.341,38.43Z" transform="translate(-93.128 -372.623)" fill="#fff" opacity="0.1"/></g><g transform="translate(765.487 302.276)" opacity="0.672"><path d="M1073.995,690.44c-2.432,7.765-5.031,15.471-7.7,23a21.543,21.543,0,0,1-1.107-6.884C1065.19,699.069,1068.88,692.7,1073.995,690.44Z" transform="translate(-1015.65 -468.362)" fill="#fff"/><path d="M1090.534,513.873c0,14.725-2.969,37.969-8.385,64.567a709.943,709.943,0,0,1-17.735,69.238c-2.432,7.765-5.031,15.471-7.7,23-3.061,8.545-6.289,16.863-9.668,24.821a62.387,62.387,0,0,1-27.6-97.069,62.471,62.471,0,0,1-10.062-58.5l47.193,15.874-44.258-23.043a62.608,62.608,0,0,1,7.086-11.362,62.379,62.379,0,0,1,24.418-95.794,106.956,106.956,0,0,1,40.879,53.608l-8.26,6.079,8.771-4.553a106.488,106.488,0,0,1,5.107,27.94h-2.465l2.516.411C1090.5,510.628,1090.534,512.3,1090.534,513.873Z" transform="translate(-1006.112 -425.6)" fill="#fff"/><path d="M1082.207,604.125a709.953,709.953,0,0,1-17.735,69.238c-2.432,7.765-5.031,15.471-7.7,23-3.061,8.545-6.289,16.863-9.668,24.821a62.387,62.387,0,0,1-27.6-97.069,62.152,62.152,0,0,1-13.3-38.522C1006.21,581.375,1049.579,592.394,1082.207,604.125Z" transform="translate(-1006.127 -451.285)" fill="#fff" opacity="0.1"/></g><path d="M402.752,182.094a24.234,24.234,0,0,0-14.037,1.535,20.72,20.72,0,0,1-16.888,0,23.7,23.7,0,0,0-19.857.386,12.276,12.276,0,0,1-5.719,1.434c-8.05,0-14.75-8.109-16.142-18.808a15.579,15.579,0,0,0,4.025-4.344c4.721-7.606,12.033-12.486,20.242-12.486s15.429,4.822,20.125,12.352a15.538,15.538,0,0,0,13.375,7.3h.21C394.5,169.465,400.052,174.606,402.752,182.094Z" transform="translate(-131.475 -78.794)" fill="#ea580c" opacity="0.1"/><path d="M427.275,142.756l-13.014,8.26,7.891-14.347a12.913,12.913,0,0,0-7.874-2.809h-.21a15.227,15.227,0,0,1-2.7-.193l-4.411,2.792,1.9-3.438a15.664,15.664,0,0,1-7.715-5.87l-7.9,5.031,4.989-9.065c-4.62-5.543-10.842-8.947-17.685-8.947-8.209,0-15.521,4.889-20.242,12.494a15.094,15.094,0,0,1-13.417,7.211h-.444c-9.065,0-16.41,10.28-16.41,22.951s7.346,22.951,16.41,22.951a12.344,12.344,0,0,0,5.719-1.426,23.663,23.663,0,0,1,19.857-.394A20.72,20.72,0,0,0,388.9,178a23.722,23.722,0,0,1,19.689.377,12.284,12.284,0,0,0,5.652,1.4c9.065,0,16.41-10.272,16.41-22.951A29.148,29.148,0,0,0,427.275,142.756Z" transform="translate(-131.462 -73.04)" fill="#fff" opacity="0.672"/><path d="M851.946,347.439a16.963,16.963,0,0,0-9.844,1.073,14.481,14.481,0,0,1-11.823,0,16.6,16.6,0,0,0-13.9.268,8.628,8.628,0,0,1-4,1.006c-5.635,0-10.322-5.685-11.3-13.173a10.851,10.851,0,0,0,2.818-3.036c3.3-5.325,8.385-8.738,14.163-8.738s10.809,3.354,14.113,8.637a10.9,10.9,0,0,0,9.358,5.149h.151C846.168,338.6,850.051,342.2,851.946,347.439Z" transform="translate(-207.519 -107.055)" fill="#ea580c" opacity="0.1"/><path d="M869.109,319.9,860,325.679l5.526-10.062a8.964,8.964,0,0,0-5.509-1.971h-.143a9.4,9.4,0,0,1-1.887-.143l-3.094,1.962,1.325-2.407a11.01,11.01,0,0,1-5.4-4.1l-5.526,3.505,3.488-6.348a16.181,16.181,0,0,0-12.377-6.255c-5.744,0-10.9,3.413-14.171,8.738a10.608,10.608,0,0,1-9.367,5.031h-.31c-6.339,0-11.488,7.195-11.488,16.066s5.149,16.066,11.488,16.066a8.528,8.528,0,0,0,4-1.006,16.6,16.6,0,0,1,13.9-.268,14.675,14.675,0,0,0,5.945,1.275,14.5,14.5,0,0,0,5.87-1.249,16.594,16.594,0,0,1,13.777.268,8.587,8.587,0,0,0,3.958.981c6.348,0,11.488-7.195,11.488-16.066a20.418,20.418,0,0,0-2.39-9.794Z" transform="translate(-207.518 -103.022)" fill="#fff" opacity="0.672"/><path d="M284.41,302.439a16.972,16.972,0,0,1,9.844,1.073,14.457,14.457,0,0,0,11.815,0,16.6,16.6,0,0,1,13.9.268,8.654,8.654,0,0,0,4,1.006c5.635,0,10.331-5.685,11.3-13.173a10.724,10.724,0,0,1-2.817-3.036c-3.3-5.325-8.385-8.738-14.171-8.738s-10.8,3.354-14.1,8.637a10.9,10.9,0,0,1-9.366,5.149h-.143C290.188,293.6,286.3,297.2,284.41,302.439Z" transform="translate(-124.096 -99.789)" fill="#ea580c" opacity="0.1"/><path d="M263.478,274.9l9.115,5.778-5.534-10.062a8.981,8.981,0,0,1,5.509-1.971h.193a9.442,9.442,0,0,0,1.887-.143l3.086,1.962-1.325-2.407a11.027,11.027,0,0,0,5.409-4.1l5.526,3.505-3.5-6.348a16.2,16.2,0,0,1,12.385-6.256c5.744,0,10.859,3.413,14.171,8.738a10.6,10.6,0,0,0,9.366,5.031h.3c6.348,0,11.488,7.195,11.488,16.066s-5.14,16.066-11.488,16.066a8.578,8.578,0,0,1-4-1.006,16.6,16.6,0,0,0-13.9-.268,14.632,14.632,0,0,1-5.937,1.275,14.439,14.439,0,0,1-5.87-1.249,16.611,16.611,0,0,0-13.786.268,8.561,8.561,0,0,1-3.958.981c-6.339,0-11.488-7.195-11.488-16.066A20.418,20.418,0,0,1,263.478,274.9Z" transform="translate(-120.337 -95.756)" fill="#fff" opacity="0.672"/><path d="M346.116,446.068l184,88.885c4.788,2.281,11.2,3.48,17.509,3.48s12.721-1.2,17.509-3.48l184-88.885c9.685-4.679,9.685-12.293,0-16.964l-184-88.885c-4.788-2.281-11.2-3.48-17.509-3.48s-12.721,1.2-17.509,3.48l-184,88.885C336.465,433.775,336.465,441.389,346.116,446.068Z" transform="translate(-132.891 -108.977)" fill="#192534"/><path d="M749.085,571.827s-33.6-16.2-38.061-18.381-5.652-2.063-10.331.109-135.717,65.507-135.717,65.507a42.562,42.562,0,0,1-17.509,3.48c-6.306,0-12.721-1.191-17.509-3.48,0,0-127.567-61.549-133.545-64.484-6.524-3.153-8.385-3.153-14.255-.327L345.841,571.76c-9.685,4.679-9.685,12.285,0,16.964l184,88.885c4.788,2.281,11.2,3.48,17.509,3.48s12.721-1.2,17.509-3.48l184-88.885c9.9-4.57,9.9-12.176.218-16.855Z" transform="translate(-132.842 -143.712)" fill="#192534"/><ellipse cx="39.948" cy="55.486" rx="39.948" ry="55.486" transform="translate(263.11 122.116)" fill="#192534"/><rect width="35.512" height="35.512" transform="translate(298.622 268.6)" fill="#ea580c"/><path d="M416.438,586.766l11.664,16.4a21.249,21.249,0,0,1,8.427-16.989,103.843,103.843,0,0,0-16.511-13.24,1.325,1.325,0,0,0-.956-.319,1.384,1.384,0,0,0-.713.528c-1.736,2.054-3.941,4.771-4.687,7.4C412.949,583,415.012,584.82,416.438,586.766Z" transform="translate(-144.942 -147.062)" fill="#fbbebe"/><path d="M441.78,586.82a10.353,10.353,0,0,1,5.031,1.736,25.8,25.8,0,0,1,5.794,3.8,8.788,8.788,0,0,1,2.968,6.079,15.341,15.341,0,0,1-1.442,5.383,46.539,46.539,0,0,0-2.163,25.492c.545,2.784,1.35,5.7.486,8.385-.78,2.465-2.809,4.293-4.8,5.945-3.17,2.625-6.658,5.191-10.742,5.744s-8.8-1.677-9.71-5.652c-.537-2.365.31-4.788.9-7.136,1.4-5.61,1.367-11.463,1.325-17.249a23.8,23.8,0,0,0-.436-5.241c-.277-1.208-.746-2.365-1.14-3.547-1.057-3.178-1.518-6.708-.31-9.853a19.629,19.629,0,0,1,2.725-4.478C433.118,592.413,436.2,586.795,441.78,586.82Z" transform="translate(-147.091 -149.355)" fill="#f2f2f2"/><path d="M435.147,291.361c.1,2.08.176,4.277-.788,6.121a11.831,11.831,0,0,1-3.882,3.849l-4.973,3.6c-.252.176-.528.4-.553.7a1.057,1.057,0,0,0,.537.839,16.494,16.494,0,0,0,6.9,3.144,32.7,32.7,0,0,0,5.358.453c9.325.277,18.808.486,27.806-1.962a14.255,14.255,0,0,0,4.6-1.954,5.87,5.87,0,0,0,2.583-4.117c-2.3-.126-4.327-1.476-6.222-2.776s-3.832-2.717-4.436-4.88c-.377-1.35-.159-2.809-.47-4.193-.52-2.231-2.381-3.9-4.377-5.031-5.149-2.918-11.228-3.094-16.838-4.62-2.012-.545-5.61-2.96-5.744.3C434.5,284.3,434.979,287.907,435.147,291.361Z" transform="translate(-146.788 -99.68)" fill="#fbbebe"/><path d="M435.147,291.361c.1,2.08.176,4.277-.788,6.121a11.831,11.831,0,0,1-3.882,3.849l-4.973,3.6c-.252.176-.528.4-.553.7a1.057,1.057,0,0,0,.537.839,16.494,16.494,0,0,0,6.9,3.144,32.7,32.7,0,0,0,5.358.453c9.325.277,18.808.486,27.806-1.962a14.255,14.255,0,0,0,4.6-1.954,5.87,5.87,0,0,0,2.583-4.117c-2.3-.126-4.327-1.476-6.222-2.776s-3.832-2.717-4.436-4.88c-.377-1.35-.159-2.809-.47-4.193-.52-2.231-2.381-3.9-4.377-5.031-5.149-2.918-11.228-3.094-16.838-4.62-2.012-.545-5.61-2.96-5.744.3C434.5,284.3,434.979,287.907,435.147,291.361Z" transform="translate(-146.788 -99.68)" opacity="0.1"/><path d="M413.393,417.679c-7.245-1.778-14.867.839-21.433,4.335s-12.637,8.075-19.613,10.716c-5.593,2.122-11.823,3.061-16.528,6.759-4.193,3.354-6.616,8.444-8.176,13.584a21.6,21.6,0,0,0-1.157,8.972,24.317,24.317,0,0,0,2.205,6.708c4.863,10.767,11,20.888,17.131,31.026,10.985,18.121,22.07,36.376,36.309,52.082,4.545-3.119,4.1-10.633,8.6-13.8,1.132-.839,2.516-1.258,3.463-2.256,2.13-2.205,1.3-5.811.293-8.7a435.615,435.615,0,0,0-22.146-52.56c12.251.084,22.523-9.492,34.59-11.639a63.643,63.643,0,0,1,10.113-.671,343.09,343.09,0,0,0,35.688-2.516c4.293-.537,8.847-1.266,12.075-4.151,3.354-3,4.545-7.681,5.559-12.067,2.13-9.132,7.471-17.148,10.758-25.928.839-2.264,1.677-4.536,2.708-6.708.906-1.862,1.979-3.639,2.935-5.476,3.019-5.87,4.729-12.3,6.2-18.733,1.761-7.715,3.354-15.6,4.981-23.345,1.09-5.333,3.212-11.119.679-15.932-1.434-2.725-4.142-4.562-6.943-5.87a17.052,17.052,0,0,0-9.584-1.744c-6.406,1.015-10.725,6.884-14.322,12.268l-5.618,8.461a59.781,59.781,0,0,0-3.706,6.063c-2.113,4.142-3.262,8.687-4.88,13.039-4.369,11.689-12.578,22.246-23.731,27.814-2.968,1.484-6.1,2.6-9.09,4.033-2.34,1.124-4.587,2.44-6.951,3.513C427.4,417.922,420.277,419.364,413.393,417.679Z" transform="translate(-134.107 -109.441)" fill="#0284c7"/><circle cx="22.196" cy="22.196" r="22.196" transform="translate(285.306 148.748)" fill="#fbbebe"/><path d="M458.491,299.07a22.938,22.938,0,0,1-3.7,7.169c-3.17,3.656-8.293,4.956-13.131,5.149a38.816,38.816,0,0,1-15.764-2.675c-2.147-.839-4.335-1.912-6.624-1.677-3.312.293-5.769,3.077-8.687,4.679a43.577,43.577,0,0,1-4.6,1.979,25.542,25.542,0,0,0-14.716,18.565c-1.677,9.459,5.937,18.448,10.549,26.883,2.021,3.706,4.377,7.3,5.5,11.354,1.887,6.826.067,14.1-2.323,20.762s-5.375,13.257-5.87,20.318c-.151,2.071.57,4.864,2.65,4.838a4.57,4.57,0,0,0,2.121-.839,18.867,18.867,0,0,1,12.259-2.256c2.943.478,5.744,1.677,8.687,2.088,5.786.839,11.555-1.191,17.031-3.2,5.224-1.92,10.658-3.983,14.381-8.125,2.792-3.1,4.394-7.153,7.262-10.188,3.773-3.983,9.467-5.937,12.62-10.423,1.853-2.641,2.608-5.87,3.681-8.905s2.683-6.138,5.518-7.673c-1.518-2.65-3.212-5.492-3.027-8.545.159-2.658,1.635-5.031,2.725-7.463.713-1.6,1.275-3.27,1.836-4.931l1.811-5.392c.486-1.467.981-2.926,1.35-4.427.629-2.516.889-5.2,1.627-7.723,1.878-6.515,6.658-11.74,11.077-16.855a71.127,71.127,0,0,0-11.916-3.438,17.918,17.918,0,0,1-3.991-1.04c-1.467-.646-2.709-1.677-4.126-2.449a23,23,0,0,0-7.22-1.836,102.3,102.3,0,0,1-17-3.723Z" transform="translate(-141.313 -102.894)" fill="#ea580c"/><path d="M382.138,410.293a21.632,21.632,0,0,0,.193,5.87,22.966,22.966,0,0,0,2.407,5.7c4.612,8.813,8.385,18.037,12.184,27.244a36.637,36.637,0,0,1,2.44,7.362c.352,1.912.394,3.874.646,5.8a18.449,18.449,0,0,0,1.5,5.5c.889,1.9,5.7,12.016,7.547,13.006,3.966,2.155,9.291.168,11.815-3.581s-.839-17.073-2-21.425-3.555-8.276-5.769-12.209a224.287,224.287,0,0,1-10.507-21.2c-2.667-6.188-5.1-12.88-3.975-19.53.629-3.74,2.356-7.2,3.656-10.767s2.18-7.5,1.073-11.144a5.267,5.267,0,0,0-.839-1.769,5.635,5.635,0,0,0-2.348-1.518c-3.924-1.585-11.949-2.9-13.643,2.373-.7,2.189-.839,4.578-1.426,6.817a81.849,81.849,0,0,0-1.962,10.826C382.624,401.84,382.381,406.067,382.138,410.293Z" transform="translate(-139.857 -115.354)" fill="#fbbebe"/><path d="M476.38,435.592q-7.421,8.754-14.44,17.852l12.109,8.947a25.523,25.523,0,0,1,1.761-4.612,25.843,25.843,0,0,1,2.876-4.067l12.268-15.2a21.727,21.727,0,0,0-9.517-3.22C479.818,435.525,478,435.357,476.38,435.592Z" transform="translate(-152.761 -124.889)" fill="#fbbebe"/><path d="M538.558,320.49c3.2.73,6.406,1.459,9.568,2.348,6.566,1.853,13.207,4.545,17.752,9.635,1.006,1.124,1.92,2.834,1.031,4.059a5.685,5.685,0,0,1-1.057.939,12.387,12.387,0,0,0-2.683,3.949,30.935,30.935,0,0,1-5.61,7.429,24.454,24.454,0,0,0-6.2-4.889l-5.031-3.145c-2.222-1.4-4.528-2.826-7.128-3.228-2.985-.461-6,.478-9.014.7a19.1,19.1,0,0,1-10.993-2.516,2.634,2.634,0,0,1-1.04-.9,2.6,2.6,0,0,1-.277-.973,13.2,13.2,0,0,1,3.01-9.626c1.551-1.971,5.031-5.66,7.706-6,1.317-.168,3.187.7,4.486.989Z" transform="translate(-161.785 -105.992)" fill="#fbbebe"/><path d="M527.957,345.63a21.46,21.46,0,0,0-2.633,1.224c-6.574,3.43-13.358,7.035-17.878,12.913a51.336,51.336,0,0,0-5.4,9.652L491.1,392.714l-2.3,4.889-3.522,7.4L476.32,424.05a15.657,15.657,0,0,1,9.526.906c2.91,1.426,5.174,4.486,4.931,7.723,2.6-.226,3.983-3.052,5.811-4.914,1.493-1.526,3.455-2.516,5.182-3.748a40.964,40.964,0,0,0,6.146-5.962,180.281,180.281,0,0,1,18.59-17.911,41.826,41.826,0,0,0,3.69-3.3,30.448,30.448,0,0,0,5.618-9.45,82.286,82.286,0,0,0,5.518-20.544c.57-4.293.771-8.821-.981-12.779a14.255,14.255,0,0,0-15.723-7.882" transform="translate(-155.083 -110.412)" fill="#0284c7"/><path d="M526.957,346.63a21.446,21.446,0,0,0-2.633,1.224c-6.574,3.43-13.358,7.035-17.878,12.913a51.334,51.334,0,0,0-5.4,9.652L490.1,393.714l-2.3,4.889-3.522,7.4L475.32,425.05a15.656,15.656,0,0,1,9.526.906c2.91,1.425,5.174,4.486,4.931,7.723,2.6-.226,3.983-3.052,5.811-4.914,1.493-1.526,3.455-2.516,5.182-3.748a40.963,40.963,0,0,0,6.146-5.962,180.282,180.282,0,0,1,18.59-17.911,41.811,41.811,0,0,0,3.69-3.3,30.447,30.447,0,0,0,5.618-9.45,82.286,82.286,0,0,0,5.518-20.544c.57-4.293.771-8.821-.981-12.779a14.255,14.255,0,0,0-15.723-7.882" transform="translate(-154.921 -110.574)" opacity="0.1"/><path d="M464.093,453.141l-9.174-1.006a1.441,1.441,0,0,0-.755.059,1.342,1.342,0,0,0-.528.646q-4.428,8.335-8.268,16.972c-1.426,3.195-2.759,7.027-.956,10.062.537.889,1.316,1.627,1.82,2.516,1.14,2.088.621,4.687-.2,6.926a3.631,3.631,0,0,0-.352,2.038c.226.939,1.174,1.5,2.046,1.929a71.937,71.937,0,0,0,22.917,6.842,2.373,2.373,0,0,0,1.786-.26,2.4,2.4,0,0,0,.688-1.233,21.95,21.95,0,0,0,.746-2.734c.6-3.3-.327-6.708-1.031-9.962-1.14-5.333-1.677-10.951-.134-16.175a21.678,21.678,0,0,1,2.935-6.138c1.459-2.13-3.53-4.134-4.855-5.627C468.529,455.439,467.841,453.552,464.093,453.141Z" transform="translate(-149.79 -127.605)" fill="#f2f2f2"/><path d="M386.894,360.534l-2.784,17.039c2.34-2.214,5.819-2.616,9.039-2.683s6.968.243,9.224,2.658c.914.989,1.493,2.239,2.381,3.254a3.48,3.48,0,0,0,3.539,1.342,3.061,3.061,0,0,0,1.794-2.121,9.225,9.225,0,0,0,.168-2.876l-.914-18.8c-.226-4.536-.461-9.174-2.13-13.417A20.963,20.963,0,0,0,403.3,338.6a6.86,6.86,0,0,0-1.677-1.451,7.019,7.019,0,0,0-2.222-.662c-2.18-.344-5.727-.914-7.757.268-1.677,1-1.836,3.354-2.029,5.1C388.906,348.124,387.917,354.337,386.894,360.534Z" transform="translate(-140.194 -108.864)" fill="#ea580c"/><ellipse cx="31.076" cy="13.316" rx="31.076" ry="13.316" transform="translate(276.426 144.312)" fill="#192534"/><circle cx="17.752" cy="17.752" r="17.752" transform="translate(249.794 122.116)" fill="#192534"/><circle cx="17.752" cy="17.752" r="17.752" transform="translate(311.946 117.68)" fill="#192534"/><path d="M491.932,213.143a17.76,17.76,0,0,1,3.916,23.16,18.741,18.741,0,0,0,1.509-1.635,17.759,17.759,0,1,0-27.606-22.348,18.827,18.827,0,0,0-1.281,1.821,17.752,17.752,0,0,1,23.462-1Z" transform="translate(-153.815 -87.824)" opacity="0.1"/><path d="M404.34,216.1a17.76,17.76,0,0,1,22.305,7.337,18.351,18.351,0,0,0-.738-2.1,17.758,17.758,0,1,0-32.639,14,16.222,16.222,0,0,0,1.009,1.978A17.752,17.752,0,0,1,404.34,216.1Z" transform="translate(-141.44 -88.606)" opacity="0.1"/><path d="M453.956,261.544c-15.4,0-28.166-4.8-30.64-11.094a6.164,6.164,0,0,0-.436,2.222c0,7.354,13.911,13.316,31.076,13.316s31.076-5.962,31.076-13.316a6,6,0,0,0-.436-2.222C482.123,256.781,469.352,261.544,453.956,261.544Z" transform="translate(-146.454 -95.044)" opacity="0.1"/><path d="M857.473,198a18.305,18.305,0,0,0-7.346,35.076,16.137,16.137,0,0,1,.319-4.193L852.8,218.9a6.987,6.987,0,0,1-.587-2.893c0-2.717,1.568-4.738,3.53-4.738a2.44,2.44,0,0,1,2.465,2.742c0,1.677-1.073,4.193-1.618,6.5a2.826,2.826,0,0,0,2.893,3.522c3.463,0,5.8-4.453,5.8-9.735,0-4.008-2.708-7.01-7.614-7.01a8.67,8.67,0,0,0-9.014,8.771,5.282,5.282,0,0,0,1.207,3.589.839.839,0,0,1,.26,1.015c-.092.335-.285,1.149-.377,1.476a.621.621,0,0,1-.914.453c-2.558-1.04-3.748-3.84-3.748-6.993,0-5.2,4.386-11.429,13.081-11.429,6.985,0,11.589,5.031,11.589,10.482,0,7.186-4,12.578-9.878,12.578a5.257,5.257,0,0,1-4.469-2.281s-1.065,4.193-1.291,5.031a15.1,15.1,0,0,1-1.845,3.924,18.305,18.305,0,1,0,5.2-35.906Z" transform="translate(-213.668 -86.575)" fill="#be000f"/><path d="M794.506,88.834a16.092,16.092,0,0,1-4.536,1.258,8.024,8.024,0,0,0,3.48-4.386,15.813,15.813,0,0,1-5.031,1.92,7.907,7.907,0,0,0-13.685,5.409,8.1,8.1,0,0,0,.2,1.811,22.431,22.431,0,0,1-16.31-8.276,7.933,7.933,0,0,0,2.465,10.566,7.656,7.656,0,0,1-3.6-.981v.092a7.916,7.916,0,0,0,6.348,7.765,8.134,8.134,0,0,1-2.08.277,7.976,7.976,0,0,1-1.492-.143,7.916,7.916,0,0,0,7.4,5.492,15.823,15.823,0,0,1-9.828,3.354,15.615,15.615,0,0,1-1.887-.117,22.1,22.1,0,0,0,12.109,3.581c14.565,0,22.531-12.067,22.531-22.54V92.9a16.106,16.106,0,0,0,3.916-4.067Z" transform="translate(-200.233 -68.349)" fill="#55acee"/><path d="M478.961,65.12H451.046a1.736,1.736,0,0,0-1.736,1.736V94.762a1.736,1.736,0,0,0,1.736,1.736h13.936V84.079h-3.748V79.5h3.748V76.147c0-4.059,2.809-6.264,6.432-6.264,1.736,0,3.6.134,4.025.193v4.193h-2.885c-1.962,0-2.34.939-2.34,2.306v2.918H474.9l-.612,4.578h-4.075V96.49h8.729a1.736,1.736,0,0,0,1.727-1.736v-27.9a1.736,1.736,0,0,0-1.711-1.736Z" transform="translate(-150.722 -65.12)" fill="#3b5998"/><path d="M588.073,159.222l-.126-.57h-12.8v5.283h7.4c-.763,3.673-3.949,5.2-6.868,5.2a7.84,7.84,0,0,1-5.585-2.071,8.243,8.243,0,0,1-.1-11.438,7.681,7.681,0,0,1,5.61-2.08,7.077,7.077,0,0,1,4.746,1.727l3.924-3.9a13.265,13.265,0,0,0-8.8-3.354,13.132,13.132,0,0,0-13.417,13.316,13.416,13.416,0,0,0,3.639,9.224,13.92,13.92,0,0,0,10.062,4.059,12.377,12.377,0,0,0,9.014-3.782,13.291,13.291,0,0,0,3.463-9.224,15.081,15.081,0,0,0-.168-2.381Zm15.84-.562h-4.662v-4.654H595.9v4.654h-4.662v3.354H595.9v4.654h3.354v-4.654h4.687Z" transform="translate(-168.928 -78.505)" fill="#dd4b39"/><path d="M300.92,194.633a6.557,6.557,0,0,1,6.532,6.541v13.073a6.524,6.524,0,0,1-1.92,4.612,6.44,6.44,0,0,1-4.612,1.92H287.838a6.557,6.557,0,0,1-6.532-6.532V201.174a6.557,6.557,0,0,1,6.532-6.541H300.92m0-2.616H287.838a9.174,9.174,0,0,0-9.148,9.157v13.073a9.174,9.174,0,0,0,9.148,9.148H300.92a9.174,9.174,0,0,0,9.148-9.148V201.174A9.174,9.174,0,0,0,300.92,192Z" transform="translate(-123.173 -85.606)" fill="#e53c5f"/><path d="M304.383,202.184a1.954,1.954,0,1,1,1.39-.572,1.962,1.962,0,0,1-1.39.572Zm-8.494,1.308a5.232,5.232,0,1,1-5.232,5.224,5.232,5.232,0,0,1,5.232-5.224m0-2.616a7.84,7.84,0,1,0,5.549,2.293A7.849,7.849,0,0,0,295.889,200.876Z" transform="translate(-124.682 -86.617)" fill="#e53c5f"/><path d="M735.242,288H709.063a2.557,2.557,0,0,0-2.683,2.449v26.238a2.759,2.759,0,0,0,2.683,2.683h26.171a2.625,2.625,0,0,0,2.516-2.683V290.465A2.406,2.406,0,0,0,735.242,288ZM716.124,314.17h-4.495V300.192h4.495Zm-2.1-16.1h0a2.415,2.415,0,1,1,2.465-2.415,2.306,2.306,0,0,1-2.516,2.407Zm18.515,16.1h-4.511v-7.647c0-1.828-.654-3.077-2.281-3.077a2.449,2.449,0,0,0-2.3,1.677,2.943,2.943,0,0,0-.159,1.1v7.966H718.8v-14h4.495v1.945a4.553,4.553,0,0,1,4.058-2.272c2.943,0,5.174,1.945,5.174,6.138Z" transform="translate(-192.229 -101.106)" fill="#007bb6"/><path d="M424.31,390.527l2.222,4.017,72.307-15.329-2.859-4.545Z" transform="translate(-68.525 -60.495)" fill="#464a5f"/><path d="M505.076,448.682l-10.951-64.953a2.08,2.08,0,0,1,1.828-2.407l83.015-8.855a2.071,2.071,0,0,1,2.272,1.778l7.765,56.895Z" transform="translate(-157.953 -114.743)" fill="#464a5f"/><path d="M505.076,448.682l-10.951-64.953a2.08,2.08,0,0,1,1.828-2.407l83.015-8.855a2.071,2.071,0,0,1,2.272,1.778l7.765,56.895Z" transform="translate(-157.953 -114.743)" opacity="0.1"/><path d="M506.587,448.682l-10.943-64.953a2.071,2.071,0,0,1,1.82-2.407l83.015-8.855a2.071,2.071,0,0,1,2.272,1.778l7.757,56.895Z" transform="translate(-158.198 -114.743)" fill="#464a5f"/><path d="M409.31,322.449l8.989,55.184L493.348,362.2l-6.977-49.046Z" transform="translate(-66.103 -50.562)" fill="#ea580c"/><path d="M517.655,458.824l-.528-1.065-9.937,2.222L532.5,498.655a3.27,3.27,0,0,0,3.656,1.35l88.885-25.835a3.27,3.27,0,0,0,1.065-5.752L591.656,442.33l-7.186,1.677.319.738Z" transform="translate(-160.067 -126.026)" fill="#9c9ca1"/><path d="M517.655,458.824l-.528-1.065-9.937,2.222L532.5,498.655a3.27,3.27,0,0,0,3.656,1.35l88.885-25.835a3.27,3.27,0,0,0,1.065-5.752L591.656,442.33l-7.186,1.677.319.738Z" transform="translate(-160.067 -126.026)" opacity="0.1"/><path d="M519.165,458.824l-.528-1.065-9.937,2.222,25.307,38.673a3.27,3.27,0,0,0,3.656,1.35l88.885-25.835a3.27,3.27,0,0,0,1.057-5.752L593.157,442.33l-7.186,1.677.319.738Z" transform="translate(-160.311 -126.026)" fill="#9c9ca1"/><path d="M568.387,479.435,596.947,472a.562.562,0,0,1,.511.126l12.687,11.513a.553.553,0,0,1-.218.939L579.74,493.5a.545.545,0,0,1-.57-.176l-11.044-13.006a.562.562,0,0,1,.26-.88Z" transform="translate(-169.886 -130.813)" opacity="0.1"/><path d="M569.141,478.688l28.561-7.421a.553.553,0,0,1,.511.126l12.67,11.5a.554.554,0,0,1-.218.939l-30.187,8.922a.562.562,0,0,1-.579-.176l-11.035-13.006a.545.545,0,0,1,.277-.889Z" transform="translate(-170.003 -130.695)" fill="#939498"/><g transform="translate(357.605 320.256)" opacity="0.1"><path d="M521.23,468.162l1.283,2.063a.252.252,0,0,0,.26.117l4.335-.964a.252.252,0,0,0,.143-.386l-1.434-2.012a.243.243,0,0,0-.252-.1l-4.193.9a.243.243,0,0,0-.143.386Z" transform="translate(-519.931 -450.245)"/><path d="M527.992,466.755l1.275,2.071a.26.26,0,0,0,.268.109l4.327-.964a.243.243,0,0,0,.143-.386l-1.426-2a.252.252,0,0,0-.251-.1l-4.193.9a.243.243,0,0,0-.143.369Z" transform="translate(-521.024 -450.021)"/><path d="M534.532,465.334l1.283,2.063a.252.252,0,0,0,.26.109l4.335-.964a.252.252,0,0,0,.143-.386l-1.442-2a.26.26,0,0,0-.252-.1l-4.193.9a.252.252,0,0,0-.134.377Z" transform="translate(-522.08 -449.79)"/><path d="M540.992,463.932l1.266,2.038a.268.268,0,0,0,.285.117l4.293-.956a.268.268,0,0,0,.151-.411l-1.409-1.971a.26.26,0,0,0-.268-.1l-4.193.889a.268.268,0,0,0-.126.394Z" transform="translate(-523.123 -449.562)"/><path d="M540.462,467.695l1.283,2.063a.235.235,0,0,0,.26.109l4.327-.964a.235.235,0,0,0,.143-.377l-1.425-2a.243.243,0,0,0-.252-.092l-4.193.9a.243.243,0,0,0-.142.369Z" transform="translate(-523.038 -450.172)"/><path d="M533.776,469.121l1.283,2.063a.252.252,0,0,0,.268.109l4.327-.964a.243.243,0,0,0,.142-.386l-1.434-1.962a.235.235,0,0,0-.252-.092l-4.193.9a.252.252,0,0,0-.143.335Z" transform="translate(-521.961 -450.408)"/><path d="M538.124,472.137l1.283,2.071a.268.268,0,0,0,.268.109l4.327-.964a.243.243,0,0,0,.143-.386l-1.434-1.987a.243.243,0,0,0-.252-.1l-4.193.9a.252.252,0,0,0-.143.361Z" transform="translate(-522.662 -450.891)"/><path d="M544.272,474.755l1.283,2.063a.235.235,0,0,0,.26.109l4.327-.964a.243.243,0,0,0,.151-.377l-1.434-2a.243.243,0,0,0-.252-.092l-4.193.9a.243.243,0,0,0-.143.369Z" transform="translate(-523.653 -451.312)"/><path d="M545.34,479.011l2.071,2.6a.243.243,0,0,0,.252.084l4.36-1.132a.252.252,0,0,0,.134-.394l-2.147-2.616a.243.243,0,0,0-.252-.084l-4.293,1.157a.243.243,0,0,0-.126.386Z" transform="translate(-523.823 -451.954)"/><path d="M552.14,477.239l2.13,2.675a.243.243,0,0,0,.252.084l5.694-1.576a.252.252,0,0,0,.126-.394l-2.147-2.625a.243.243,0,0,0-.252-.084l-5.668,1.526a.252.252,0,0,0-.134.394Z" transform="translate(-524.922 -451.607)"/><path d="M538.69,480.7l2.071,2.6a.243.243,0,0,0,.252.084l4.36-1.132a.252.252,0,0,0,.134-.394l-2.147-2.625a.235.235,0,0,0-.252-.075l-4.293,1.149a.251.251,0,0,0-.126.394Z" transform="translate(-522.75 -452.227)"/><path d="M531.657,482.475l2.071,2.591a.243.243,0,0,0,.252.084l4.36-1.132a.251.251,0,0,0,.134-.394l-2.138-2.641a.26.26,0,0,0-.26-.084l-4.293,1.157a.252.252,0,0,0-.126.419Z" transform="translate(-521.611 -452.508)"/><path d="M547.441,462.422l1.258,2.038a.268.268,0,0,0,.285.117l4.293-.956a.26.26,0,0,0,.151-.411l-1.409-1.971a.26.26,0,0,0-.268-.1l-4.142.889a.252.252,0,0,0-.168.394Z" transform="translate(-524.164 -449.318)"/><path d="M546.994,466.2l1.258,2.038a.268.268,0,0,0,.285.117l4.293-.956a.26.26,0,0,0,.151-.411l-1.375-2a.26.26,0,0,0-.268-.1l-4.142.939a.26.26,0,0,0-.2.377Z" transform="translate(-524.094 -449.922)"/><path d="M553.712,461l1.258,2.038a.268.268,0,0,0,.285.117l4.293-.956a.26.26,0,0,0,.151-.411l-1.409-1.971a.26.26,0,0,0-.268-.1l-4.142.889a.26.26,0,0,0-.168.394Z" transform="translate(-525.177 -449.089)"/><path d="M572.048,457.01l1.778,1.9a.235.235,0,0,0,.2.059l3.832-.889a.21.21,0,0,0,.1-.361l-2-1.9a.227.227,0,0,0-.2-.05l-3.606.889a.21.21,0,0,0-.1.352Z" transform="translate(-528.134 -448.451)"/><path d="M577.91,455.65l1.786,1.9a.2.2,0,0,0,.2.059l3.832-.889a.2.2,0,0,0,.092-.352l-2-1.9a.243.243,0,0,0-.2-.05l-3.606.889a.218.218,0,0,0-.1.352Z" transform="translate(-529.082 -448.232)"/><path d="M572.17,460.66l1.786,1.9a.2.2,0,0,0,.2.059l3.832-.88a.21.21,0,0,0,.1-.361l-2.013-1.9a.21.21,0,0,0-.193-.059l-3.606.9a.21.21,0,0,0-.109.344Z" transform="translate(-528.155 -449.041)"/><path d="M566.156,462.053l1.677,1.811a.26.26,0,0,0,.252.075l3.715-.839a.268.268,0,0,0,.117-.453L570,460.837a.252.252,0,0,0-.243-.059l-3.488.839a.268.268,0,0,0-.109.436Z" transform="translate(-527.181 -449.259)"/><path d="M570.726,468.863l1.677,1.811a.277.277,0,0,0,.252.076l3.715-.839a.26.26,0,0,0,.117-.444l-1.92-1.811a.277.277,0,0,0-.243-.067l-3.488.839a.268.268,0,0,0-.109.436Z" transform="translate(-527.919 -450.359)"/><path d="M564.456,470.283l1.677,1.811a.277.277,0,0,0,.252.076l3.706-.839a.26.26,0,0,0,.126-.444l-1.92-1.811a.268.268,0,0,0-.243-.067l-3.5.839a.268.268,0,0,0-.1.436Z" transform="translate(-526.906 -450.589)"/><path d="M558.085,471.853l1.677,1.811a.26.26,0,0,0,.252.075l3.715-.839a.268.268,0,0,0,.117-.453l-1.92-1.811a.251.251,0,0,0-.243-.059l-3.488.839a.26.26,0,0,0-.109.436Z" transform="translate(-525.877 -450.841)"/><path d="M551.353,473.186l1.727,1.836a.252.252,0,0,0,.235.075l3.748-.839a.243.243,0,0,0,.117-.419l-1.945-1.853a.243.243,0,0,0-.226-.059l-3.53.839a.235.235,0,0,0-.126.419Z" transform="translate(-524.788 -451.06)"/><path d="M564.391,466.339l1.677,1.811a.268.268,0,0,0,.252.075l3.706-.839a.26.26,0,0,0,.126-.444l-1.912-1.836a.268.268,0,0,0-.243-.067l-3.5.839a.26.26,0,0,0-.109.461Z" transform="translate(-526.891 -449.948)"/><path d="M558.274,467.751l1.677,1.8a.243.243,0,0,0,.252.076l3.715-.839a.26.26,0,0,0,.117-.444l-1.92-1.811a.235.235,0,0,0-.243-.067l-3.488.839a.26.26,0,0,0-.109.444Z" transform="translate(-525.906 -450.178)"/><path d="M551.724,469.143l1.677,1.811a.26.26,0,0,0,.252.076l3.706-.839a.268.268,0,0,0,.126-.453l-1.92-1.811a.26.26,0,0,0-.243-.059l-3.5.839a.26.26,0,0,0-.1.436Z" transform="translate(-524.85 -450.404)"/><path d="M544.988,470.758l1.727,1.836a.285.285,0,0,0,.243.067l3.748-.839a.243.243,0,0,0,.109-.419l-1.945-1.836a.252.252,0,0,0-.226-.059l-3.53.839a.252.252,0,0,0-.126.411Z" transform="translate(-523.765 -450.669)"/><path d="M570.7,464.863l1.677,1.8a.26.26,0,0,0,.252.084l3.706-.839a.26.26,0,0,0,.126-.444l-1.92-1.811a.243.243,0,0,0-.243-.067l-3.5.839a.268.268,0,0,0-.1.436Z" transform="translate(-527.914 -449.713)"/><path d="M559.984,463.633l1.677,1.811a.268.268,0,0,0,.252.075l3.706-.839a.26.26,0,0,0,.117-.444l-1.912-1.811a.269.269,0,0,0-.243-.067l-3.5.839a.26.26,0,0,0-.1.436Z" transform="translate(-526.183 -449.515)"/><path d="M583.575,454.235l1.87,1.979a.159.159,0,0,0,.151.05l3.958-.922a.159.159,0,0,0,.076-.268l-2.1-1.987a.16.16,0,0,0-.151,0l-3.723.922a.151.151,0,0,0-.075.226Z" transform="translate(-530.001 -448.016)"/><path d="M589.276,452.967l1.87,1.987a.176.176,0,0,0,.151.05l3.958-.922a.159.159,0,0,0,.075-.268l-2.1-1.987a.143.143,0,0,0-.143,0l-3.732.922a.151.151,0,0,0-.084.218Z" transform="translate(-530.923 -447.812)"/><path d="M595.144,451.655l1.677,1.836a.151.151,0,0,0,.159.05l3.69-1.006a.168.168,0,0,0,.059-.277l-1.9-1.6a.168.168,0,0,0-.134,0l-3.5.771a.151.151,0,0,0-.05.226Z" transform="translate(-531.868 -447.624)"/><path d="M601.285,453.7l1.677,1.845a.168.168,0,0,0,.151.05l3.69-1.006a.159.159,0,0,0,.059-.277l-1.9-1.6a.134.134,0,0,0-.134,0l-3.488.763a.159.159,0,0,0-.05.226Z" transform="translate(-532.86 -447.955)"/><path d="M600.539,457.677l1.618,1.744a.193.193,0,0,0,.21.059l3.555-.964a.21.21,0,0,0,.084-.369l-1.8-1.526a.21.21,0,0,0-.184-.042l-3.354.746a.21.21,0,0,0-.126.352Z" transform="translate(-532.735 -448.582)"/><path d="M595.536,462.794l1.618,1.753a.21.21,0,0,0,.21.059l3.589-.973a.21.21,0,0,0,.084-.361l-1.8-1.526a.21.21,0,0,0-.185,0l-3.354.738a.218.218,0,0,0-.159.31Z" transform="translate(-531.933 -449.413)"/><path d="M589.514,464.332l1.618,1.744a.193.193,0,0,0,.21.059l3.555-.964a.21.21,0,0,0,.084-.369l-1.8-1.526a.21.21,0,0,0-.184,0l-3.354.746a.21.21,0,0,0-.126.31Z" transform="translate(-530.96 -449.661)"/><path d="M601.2,461.268l1.618,1.744a.227.227,0,0,0,.21.067l3.564-.973a.21.21,0,0,0,.075-.369l-1.8-1.518a.243.243,0,0,0-.185-.05l-3.354.746a.218.218,0,0,0-.126.352Z" transform="translate(-532.843 -449.162)"/><path d="M600.215,465.712l2.44,2.2a.251.251,0,0,0,.2,0l3.53-1a.21.21,0,0,0,.084-.361l-2.633-2.306a.193.193,0,0,0-.2,0l-3.354,1.115a.2.2,0,0,0-.067.352Z" transform="translate(-532.68 -449.816)"/><path d="M589.995,456.535l1.677,1.845a.143.143,0,0,0,.151.042l3.69-1.006a.151.151,0,0,0,.059-.268l-1.9-1.61a.151.151,0,0,0-.134,0l-3.488.771a.159.159,0,0,0-.05.226Z" transform="translate(-531.038 -448.412)"/><path d="M584.339,457.928l1.618,1.744a.226.226,0,0,0,.21.067l3.564-.973a.21.21,0,0,0,.076-.369L588,456.88a.243.243,0,0,0-.184-.05l-3.354.746a.21.21,0,0,0-.126.352Z" transform="translate(-530.119 -448.623)"/><path d="M583.179,461.959l1.618,1.753a.21.21,0,0,0,.21.059l3.555-.973a.21.21,0,0,0,.084-.361l-1.811-1.526a.21.21,0,0,0-.185-.042l-3.354.738a.21.21,0,0,0-.117.352Z" transform="translate(-529.932 -449.274)"/><path d="M577.189,463.409l1.618,1.753a.21.21,0,0,0,.21.059l3.555-.973a.21.21,0,0,0,.084-.361l-1.811-1.526a.193.193,0,0,0-.176-.042l-3.354.738a.21.21,0,0,0-.126.352Z" transform="translate(-528.965 -449.508)"/><path d="M578.26,459.279l1.618,1.753a.193.193,0,0,0,.21.059l3.555-.973a.21.21,0,0,0,.084-.361l-1.8-1.526a.209.209,0,0,0-.184-.042l-3.354.746a.21.21,0,0,0-.126.344Z" transform="translate(-529.139 -448.842)"/><path d="M583.271,465.679l1.618,1.753a.21.21,0,0,0,.21.059l3.555-.973a.21.21,0,0,0,.084-.361l-1.8-1.526a.21.21,0,0,0-.184-.042l-3.354.738a.218.218,0,0,0-.126.352Z" transform="translate(-529.948 -449.875)"/><path d="M577.389,467.26l1.535,1.677a.252.252,0,0,0,.26.075l3.43-.931a.268.268,0,0,0,.1-.461l-1.677-1.442a.243.243,0,0,0-.226-.05l-3.253.713a.26.26,0,0,0-.168.419Z" transform="translate(-528.997 -450.123)"/><path d="M595.83,455.077l1.677,1.845a.159.159,0,0,0,.159,0l3.69-1.006a.151.151,0,0,0,.059-.268l-1.9-1.61a.185.185,0,0,0-.134,0l-3.488.771a.159.159,0,0,0-.059.268Z" transform="translate(-531.976 -448.17)"/><path d="M594.991,459.031l1.618,1.753a.21.21,0,0,0,.21.059l3.555-.973a.21.21,0,0,0,.084-.361l-1.778-1.518a.21.21,0,0,0-.184-.042l-3.354.738a.21.21,0,0,0-.151.344Z" transform="translate(-531.841 -448.803)"/><path d="M589.259,460.608l1.618,1.744a.218.218,0,0,0,.21.067l3.555-.973a.218.218,0,0,0,.084-.369l-1.811-1.518a.227.227,0,0,0-.176-.05l-3.354.746a.21.21,0,0,0-.126.352Z" transform="translate(-530.914 -449.056)"/><path d="M566.06,458.3l1.786,1.9a.218.218,0,0,0,.2.059l3.832-.889a.21.21,0,0,0,.092-.361l-2-1.9a.218.218,0,0,0-.2-.05l-3.606.889a.218.218,0,0,0-.1.352Z" transform="translate(-527.169 -448.659)"/><path d="M559.986,459.753l1.677,1.811a.26.26,0,0,0,.252.075l3.715-.839a.268.268,0,0,0,.117-.453l-1.92-1.811a.252.252,0,0,0-.243-.059l-3.488.838a.268.268,0,0,0-.109.436Z" transform="translate(-526.185 -448.888)"/><path d="M553.421,464.851l1.266,2.029a.26.26,0,0,0,.285.117l4.285-.956a.26.26,0,0,0,.159-.411l-1.409-1.962a.285.285,0,0,0-.268-.109l-4.193.889a.268.268,0,0,0-.126.4Z" transform="translate(-525.129 -449.709)"/><path d="M519.883,465.81l4.235-.981a.243.243,0,0,1,.251.092l.746.981a.243.243,0,0,1-.143.386l-4.386,1.023a.243.243,0,0,1-.268-.117l-.6-1.023a.243.243,0,0,1,.159-.361Z" transform="translate(-519.69 -449.914)"/><path d="M526.825,464.3l4.193-.981a.235.235,0,0,1,.252.092l.746.973a.252.252,0,0,1-.143.394l-4.386,1.023a.252.252,0,0,1-.268-.117l-.6-1.023a.243.243,0,0,1,.2-.361Z" transform="translate(-520.805 -449.67)"/><path d="M533.536,462.811l4.193-.973a.235.235,0,0,1,.252.084l.746.981a.243.243,0,0,1-.143.386l-4.386,1.023a.243.243,0,0,1-.268-.117l-.6-1.015a.252.252,0,0,1,.2-.369Z" transform="translate(-521.889 -449.43)"/><path d="M540.08,461.361l4.193-.973a.235.235,0,0,1,.252.092l.746.973a.252.252,0,0,1-.143.394l-4.3,1.015a.235.235,0,0,1-.268-.109l-.6-1.023a.252.252,0,0,1,.117-.369Z" transform="translate(-522.957 -449.197)"/><path d="M546.728,459.892l4.193-.973a.277.277,0,0,1,.268.1l.721.948a.268.268,0,0,1-.151.419l-4.352,1.015a.268.268,0,0,1-.285-.126l-.579-.989a.268.268,0,0,1,.184-.394Z" transform="translate(-524.021 -448.96)"/><path d="M553.186,458.551l4.193-.973a.252.252,0,0,1,.268.092l.721.948a.268.268,0,0,1-.151.419l-4.352,1.015a.268.268,0,0,1-.285-.126l-.587-.989a.26.26,0,0,1,.193-.386Z" transform="translate(-525.062 -448.743)"/><path d="M559.5,457.238l3.882-.939a.251.251,0,0,1,.252.075l.755.788a.26.26,0,0,1-.126.436l-3.84.964a.243.243,0,0,1-.243-.067l-.839-.839a.268.268,0,0,1,.159-.419Z" transform="translate(-526.084 -448.536)"/><path d="M565.65,455.811l4-.973a.2.2,0,0,1,.2.059l.839.88a.2.2,0,0,1-.1.344l-3.95,1a.218.218,0,0,1-.2-.059l-.88-.9a.21.21,0,0,1,.092-.352Z" transform="translate(-527.086 -448.301)"/><path d="M571.767,454.381l4-.973a.184.184,0,0,1,.2.059l.839.839a.218.218,0,0,1-.1.352l-3.933,1.031a.226.226,0,0,1-.2-.059l-.906-.889a.21.21,0,0,1,.1-.361Z" transform="translate(-528.072 -448.069)"/><path d="M577.894,453.122l4-.973a.218.218,0,0,1,.2.059l.839.839a.218.218,0,0,1-.1.352l-3.949.989a.218.218,0,0,1-.21-.059l-.881-.889a.218.218,0,0,1,.1-.319Z" transform="translate(-529.066 -447.867)"/><path d="M583.689,451.724l4.126-1a.151.151,0,0,1,.151,0l.914.964a.151.151,0,0,1-.076.26l-4.042,1.065a.142.142,0,0,1-.151,0l-.973-.981a.159.159,0,0,1,.05-.31Z" transform="translate(-529.998 -447.634)"/><path d="M589.555,450.476l4.126-1.006a.176.176,0,0,1,.151.05l.922.964a.159.159,0,0,1-.076.26l-4.075,1.023a.151.151,0,0,1-.151,0l-.973-1.015a.159.159,0,0,1,.075-.277Z" transform="translate(-530.95 -447.434)"/><path d="M595.393,449.168l3.807-.839a.159.159,0,0,1,.159.059l.738.906a.151.151,0,0,1-.084.243l-3.581.947a.143.143,0,0,1-.151-.042l-.973-.981a.153.153,0,1,1,.084-.294Z" transform="translate(-531.882 -447.25)"/><path d="M600.96,447.887l3.815-.839a.151.151,0,0,1,.159.05l.738.906a.159.159,0,0,1-.084.252l-3.581.948a.185.185,0,0,1-.151,0l-.973-.989a.168.168,0,0,1,.076-.327Z" transform="translate(-532.779 -447.043)"/><path d="M523.456,471.595l1.409,2a.243.243,0,0,0,.26.1l7.337-1.677a.243.243,0,0,0,.134-.386l-1.551-2.054a.252.252,0,0,0-.26-.084l-7.178,1.753a.26.26,0,0,0-.151.344Z" transform="translate(-520.295 -450.667)"/><path d="M526.1,474.763l1.409,2.23a.235.235,0,0,0,.26.109l8.863-2.1a.243.243,0,0,0,.134-.394l-1.753-2.172a.243.243,0,0,0-.252-.084l-8.511,2.046a.243.243,0,0,0-.151.369Z" transform="translate(-520.719 -451.128)"/><path d="M528.488,478.116l1.677,2.423a.243.243,0,0,0,.26.1l11.74-2.9a.251.251,0,0,0,.143-.394l-1.9-2.423a.243.243,0,0,0-.252-.092l-11.605,2.91a.243.243,0,0,0-.067.377Z" transform="translate(-521.101 -451.528)"/><path d="M560.538,474.259l2.147,2.591a.268.268,0,0,0,.268.084l25.827-6.448a.252.252,0,0,0,.117-.436l-2.633-2.625a.251.251,0,0,0-.252-.067l-25.341,6.482a.26.26,0,0,0-.134.419Z" transform="translate(-526.276 -450.321)"/><path d="M592.331,467.268l2.516,2.516a.218.218,0,0,0,.21.059l5.291-1.417a.21.21,0,0,0,.092-.352l-2.625-2.574a.193.193,0,0,0-.2-.05l-5.2,1.434a.21.21,0,0,0-.084.386Z" transform="translate(-531.403 -450.013)"/><path d="M607.6,465.443l1.149,1.224a.151.151,0,0,0,.151.042l3.924-1.057a.151.151,0,0,0,.067-.26l-1.4-1.317a.159.159,0,0,0-.151,0l-3.673,1.149a.151.151,0,0,0-.067.218Z" transform="translate(-533.88 -449.79)"/><path d="M611.576,462.358l1.375,1.442a.142.142,0,0,0,.159.042l3.6-1.249a.151.151,0,0,0,.059-.26l-1.342-1.216a.167.167,0,0,0-.151,0l-3.631,1.015a.159.159,0,0,0-.067.226Z" transform="translate(-534.523 -449.312)"/><path d="M614.539,465.123l-.989-.839a.159.159,0,0,1,.05-.268l3.581-1.241a.151.151,0,0,1,.168,0l1.115,1.082a.159.159,0,0,1-.067.268l-3.723.964A.168.168,0,0,1,614.539,465.123Z" transform="translate(-534.837 -449.579)"/><path d="M619.115,462.677c.31.293.839.889,1.065,1.09a.159.159,0,0,0,.151.042l3.732-1.015a.159.159,0,0,0,.067-.268l-1.325-1.191a.143.143,0,0,0-.151,0l-3.472,1.115a.151.151,0,0,0-.067.226Z" transform="translate(-535.739 -449.347)"/><path d="M606.621,459.582l2,1.929a.134.134,0,0,0,.143.042l9.635-2.516a.151.151,0,0,0,.059-.268l-2.306-1.962a.143.143,0,0,0-.143,0l-9.291,2.516a.151.151,0,0,0-.1.26Z" transform="translate(-533.719 -448.616)"/><path d="M605.845,456.172l2.063,1.836a.176.176,0,0,0,.143,0l7.245-1.677a.159.159,0,0,0,.067-.277l-2.373-1.987a.176.176,0,0,0-.142,0l-6.935,1.87a.159.159,0,0,0-.067.235Z" transform="translate(-533.597 -448.175)"/><path d="M606.626,452.543l1.954,1.744a.151.151,0,0,0,.143,0l3.715-.839a.168.168,0,0,0,.076-.277l-2.314-2a.159.159,0,0,0-.151,0l-3.354,1.073a.159.159,0,0,0-.067.293Z" transform="translate(-533.715 -447.707)"/><path d="M600.559,450.383l1.9,1.719a.167.167,0,0,0,.142,0l5.87-1.4a.159.159,0,0,0,.067-.268l-2.256-1.887a.176.176,0,0,0-.143,0l-5.534,1.568a.159.159,0,0,0-.042.268Z" transform="translate(-532.739 -447.283)"/></g><path d="M521.232,467.414l1.283,2.063a.252.252,0,0,0,.26.109l4.335-.964a.252.252,0,0,0,.143-.386l-1.434-2a.26.26,0,0,0-.252-.1l-4.193.9a.252.252,0,0,0-.143.377Z" transform="translate(-162.328 -129.869)" fill="#464a5f"/><path d="M527.992,465.995l1.275,2.063a.252.252,0,0,0,.268.109l4.327-.964a.243.243,0,0,0,.143-.386l-1.426-2a.243.243,0,0,0-.251-.092l-4.193.9a.243.243,0,0,0-.143.369Z" transform="translate(-163.419 -129.641)" fill="#464a5f"/><path d="M534.532,464.575l1.283,2.063a.235.235,0,0,0,.26.109l4.335-.964a.243.243,0,0,0,.143-.377l-1.442-2a.243.243,0,0,0-.252-.092l-4.193.9a.243.243,0,0,0-.134.369Z" transform="translate(-164.475 -129.412)" fill="#464a5f"/><path d="M540.989,463.169l1.266,2.038a.26.26,0,0,0,.285.117l4.293-.956a.268.268,0,0,0,.151-.411l-1.426-1.979a.26.26,0,0,0-.268-.109l-4.193.889a.268.268,0,0,0-.109.411Z" transform="translate(-165.515 -129.179)" fill="#464a5f"/><path d="M540.462,466.935l1.283,2.071a.26.26,0,0,0,.26.109l4.327-.964a.243.243,0,0,0,.143-.386l-1.425-2a.251.251,0,0,0-.252-.1l-4.193.9a.243.243,0,0,0-.143.369Z" transform="translate(-165.433 -129.793)" fill="#464a5f"/><path d="M533.773,468.355l1.283,2.063a.268.268,0,0,0,.268.117l4.327-.964a.243.243,0,0,0,.142-.386l-1.434-2a.243.243,0,0,0-.252-.1l-4.193.9a.251.251,0,0,0-.142.369Z" transform="translate(-164.354 -130.022)" fill="#464a5f"/><path d="M538.122,471.385l1.283,2.063a.243.243,0,0,0,.268.109l4.327-.964a.243.243,0,0,0,.143-.386l-1.434-2a.235.235,0,0,0-.252-.092l-4.193.889a.252.252,0,0,0-.143.377Z" transform="translate(-165.055 -130.511)" fill="#464a5f"/><path d="M544.272,474.025l1.283,2.071a.243.243,0,0,0,.26.109l4.327-.964a.252.252,0,0,0,.151-.386l-1.434-2a.252.252,0,0,0-.252-.1l-4.193.9a.243.243,0,0,0-.143.369Z" transform="translate(-166.048 -130.938)" fill="#464a5f"/><path d="M545.34,478.26l2.071,2.591a.243.243,0,0,0,.252.084l4.36-1.132a.252.252,0,0,0,.134-.394l-2.147-2.616a.243.243,0,0,0-.252-.084l-4.293,1.157a.252.252,0,0,0-.126.394Z" transform="translate(-166.218 -131.575)" fill="#464a5f"/><path d="M552.14,476.48l2.13,2.675a.243.243,0,0,0,.252.084l5.694-1.576a.252.252,0,0,0,.126-.394l-2.147-2.616a.243.243,0,0,0-.252-.084l-5.669,1.526a.243.243,0,0,0-.134.386Z" transform="translate(-167.317 -131.23)" fill="#464a5f"/><path d="M538.69,479.9l2.071,2.591a.244.244,0,0,0,.252.084l4.36-1.132a.252.252,0,0,0,.134-.394l-2.147-2.616a.243.243,0,0,0-.252-.084l-4.293,1.157a.251.251,0,0,0-.126.394Z" transform="translate(-165.145 -131.84)" fill="#464a5f"/><path d="M531.66,481.7l2.071,2.6a.243.243,0,0,0,.252.084l4.36-1.132a.251.251,0,0,0,.134-.394l-2.138-2.616a.26.26,0,0,0-.26-.084l-4.293,1.157a.243.243,0,0,0-.126.386Z" transform="translate(-164.01 -132.132)" fill="#464a5f"/><path d="M547.442,461.662,548.7,463.7a.268.268,0,0,0,.285.117l4.293-.956a.26.26,0,0,0,.151-.411l-1.409-1.971a.26.26,0,0,0-.268-.1l-4.142.889a.26.26,0,0,0-.168.394Z" transform="translate(-166.56 -128.939)" fill="#464a5f"/><path d="M546.992,465.442l1.258,2.038a.268.268,0,0,0,.285.117l4.293-.956a.26.26,0,0,0,.151-.411l-1.409-1.962a.26.26,0,0,0-.268-.109l-4.142.889a.26.26,0,0,0-.168.394Z" transform="translate(-166.487 -129.549)" fill="#464a5f"/><path d="M553.71,460.242l1.258,2.038a.268.268,0,0,0,.285.117l4.293-.956a.26.26,0,0,0,.151-.411l-1.409-1.971a.268.268,0,0,0-.268-.1l-4.142.872a.26.26,0,0,0-.168.411Z" transform="translate(-167.57 -128.71)" fill="#464a5f"/><path d="M572.048,456.25l1.778,1.9a.235.235,0,0,0,.2.059l3.832-.889a.21.21,0,0,0,.1-.361l-2-1.9a.226.226,0,0,0-.2-.05l-3.606.889a.21.21,0,0,0-.1.352Z" transform="translate(-170.529 -128.072)" fill="#464a5f"/><path d="M577.912,454.9l1.786,1.887a.2.2,0,0,0,.2.067l3.832-.889a.21.21,0,0,0,.117-.344l-2-1.9a.218.218,0,0,0-.2-.05l-3.606.889a.218.218,0,0,0-.126.335Z" transform="translate(-171.48 -127.857)" fill="#464a5f"/><path d="M572.17,459.91l1.786,1.9a.218.218,0,0,0,.2.059l3.832-.889a.21.21,0,0,0,.1-.361l-2.012-1.9a.2.2,0,0,0-.193-.05l-3.606.889a.218.218,0,0,0-.109.352Z" transform="translate(-170.55 -128.662)" fill="#464a5f"/><path d="M566.153,461.3l1.677,1.8a.26.26,0,0,0,.252.075l3.715-.839a.26.26,0,0,0,.117-.444l-1.92-1.811a.235.235,0,0,0-.243-.067l-3.488.839a.26.26,0,0,0-.109.444Z" transform="translate(-169.574 -128.88)" fill="#464a5f"/><path d="M570.726,468.1l1.677,1.811a.26.26,0,0,0,.252.075l3.715-.839a.268.268,0,0,0,.117-.453l-1.92-1.811a.252.252,0,0,0-.243-.059l-3.488.839a.268.268,0,0,0-.109.436Z" transform="translate(-170.314 -129.979)" fill="#464a5f"/><path d="M564.456,469.524l1.677,1.811a.276.276,0,0,0,.251.076l3.706-.839a.26.26,0,0,0,.126-.444l-1.92-1.811a.285.285,0,0,0-.243-.067l-3.5.839a.268.268,0,0,0-.1.436Z" transform="translate(-169.301 -130.21)" fill="#464a5f"/><path d="M558.071,471.092l1.677,1.811a.285.285,0,0,0,.252.075l3.715-.839a.261.261,0,0,0,.143-.5l-1.92-1.811a.252.252,0,0,0-.243-.067l-3.488.839a.26.26,0,0,0-.134.495Z" transform="translate(-168.258 -130.453)" fill="#464a5f"/><path d="M551.355,472.437l1.727,1.836a.243.243,0,0,0,.235.067l3.748-.839a.252.252,0,0,0,.117-.419l-1.954-1.845a.268.268,0,0,0-.226-.059l-3.53.839a.243.243,0,0,0-.117.419Z" transform="translate(-167.185 -130.683)" fill="#464a5f"/><path d="M564.392,465.58l1.677,1.811a.252.252,0,0,0,.252.075l3.706-.839a.268.268,0,0,0,.126-.453l-1.912-1.828a.26.26,0,0,0-.243-.059l-3.5.839a.26.26,0,0,0-.109.453Z" transform="translate(-169.288 -129.569)" fill="#464a5f"/><path d="M558.276,467l1.677,1.811a.277.277,0,0,0,.252.076l3.715-.839a.26.26,0,0,0,.117-.444l-1.92-1.811a.277.277,0,0,0-.243-.067l-3.488.839a.268.268,0,0,0-.109.436Z" transform="translate(-168.304 -129.803)" fill="#464a5f"/><path d="M551.724,468.393l1.677,1.8a.26.26,0,0,0,.252.084l3.706-.839a.26.26,0,0,0,.126-.444l-1.92-1.811a.243.243,0,0,0-.243-.067l-3.5.839a.26.26,0,0,0-.1.436Z" transform="translate(-167.245 -130.026)" fill="#464a5f"/><path d="M544.987,469.947l1.727,1.836a.26.26,0,0,0,.243.067l3.748-.839a.252.252,0,0,0,.109-.419l-1.945-1.836a.252.252,0,0,0-.226-.067l-3.53.839a.252.252,0,0,0-.126.419Z" transform="translate(-166.159 -130.281)" fill="#464a5f"/><path d="M570.7,464.1l1.677,1.811a.277.277,0,0,0,.252.076l3.706-.839a.26.26,0,0,0,.126-.444l-1.92-1.811a.285.285,0,0,0-.243-.067l-3.5.839a.268.268,0,0,0-.1.436Z" transform="translate(-170.309 -129.335)" fill="#464a5f"/><path d="M559.984,462.874l1.677,1.811a.252.252,0,0,0,.252.075l3.706-.839a.26.26,0,0,0,.117-.444l-1.912-1.811a.285.285,0,0,0-.243-.067l-3.5.839a.26.26,0,0,0-.1.436Z" transform="translate(-168.578 -129.136)" fill="#464a5f"/><path d="M583.576,453.477l1.87,1.987a.159.159,0,0,0,.151.042l3.958-.914a.159.159,0,0,0,.075-.268l-2.1-1.987a.168.168,0,0,0-.151,0l-3.723.922a.151.151,0,0,0-.076.218Z" transform="translate(-172.397 -127.638)" fill="#464a5f"/><path d="M589.272,452.212l1.87,1.987a.2.2,0,0,0,.151.042l3.958-.914a.159.159,0,0,0,.076-.268l-2.1-1.987a.151.151,0,0,0-.143-.042l-3.732.922a.159.159,0,0,0-.084.26Z" transform="translate(-173.314 -127.429)" fill="#464a5f"/><path d="M595.138,450.887l1.677,1.845a.159.159,0,0,0,.159,0l3.69-1.006a.159.159,0,0,0,.059-.268l-1.9-1.61a.168.168,0,0,0-.134,0l-3.5.771a.151.151,0,0,0-.05.268Z" transform="translate(-174.257 -127.237)" fill="#464a5f"/><path d="M601.289,452.953l1.677,1.845a.142.142,0,0,0,.151.042l3.69-1.006a.151.151,0,0,0,.059-.268L605,452a.151.151,0,0,0-.134,0l-3.488.771A.159.159,0,0,0,601.289,452.953Z" transform="translate(-175.26 -127.584)" fill="#464a5f"/><path d="M600.54,456.918l1.618,1.753a.235.235,0,0,0,.21.059l3.555-.973a.21.21,0,0,0,.084-.369l-1.8-1.518a.243.243,0,0,0-.184-.05l-3.354.746a.218.218,0,0,0-.126.352Z" transform="translate(-175.132 -128.203)" fill="#464a5f"/><path d="M595.535,462l1.618,1.753a.193.193,0,0,0,.21.059l3.589-.973a.21.21,0,0,0,.084-.361l-1.836-1.484a.21.21,0,0,0-.185-.042l-3.354.746a.21.21,0,0,0-.126.3Z" transform="translate(-174.327 -129.031)" fill="#464a5f"/><path d="M589.51,463.568l1.618,1.753a.235.235,0,0,0,.21.059l3.555-.973a.21.21,0,0,0,.084-.369l-1.8-1.518a.243.243,0,0,0-.184-.05l-3.354.746a.218.218,0,0,0-.126.352Z" transform="translate(-173.351 -129.277)" fill="#464a5f"/><path d="M601.2,460.509l1.618,1.753a.2.2,0,0,0,.21.059l3.564-.973a.21.21,0,0,0,.076-.361l-1.8-1.526a.21.21,0,0,0-.184-.042l-3.354.738a.218.218,0,0,0-.126.352Z" transform="translate(-175.238 -128.784)" fill="#464a5f"/><path d="M600.221,464.948l2.44,2.189a.2.2,0,0,0,.2.042l3.53-1a.21.21,0,0,0,.084-.361l-2.633-2.306a.193.193,0,0,0-.2,0l-3.354,1.115a.21.21,0,0,0-.067.319Z" transform="translate(-175.081 -129.441)" fill="#464a5f"/><path d="M589.995,455.806l1.677,1.845a.159.159,0,0,0,.151.05l3.69-1.006a.159.159,0,0,0,.059-.277l-1.9-1.6a.134.134,0,0,0-.134,0l-3.488.763a.159.159,0,0,0-.05.226Z" transform="translate(-173.433 -128.039)" fill="#464a5f"/><path d="M584.341,457.169l1.618,1.753a.218.218,0,0,0,.21.059l3.564-.973a.21.21,0,0,0,.076-.361l-1.8-1.526a.209.209,0,0,0-.184-.042l-3.354.738a.218.218,0,0,0-.126.352Z" transform="translate(-172.516 -128.244)" fill="#464a5f"/><path d="M583.179,461.207l1.618,1.744a.193.193,0,0,0,.21.059l3.555-.964a.218.218,0,0,0,.084-.369l-1.811-1.526a.21.21,0,0,0-.185-.042l-3.354.746a.21.21,0,0,0-.117.352Z" transform="translate(-172.327 -128.895)" fill="#464a5f"/><path d="M577.189,462.657l1.618,1.744a.193.193,0,0,0,.21.059l3.555-.964a.218.218,0,0,0,.084-.369l-1.811-1.526a.193.193,0,0,0-.176-.042l-3.354.746a.21.21,0,0,0-.126.352Z" transform="translate(-171.36 -129.129)" fill="#464a5f"/><path d="M578.259,458.528l1.618,1.744a.193.193,0,0,0,.21.059l3.555-.964a.218.218,0,0,0,.084-.369l-1.8-1.518a.243.243,0,0,0-.184-.05l-3.354.746a.21.21,0,0,0-.126.352Z" transform="translate(-171.533 -128.463)" fill="#464a5f"/><path d="M583.27,464.919l1.618,1.753a.193.193,0,0,0,.21.059l3.555-.964a.21.21,0,0,0,.084-.369l-1.8-1.526a.209.209,0,0,0-.184-.042l-3.354.746a.21.21,0,0,0-.126.344Z" transform="translate(-172.343 -129.496)" fill="#464a5f"/><path d="M577.389,466.509l1.535,1.677a.277.277,0,0,0,.26.075l3.43-.939a.26.26,0,0,0,.1-.453l-1.677-1.442a.243.243,0,0,0-.226-.059l-3.253.721a.26.26,0,0,0-.168.419Z" transform="translate(-171.393 -129.744)" fill="#464a5f"/><path d="M595.835,454.326l1.677,1.845a.168.168,0,0,0,.159.05l3.69-1.006a.159.159,0,0,0,.059-.277l-1.9-1.6a.134.134,0,0,0-.134,0l-3.488.771a.151.151,0,0,0-.059.218Z" transform="translate(-174.376 -127.8)" fill="#464a5f"/><path d="M594.988,458.269l1.618,1.753a.193.193,0,0,0,.21.059l3.555-.964a.218.218,0,0,0,.084-.369l-1.811-1.526a.21.21,0,0,0-.184-.042l-3.354.746a.2.2,0,0,0-.117.344Z" transform="translate(-174.233 -128.422)" fill="#464a5f"/><path d="M589.26,459.849l1.618,1.753a.21.21,0,0,0,.21.059l3.555-.973a.21.21,0,0,0,.084-.361l-1.811-1.526a.193.193,0,0,0-.176-.042l-3.354.738a.218.218,0,0,0-.126.352Z" transform="translate(-173.31 -128.677)" fill="#464a5f"/><path d="M566.054,457.534l1.786,1.862a.2.2,0,0,0,.2.059l3.832-.88a.21.21,0,0,0,.092-.361l-2-1.9a.226.226,0,0,0-.2-.059l-3.606.9a.21.21,0,0,0-.1.377Z" transform="translate(-169.558 -128.274)" fill="#464a5f"/><path d="M559.984,459.031l1.677,1.8a.243.243,0,0,0,.252.076l3.715-.839a.26.26,0,0,0,.117-.444l-1.92-1.811a.235.235,0,0,0-.243-.067l-3.488.839a.26.26,0,0,0-.109.444Z" transform="translate(-168.577 -128.513)" fill="#464a5f"/><path d="M553.421,464.092l1.266,2.038a.268.268,0,0,0,.285.117l4.285-.956a.268.268,0,0,0,.159-.411l-1.409-1.971a.26.26,0,0,0-.268-.1l-4.193.889a.26.26,0,0,0-.126.394Z" transform="translate(-167.524 -129.331)" fill="#464a5f"/><path d="M519.885,465.05l4.235-.981a.26.26,0,0,1,.252.092l.746.981a.243.243,0,0,1-.143.386l-4.385,1a.243.243,0,0,1-.268-.117l-.6-1.015a.251.251,0,0,1,.159-.344Z" transform="translate(-162.088 -129.535)" fill="#464a5f"/><path d="M526.825,463.54l4.193-.981a.26.26,0,0,1,.252.092l.746.981a.243.243,0,0,1-.143.386l-4.385,1.023a.243.243,0,0,1-.268-.117l-.6-1.023a.243.243,0,0,1,.2-.36Z" transform="translate(-163.2 -129.291)" fill="#464a5f"/><path d="M533.535,462.1l4.193-.981a.243.243,0,0,1,.252.092l.746.973a.252.252,0,0,1-.142.394L534.2,463.6a.252.252,0,0,1-.268-.117l-.6-1.023a.243.243,0,0,1,.2-.361Z" transform="translate(-164.283 -129.058)" fill="#464a5f"/><path d="M540.08,460.61l4.193-.981a.243.243,0,0,1,.252.092l.746.981a.252.252,0,0,1-.143.386l-4.3,1.023a.243.243,0,0,1-.268-.117l-.6-1.023a.243.243,0,0,1,.117-.361Z" transform="translate(-165.352 -128.818)" fill="#464a5f"/><path d="M546.729,459.142l4.193-.973a.277.277,0,0,1,.268.092l.721.956a.26.26,0,0,1-.151.411l-4.352,1.015a.268.268,0,0,1-.285-.126l-.579-.989a.268.268,0,0,1,.184-.386Z" transform="translate(-166.417 -128.582)" fill="#464a5f"/><path d="M553.189,457.811l4.193-.973a.26.26,0,0,1,.268.1l.721.948a.26.26,0,0,1-.151.411l-4.352,1.015a.268.268,0,0,1-.285-.126l-.57-.989a.26.26,0,0,1,.176-.386Z" transform="translate(-167.46 -128.367)" fill="#464a5f"/><path d="M559.5,456.486l3.882-.948a.268.268,0,0,1,.252.075l.755.8a.252.252,0,0,1-.126.428l-3.841.964a.243.243,0,0,1-.243-.067l-.839-.839a.26.26,0,0,1,.159-.411Z" transform="translate(-168.479 -128.157)" fill="#464a5f"/><path d="M565.655,455.062l4-.973a.227.227,0,0,1,.2.059l.839.839a.21.21,0,0,1-.1.352l-3.949.99a.2.2,0,0,1-.2-.059l-.88-.9a.21.21,0,0,1,.092-.31Z" transform="translate(-169.486 -127.923)" fill="#464a5f"/><path d="M571.773,453.622l4-.973a.218.218,0,0,1,.2.059l.839.839a.218.218,0,0,1-.1.352l-3.933,1.031a.2.2,0,0,1-.2-.059l-.88-.9a.21.21,0,0,1,.076-.352Z" transform="translate(-170.472 -127.691)" fill="#464a5f"/><path d="M577.886,452.371l4-.973a.2.2,0,0,1,.2.059l.839.839a.218.218,0,0,1-.1.352l-3.949,1a.243.243,0,0,1-.21-.059l-.88-.847a.21.21,0,0,1,.1-.369Z" transform="translate(-171.453 -127.489)" fill="#464a5f"/><path d="M583.693,450.972l4.126-1.006a.151.151,0,0,1,.151,0l.914.973a.159.159,0,0,1-.076.26l-4.042,1.065a.193.193,0,0,1-.151,0l-.973-.989a.159.159,0,0,1,.05-.3Z" transform="translate(-172.397 -127.255)" fill="#464a5f"/><path d="M589.561,449.714l4.126-1a.151.151,0,0,1,.151,0l.922.964a.151.151,0,0,1-.076.26l-4.075,1.023a.151.151,0,0,1-.151-.042l-.973-.981a.159.159,0,0,1,.076-.226Z" transform="translate(-173.351 -127.053)" fill="#464a5f"/><path d="M595.4,448.407l3.807-.839a.142.142,0,0,1,.159.05l.738.906a.159.159,0,0,1-.084.252l-3.581.948a.193.193,0,0,1-.151-.042l-.973-.989a.151.151,0,0,1,.084-.285Z" transform="translate(-174.282 -126.87)" fill="#464a5f"/><path d="M600.971,447.128l3.815-.839a.168.168,0,0,1,.159.05l.738.906a.159.159,0,0,1-.084.252l-3.581.948a.143.143,0,0,1-.151-.042l-.973-.981a.159.159,0,0,1,.075-.293Z" transform="translate(-175.185 -126.664)" fill="#464a5f"/><path d="M523.456,470.855l1.409,2a.243.243,0,0,0,.26.1l7.337-1.677a.243.243,0,0,0,.134-.386l-1.551-2.046a.243.243,0,0,0-.26-.092l-7.178,1.761a.252.252,0,0,0-.151.335Z" transform="translate(-162.69 -130.291)" fill="#464a5f"/><path d="M526.1,474l1.409,2.239a.243.243,0,0,0,.26.109l8.863-2.113a.243.243,0,0,0,.134-.394l-1.753-2.172a.26.26,0,0,0-.252-.084l-8.511,2.021a.243.243,0,0,0-.151.394Z" transform="translate(-163.111 -130.749)" fill="#464a5f"/><path d="M528.488,477.366l1.677,2.423a.243.243,0,0,0,.26.092l11.74-2.9a.243.243,0,0,0,.143-.386l-1.9-2.432a.243.243,0,0,0-.252-.084l-11.605,2.9a.252.252,0,0,0-.067.386Z" transform="translate(-163.496 -131.15)" fill="#464a5f"/><path d="M560.538,473.508l2.147,2.583a.268.268,0,0,0,.268.084l25.827-6.44a.26.26,0,0,0,.117-.444l-2.633-2.616a.277.277,0,0,0-.252-.075l-25.341,6.482a.268.268,0,0,0-.134.428Z" transform="translate(-168.671 -129.943)" fill="#464a5f"/><path d="M592.331,466.517l2.516,2.516a.218.218,0,0,0,.21.05l5.291-1.417a.21.21,0,0,0,.092-.352l-2.625-2.566a.2.2,0,0,0-.2-.059l-5.2,1.442a.21.21,0,0,0-.084.386Z" transform="translate(-173.798 -129.634)" fill="#464a5f"/><path d="M607.577,464.719l1.149,1.216a.151.151,0,0,0,.151,0l3.924-1.048a.159.159,0,0,0,.067-.268l-1.4-1.308a.143.143,0,0,0-.151-.042l-3.673,1.149a.155.155,0,0,0-.067.3Z" transform="translate(-176.256 -129.405)" fill="#464a5f"/><path d="M611.566,461.6l1.375,1.442a.142.142,0,0,0,.159,0l3.6-1.241a.159.159,0,0,0,.059-.268l-1.342-1.208a.168.168,0,0,0-.151-.042l-3.631,1.023a.159.159,0,0,0-.067.294Z" transform="translate(-176.908 -128.923)" fill="#464a5f"/><path d="M614.538,464.37l-.99-.8a.159.159,0,0,1,.05-.277l3.581-1.241a.168.168,0,0,1,.168,0l1.115,1.09a.151.151,0,0,1-.067.26l-3.723.964A.167.167,0,0,1,614.538,464.37Z" transform="translate(-177.23 -129.207)" fill="#464a5f"/><path d="M619.111,461.91c.31.3.839.889,1.065,1.09a.142.142,0,0,0,.151,0l3.732-1.015a.151.151,0,0,0,.067-.26l-1.325-1.2a.168.168,0,0,0-.151,0l-3.472,1.115a.159.159,0,0,0-.067.268Z" transform="translate(-178.13 -128.961)" fill="#464a5f"/><path d="M606.619,458.829l2,1.929a.143.143,0,0,0,.143,0l9.635-2.516a.159.159,0,0,0,.059-.277l-2.34-1.929a.151.151,0,0,0-.143,0l-9.291,2.516a.159.159,0,0,0-.067.277Z" transform="translate(-176.112 -128.236)" fill="#464a5f"/><path d="M605.845,455.413l2.063,1.836a.151.151,0,0,0,.143,0l7.245-1.677a.159.159,0,0,0,.067-.277l-2.373-1.979a.151.151,0,0,0-.142,0l-6.935,1.862a.159.159,0,0,0-.067.235Z" transform="translate(-175.992 -127.797)" fill="#464a5f"/><path d="M606.634,451.792l1.954,1.744a.184.184,0,0,0,.142.042l3.715-.839a.159.159,0,0,0,.075-.268l-2.314-2a.143.143,0,0,0-.151,0l-3.354,1.082a.151.151,0,0,0-.067.235Z" transform="translate(-176.118 -127.337)" fill="#464a5f"/><path d="M600.543,449.635l1.9,1.677a.143.143,0,0,0,.143,0l5.87-1.392a.159.159,0,0,0,.067-.277l-2.256-1.887a.143.143,0,0,0-.143,0l-5.534,1.56a.161.161,0,0,0-.042.319Z" transform="translate(-175.118 -126.899)" fill="#464a5f"/><path d="M533.146,339.789a166.715,166.715,0,0,0-10.171,13.417,42.452,42.452,0,0,1-4.117,5.492c-2.172,2.289-4.889,4.008-7.111,6.256a41.7,41.7,0,0,0-6.2,9.048,66.292,66.292,0,0,0-3.354,6.566,33.2,33.2,0,0,0-1.467,21.274c.679,2.516,2.038,5.35,4.6,5.945,2.012.47,4.025-.6,5.786-1.677,1.9-1.149,3.841-2.407,4.956-4.327a13.961,13.961,0,0,0,1.442-5.291l2.205-16.142a18.642,18.642,0,0,1,1.166-5.031c1.266-2.885,3.9-4.939,6.658-6.457s5.736-2.65,8.385-4.377c2.465-1.61,4.587-3.706,7.052-5.316,3.027-1.987,6.541-3.22,9.3-5.56s4.629-6.4,2.935-9.593a11.2,11.2,0,0,0-3.027-3.195l-5.392-4.344c-1.149-.922-3.522-3.715-4.972-3.9s-3.648,2.012-4.62,2.876a40.815,40.815,0,0,0-4.058,4.335Z" transform="translate(-158.846 -108.303)" fill="#fbbebe"/><path d="M514.628,311.4a17.773,17.773,0,0,1,3.354.839c1.1.444,2.1,1.115,3.212,1.534a38.5,38.5,0,0,0,4.369,1.04,5.87,5.87,0,0,1,3.7,2.348,11.152,11.152,0,0,0-6.163,3.983,18.639,18.639,0,0,0-2.574,5.09,57.23,57.23,0,0,0-3.354,16.838,3.451,3.451,0,0,0,.755,2.826c-3.732-3.027-9.006-2.935-13.8-2.717a3.438,3.438,0,0,1-1.342-.109,3,3,0,0,1-1.182-.973,11.74,11.74,0,0,1-2.516-5.635c-.453-2.96.235-5.962.839-8.9a45.847,45.847,0,0,0,1.09-8.612c.042-2.952-.889-5.333-1.375-8.142-.6-3.4,3.195-1.727,5.224-1.333Z" transform="translate(-158.734 -104.454)" fill="#ea580c"/></g></svg>