<svg xmlns="http://www.w3.org/2000/svg" width="808.021" height="614.073" viewBox="0 0 808.021 614.073"><g transform="translate(-1.177 0)"><path d="M970.888,521.7h-498.7a7.984,7.984,0,0,0,0,15.968h14.126v191a7.984,7.984,0,1,0,15.968,0l.121-191H939.566v191a7.984,7.984,0,0,0,15.968,0V541.881l2.323-4.21h13.031a7.984,7.984,0,0,0,0-15.968Z" transform="translate(-206.005 -122.623)" fill="#ccc"/><path d="M725.924,544.666H574.863a11.045,11.045,0,0,1-11.033-11.033V450.465a11.045,11.045,0,0,1,11.033-11.033H725.924a11.045,11.045,0,0,1,11.033,11.033v83.169a11.045,11.045,0,0,1-11.033,11.033Z" transform="translate(-183.258 -145.408)" fill="#3f3d56"/><path d="M724.345,446.345H573.286a2.548,2.548,0,0,0-2.542,2.543v83.17a2.548,2.548,0,0,0,2.542,2.543h151.06a2.548,2.548,0,0,0,2.542-2.543v-83.17A2.548,2.548,0,0,0,724.345,446.345Z" transform="translate(-181.68 -143.829)" fill="#fff"/><path d="M650.472,494.494s-18.084-4.167-28.03,3.472,12.659,25,12.659,25Z" transform="translate(-170.453 -133.095)" fill="#2f2e41"/><circle cx="17.058" cy="17.058" r="17.058" transform="translate(450.963 319.41)" fill="#a0616a"/><path d="M626.06,455.6a12.158,12.158,0,0,1,11.21-5.964,23.828,23.828,0,0,1,6.775,1.9l11.151,4.35c2.885,1.126,6.046,2.5,7.3,5.337,1.162,2.629.3,5.666-.583,8.4l-4.172,13.012a39.6,39.6,0,0,0-2.364-8.6,13.308,13.308,0,0,0-5.779-6.589c-2.9-1.486-6.31-1.455-9.562-1.3-4.605.222-9.612.807-12.884,4.056a13.383,13.383,0,0,0-3.4,6.632,39.914,39.914,0,0,0-.712,7.507,62.245,62.245,0,0,1-4.753-10.189,25.208,25.208,0,0,1-1.766-8.248,11.6,11.6,0,0,1,2.659-7.845,7.61,7.61,0,0,1,7.653-2.409Z" transform="translate(-171.229 -143.082)" fill="#2f2e41"/><path d="M682.967,509.477a3.036,3.036,0,0,0-2.542-2.2,1.051,1.051,0,0,0-.123-.074l-25.465-14.271a3.239,3.239,0,0,0-4.334,1.116l-6.965,11.276-10.49-10.49-.167-.167a3.239,3.239,0,0,0-4.148-.363l-20.928,14.655c-.037,0-.074.012-.11.012a4.462,4.462,0,0,0-3.722,4.164l-.54,10.92h83.575Z" transform="translate(-174.216 -133.287)" fill="#9333ea"/><path d="M739.916,517.129H723.792a1.7,1.7,0,0,0-1.7-1.7H717a1.7,1.7,0,0,0-1.7,1.7h-5.092a1.7,1.7,0,0,0-1.7-1.7h-5.092a1.7,1.7,0,0,0-1.7,1.7h-5.092a1.7,1.7,0,0,0-1.7-1.7h-5.092a1.7,1.7,0,0,0-1.7,1.7h-5.092a1.7,1.7,0,0,0-1.7-1.7h-5.092a1.7,1.7,0,0,0-1.7,1.7h-5.092a1.7,1.7,0,0,0-1.7-1.7h-5.092a1.7,1.7,0,0,0-1.7,1.7H655.9a1.7,1.7,0,0,0-1.7-1.7H649.11a1.7,1.7,0,0,0-1.7,1.7H642.32a1.7,1.7,0,0,0-1.7-1.7h-5.092a1.7,1.7,0,0,0-1.7,1.7h-5.092a1.7,1.7,0,0,0-1.7-1.7h-5.092a1.7,1.7,0,0,0-1.7,1.7h-5.092a1.7,1.7,0,0,0-1.7-1.7h-5.092a1.7,1.7,0,0,0-1.7,1.7h-5.092a1.7,1.7,0,0,0-1.7-1.7H594.8a1.7,1.7,0,0,0-1.7,1.7h-5.092a1.7,1.7,0,0,0-1.7-1.7h-5.092a1.7,1.7,0,0,0-1.7,1.7H563.4a5.092,5.092,0,1,0,0,10.184H739.916a5.092,5.092,0,0,0,0-10.184Z" transform="translate(-184.52 -128.055)" fill="#3f3d56"/><path d="M560.078,492.742v33.81H475.37a16.915,16.915,0,1,1,0-33.81Z" transform="translate(-207.452 -128.238)" fill="#f2f2f2"/><path d="M562.5,526.435a1.3,1.3,0,0,1-1.3,1.3h-87a17.816,17.816,0,1,1,0-35.631h87a1.3,1.3,0,0,1,0,2.6h-87a15.215,15.215,0,1,0,0,30.429h87A1.3,1.3,0,0,1,562.5,526.435Z" transform="translate(-207.791 -128.381)" fill="#9333ea"/><path d="M558.048,499.189H467.02a.26.26,0,1,1,0-.52h91.028a.26.26,0,1,1,0,.52Z" transform="translate(-205.422 -126.883)" fill="#ccc"/><path d="M558.048,504.27H467.02a.26.26,0,1,1,0-.52h91.028a.26.26,0,1,1,0,.52Z" transform="translate(-205.422 -125.722)" fill="#ccc"/><path d="M558.048,509.352H467.02a.26.26,0,1,1,0-.52h91.028a.26.26,0,1,1,0,.52Z" transform="translate(-205.422 -124.562)" fill="#ccc"/><path d="M558.048,514.434H467.02a.26.26,0,1,1,0-.52h91.028a.26.26,0,1,1,0,.52Z" transform="translate(-205.422 -123.402)" fill="#ccc"/><path d="M547.078,463.742v33.81H462.37a16.915,16.915,0,1,1,0-33.81Z" transform="translate(-210.421 -134.86)" fill="#f2f2f2"/><path d="M549.5,497.435a1.3,1.3,0,0,1-1.3,1.3h-87a17.815,17.815,0,1,1,0-35.631h87a1.3,1.3,0,0,1,0,2.6h-87a15.215,15.215,0,1,0,0,30.429h87A1.3,1.3,0,0,1,549.5,497.435Z" transform="translate(-210.759 -135.003)" fill="#3f3d56"/><path d="M545.048,470.189H454.02a.26.26,0,1,1,0-.52h91.028a.26.26,0,1,1,0,.52Z" transform="translate(-208.39 -133.504)" fill="#ccc"/><path d="M545.048,475.27H454.02a.26.26,0,0,1,0-.52h91.028a.26.26,0,0,1,0,.52Z" transform="translate(-208.39 -132.344)" fill="#ccc"/><path d="M545.048,480.352H454.02a.26.26,0,1,1,0-.52h91.028a.26.26,0,1,1,0,.52Z" transform="translate(-208.39 -131.183)" fill="#ccc"/><path d="M545.048,485.434H454.02a.26.26,0,1,1,0-.52h91.028a.26.26,0,0,1,0,.52Z" transform="translate(-208.39 -130.023)" fill="#ccc"/><path d="M630.907,624.5v-29.48a4.913,4.913,0,0,0-4.913-4.913H514.216a4.913,4.913,0,0,0-4.913,4.913V624.5Z" transform="translate(-195.708 -105.006)" fill="#ccc"/><rect width="121.604" height="38.078" transform="translate(313.595 530.547)" fill="#ccc"/><path d="M509.3,667.1v29.48a4.913,4.913,0,0,0,4.913,4.913H625.994a4.913,4.913,0,0,0,4.913-4.913V667.1Z" transform="translate(-195.708 -87.425)" fill="#ccc"/><circle cx="3.685" cy="3.685" r="3.685" transform="translate(370.098 493.839)" fill="#fff"/><circle cx="3.685" cy="3.685" r="3.685" transform="translate(370.098 542.972)" fill="#fff"/><circle cx="3.685" cy="3.685" r="3.685" transform="translate(370.295 591.065)" fill="#fff"/><path d="M616.078,562.742v33.81H531.37a16.915,16.915,0,1,1,0-33.81Z" transform="translate(-194.666 -112.256)" fill="#f2f2f2"/><path d="M618.5,596.435a1.3,1.3,0,0,1-1.3,1.3h-87a17.816,17.816,0,1,1,0-35.631h87a1.3,1.3,0,0,1,0,2.6h-87a15.215,15.215,0,1,0,0,30.429h87A1.3,1.3,0,0,1,618.5,596.435Z" transform="translate(-195.005 -112.399)" fill="#3f3d56"/><path d="M614.048,569.189H523.02a.26.26,0,0,1,0-.52h91.028a.26.26,0,0,1,0,.52Z" transform="translate(-192.636 -110.9)" fill="#ccc"/><path d="M614.048,574.27H523.02a.26.26,0,0,1,0-.52h91.028a.26.26,0,0,1,0,.52Z" transform="translate(-192.636 -109.74)" fill="#ccc"/><path d="M614.048,579.352H523.02a.26.26,0,1,1,0-.52h91.028a.26.26,0,1,1,0,.52Z" transform="translate(-192.636 -108.579)" fill="#ccc"/><path d="M614.048,584.434H523.02a.26.26,0,0,1,0-.52h91.028a.26.26,0,0,1,0,.52Z" transform="translate(-192.636 -107.419)" fill="#ccc"/><path d="M504.11,424.871V209.3a9.249,9.249,0,0,1,9.239-9.239h170.4a9.249,9.249,0,0,1,9.239,9.239V424.871a9.249,9.249,0,0,1-9.239,9.239h-170.4A9.249,9.249,0,0,1,504.11,424.871Zm9.239-222.757a7.194,7.194,0,0,0-7.186,7.186V424.871a7.194,7.194,0,0,0,7.186,7.186h170.4a7.194,7.194,0,0,0,7.186-7.186V209.3a7.194,7.194,0,0,0-7.186-7.186Z" transform="translate(-196.894 -200.062)" fill="#e5e7eb"/><path d="M588.776,289.746V245.482a4.624,4.624,0,0,1,4.619-4.619H630.9a4.625,4.625,0,0,1,4.619,4.619v44.263a4.624,4.624,0,0,1-4.619,4.619H593.395A4.624,4.624,0,0,1,588.776,289.746Z" transform="translate(-177.563 -190.746)" fill="#9333ea"/><path d="M529.44,306.46V262.2a4.624,4.624,0,0,1,4.619-4.619h37.509a4.624,4.624,0,0,1,4.619,4.619V306.46a4.624,4.624,0,0,1-4.619,4.619H534.059a4.624,4.624,0,0,1-4.619-4.619Z" transform="translate(-191.111 -186.929)" fill="#ccc"/><path d="M577.076,357.439V313.175a4.625,4.625,0,0,1,4.62-4.619H619.2a4.625,4.625,0,0,1,4.62,4.619v44.263a4.624,4.624,0,0,1-4.619,4.619H581.695a4.624,4.624,0,0,1-4.619-4.619Z" transform="translate(-180.234 -175.29)" fill="#dc2626"/><path d="M768.945,513.105H730.351a2.386,2.386,0,0,0-1.056.246l-9.741,4.876a1.775,1.775,0,0,0,0,3.267l9.741,4.876a2.385,2.385,0,0,0,1.056.246h38.594a2.026,2.026,0,0,0,2.138-1.879v-9.753a2.025,2.025,0,0,0-2.138-1.879Z" transform="translate(-147.95 -127.587)" fill="#3f3d56"/><path d="M763.13,514.985v9.753a2.026,2.026,0,0,1-2.138,1.879H753.3V513.105h7.689a2.025,2.025,0,0,1,2.138,1.879Z" transform="translate(-139.997 -127.587)" fill="#9333ea"/><path d="M760.843,453.91a13.515,13.515,0,0,1,18.29,8.493,13.01,13.01,0,0,1,.393,1.763l53.97,26.763,12.49-8.277,15.54,17.891-19.071,15.489a13.694,13.694,0,0,1-16.338.63L771.36,478.795a12.909,12.909,0,0,1-1.247.455A13.515,13.515,0,0,1,752.9,468.734a13.148,13.148,0,0,1-.2-1.645A13.556,13.556,0,0,1,760.843,453.91Z" transform="translate(-140.139 -142.355)" fill="#ffb8b8"/><path d="M874.244,587.853H815.273c0,1.7-60.777,3.071-60.777,3.071a15.793,15.793,0,0,0-2.592,2.457,15.243,15.243,0,0,0-3.562,9.827v2.457A15.36,15.36,0,0,0,763.7,621.018H874.244A15.367,15.367,0,0,0,889.6,605.664v-2.457a15.375,15.375,0,0,0-15.354-15.354Z" transform="translate(-141.13 -111.52)" fill="#3f3d56"/><rect width="15.968" height="103.179" transform="translate(684.935 612.068) rotate(180)" fill="#3f3d56"/><path d="M761.617,700.764c0,1.725,24.2.667,54.046.667s54.046,1.058,54.046-.667-24.2-15.407-54.046-15.407S761.617,699.039,761.617,700.764Z" transform="translate(-138.099 -89.257)" fill="#3f3d56"/><path d="M523.484,495.253H508.426L501.261,456.2h22.225Z" transform="translate(114.45 104.16)" fill="#ffb8b8"/><path d="M785.506,703.566l-48.556,0v-.614a18.9,18.9,0,0,1,18.9-18.9h29.657Z" transform="translate(-143.731 -89.555)" fill="#2f2e41"/><path d="M760.989,694.161,730.968,626.84A24.672,24.672,0,0,1,741.8,595.168l65.118-34.918,29.715-2.527,27.41-2.491.2.335c.253.427,6.146,10.606,2.162,21.768-3.022,8.466-10.882,15.079-23.361,19.656-29.129,10.681-62.779,19.809-75.894,23.237a4.239,4.239,0,0,0-2.716,2.162,4.3,4.3,0,0,0-.241,3.438l27.891,62.662a5.527,5.527,0,0,1-4.679,7.406l-20.84,1.517q-.265.025-.528.025a5.523,5.523,0,0,1-5.044-3.276Z" transform="translate(-145.578 -118.968)" fill="#2f2e41"/><path d="M529.484,495.253H514.426L507.261,456.2h22.225Z" transform="translate(115.82 104.16)" fill="#ffb8b8"/><path d="M791.506,703.566l-48.556,0v-.614a18.9,18.9,0,0,1,18.9-18.9h29.657Z" transform="translate(-142.361 -89.555)" fill="#2f2e41"/><path d="M767.989,697.161,737.968,629.84A24.672,24.672,0,0,1,748.8,598.169l65.118-34.919,29.715-2.527,27.41-2.491.2.335c.253.427,6.146,10.606,2.162,21.768-3.022,8.466-10.882,15.079-23.361,19.656-29.129,10.681-62.779,19.809-75.894,23.237a4.239,4.239,0,0,0-2.716,2.162,4.3,4.3,0,0,0-.241,3.438l27.891,62.662a5.527,5.527,0,0,1-4.679,7.406l-20.84,1.517q-.265.025-.528.025a5.524,5.524,0,0,1-5.044-3.276Z" transform="translate(-143.98 -118.283)" fill="#2f2e41"/><path d="M755.384,519.764a205.748,205.748,0,0,1-29.572-55.191,5.285,5.285,0,0,1,2.5-6.362l43.17-23.131a5.217,5.217,0,0,1,4.576-.186,5.305,5.305,0,0,1,3.023,3.542,125.694,125.694,0,0,0,27.571,51.455,5.3,5.3,0,0,1,1.275,4.479,5.216,5.216,0,0,1-2.689,3.707l-43.17,23.131A5.285,5.285,0,0,1,755.384,519.764Z" transform="translate(-146.339 -146.544)" fill="#ccc"/><path d="M757.646,516.865a1.6,1.6,0,0,0,1.992.411l43.17-23.132a1.531,1.531,0,0,0,.8-1.1,1.62,1.62,0,0,0-.4-1.385,129.392,129.392,0,0,1-28.383-52.971,1.62,1.62,0,0,0-.931-1.1,1.531,1.531,0,0,0-1.364.056l-43.169,23.131a1.6,1.6,0,0,0-.761,1.888,202.067,202.067,0,0,0,29.043,54.2Z" transform="translate(-145.654 -145.86)" fill="#fff"/><path d="M874.563,504.17l-33.809,12.848L832.5,494.089a13.718,13.718,0,0,1,6.144-16.582h0a13.718,13.718,0,0,1,17.519,3.42Z" transform="translate(-122.101 -137.122)" fill="#9333ea"/><path d="M797.413,595.124a6.14,6.14,0,0,1-2.559-4.359c-4.33-40.424-1.314-72.058,9.22-96.712a30.7,30.7,0,0,1,20.349-17.417l27.33-1.38.142.068a31.943,31.943,0,0,1,17.466,33.887c-8.79,23.17-16.151,47.294-10.537,66.755a6.292,6.292,0,0,1-.594,4.893A6,6,0,0,1,854.4,583.7l-52.055,12.383a6.1,6.1,0,0,1-4.934-.955Z" transform="translate(-130.946 -137.228)" fill="#9333ea"/><circle cx="30.169" cy="30.169" r="30.169" transform="translate(681.517 267.482)" fill="#ffb8b8"/><path d="M770.683,463.394l-23.512,10.379a3.689,3.689,0,0,1-4.859-1.883l-.582-1.317a3.689,3.689,0,0,1,1.883-4.859l23.512-10.379a3.689,3.689,0,0,1,4.859,1.883l.582,1.317A3.689,3.689,0,0,1,770.683,463.394Z" transform="translate(-142.711 -141.848)" fill="#ccc"/><path d="M777.683,476.394l-23.512,10.379a3.689,3.689,0,0,1-4.859-1.883l-.582-1.317a3.689,3.689,0,0,1,1.883-4.859l23.512-10.379a3.689,3.689,0,0,1,4.859,1.883l.582,1.317a3.689,3.689,0,0,1-1.883,4.859Z" transform="translate(-141.113 -138.88)" fill="#ccc"/><path d="M800.072,538.189l-52.418-41.353a12.935,12.935,0,0,1-1.273.375,13.545,13.545,0,0,1-10.831-2.078,13.4,13.4,0,0,1-5.683-9.5,13.513,13.513,0,0,1,26.575-4.669,13,13,0,0,1,.281,1.784l52.181,30.1,12.986-7.476,14.385,18.833-20.162,14.37a13.44,13.44,0,0,1-16.041-.391Z" transform="translate(-145.369 -138.304)" fill="#ffb8b8"/><path d="M827.245,527.569l-29.908-20.338,14.056-19.907a13.718,13.718,0,0,1,17.109-4.471h0a13.718,13.718,0,0,1,7.24,16.315Z" transform="translate(-129.943 -135.799)" fill="#9333ea"/><path d="M830.243,445.646c-7.754,5.307-17.935,10.762-25.855,5.111-5.2-3.711-6.839-10.583-4.73-16.613,3.792-10.844,14.211-15.618,24.174-19.278,12.952-4.757,27.055-8.542,40.426-5.135s25.188,16.353,22.774,29.938c-1.941,10.925-12.246,20.015-10.783,31.015,1.472,11.07,13.922,16.9,24.912,18.875s23.29,2.614,31.188,10.509c10.076,10.071,7.56,28.071-1.921,38.7s-23.789,15.453-37.653,18.729c-18.369,4.341-38.237,6.623-55.682-.582s-31.022-26.6-25.968-44.784c2.135-7.682,7.164-14.174,12.023-20.494s9.781-12.929,11.635-20.684c1.545-6.462.4-13.964-3.884-18.812a5.45,5.45,0,0,1-.73-6.371Z" transform="translate(-129.618 -152.488)" fill="#2f2e41"/><path d="M378.693,581.567a47.982,47.982,0,0,1-46.334-8.162c-16.229-13.621-21.317-36.062-25.457-56.841L294.657,455.1l25.637,17.653c18.437,12.695,37.289,25.8,50.054,44.184s18.338,43.489,8.081,63.385" transform="translate(-244.717 -134.829)" fill="#e5e7eb"/><path d="M368.114,641.463c2.595-18.9,5.263-38.044,3.443-57.148-1.616-16.966-6.792-33.537-17.33-47.124a78.393,78.393,0,0,0-20.112-18.225c-2.011-1.269-3.862,1.918-1.86,3.182a74.524,74.524,0,0,1,29.478,35.568c6.418,16.324,7.448,34.118,6.342,51.459-.669,10.486-2.086,20.9-3.515,31.309a1.909,1.909,0,0,0,1.287,2.266,1.854,1.854,0,0,0,2.266-1.287Z" transform="translate(-236.329 -120.315)" fill="#f2f2f2"/><path d="M360.573,598.518A35.321,35.321,0,0,1,329.8,614.4c-15.579-.739-28.567-11.613-40.258-21.935l-34.581-30.533,22.887-1.1c16.459-.788,33.343-1.522,49.019,3.553s30.135,17.291,33,33.518" transform="translate(-253.781 -110.816)" fill="#e5e7eb"/><path d="M381.5,638.085c-12.489-22.1-26.976-46.659-52.861-54.509a58.984,58.984,0,0,0-22.234-2.3c-2.361.2-1.771,3.842.585,3.639a54.8,54.8,0,0,1,35.482,9.387c10,6.81,17.794,16.277,24.387,26.317,4.039,6.15,7.656,12.56,11.274,18.962,1.156,2.046,4.536.569,3.366-1.5Z" transform="translate(-242.379 -106.072)" fill="#f2f2f2"/><path d="M394.4,652.96a26.745,26.745,0,0,0-16.389-22.4V617.783H356.579v13.178a26.731,26.731,0,0,0-15.5,22l-5.039,58.571h63.391Z" transform="translate(-235.267 -97.686)" fill="#f2f2f2"/></g></svg>