<svg xmlns="http://www.w3.org/2000/svg" width="745.059" height="598.186" viewBox="0 0 745.059 598.186"><g transform="translate(-68.43)"><circle cx="46.29" cy="46.29" r="46.29" transform="translate(387.822 505.165)" fill="#0284c7"/><path d="M887.534,747.217c25.9-7.777,53.429-15.887,73.966-34.376,18.353-16.522,30.743-41.751,23.14-66.528-7.588-24.727-30.314-41.214-53.779-49.415-13.308-4.651-27.231-7.231-41.149-9.258-15.13-2.2-30.326-4.009-45.515-5.746Q751.942,571.342,658.993,569c-30.576-.77-61.147-.752-91.727-.308-27.31.4-56.073.387-81.409-11.221-19.7-9.026-37.583-25.448-43.073-47.028-6.337-24.911,5.352-50.279,22.118-68.32,8.838-9.51,19.167-17.514,29.823-24.873,11.56-7.984,23.523-15.4,35.745-22.328a497.751,497.751,0,0,1,75.238-34.686c12.826-4.664,25.842-8.687,38.971-12.4,11.086-3.134,22.207-6.273,32.922-10.544,20.713-8.255,40.414-22.239,45.681-45.164,4.992-21.728-3.425-45.315-18.179-61.456-17.07-18.674-42.808-26.86-67.483-28.185-27.7-1.487-54.766,5.446-80.8,14.245-27.771,9.385-54.943,20.176-83.3,27.777a560.472,560.472,0,0,1-85.733,15.936c-14.171,1.509-28.77,3.213-43.026,2.058-11.947-.968-23.834-4.482-32.639-12.961-7.55-7.27-12.047-17.262-10.5-27.807.281-1.915,3.19-1.1,2.911.8-1.882,12.836,6.843,24.663,17.594,30.722,12.426,7,27.547,7.012,41.381,6.211A541.227,541.227,0,0,0,452.579,246.6c28.773-6.572,56.518-15.966,84.232-26,26.321-9.531,53.23-18.834,81.35-20.9,24.4-1.791,50.065,1.763,71.321,14.514,18.681,11.206,32.418,29.894,36.795,51.34,4.277,20.956-1.647,42.048-17.51,56.672-16.424,15.141-38.945,21.615-59.932,27.576-26.619,7.562-52.667,16.4-77.88,27.878A488.9,488.9,0,0,0,497.7,418.865c-22.387,15.3-44.479,34.547-51.56,61.839-3.3,12.713-2.689,26.2,2.829,38.2,4.907,10.677,12.988,19.658,22.4,26.585,22.461,16.528,50.771,19.921,77.9,20.259,30.472.379,60.946-.649,91.428-.149q93.183,1.529,185.984,11.344,23.254,2.461,46.449,5.441c13.909,1.787,27.864,3.563,41.539,6.737,24.315,5.644,47.974,16.495,63.087,37.11a61.707,61.707,0,0,1,12.022,30.638c1.058,11.6-1.781,23.215-7.024,33.531-11.605,22.833-33.342,37.357-56.427,46.9-12.364,5.111-25.19,8.982-37.99,12.826-1.865.56-2.662-2.353-.8-2.911Z" transform="translate(-176.883 -152.074)" fill="#f2f2f2"/><circle cx="24.151" cy="24.151" r="24.151" transform="translate(102.535 45.787)" fill="#f2f2f2"/><circle cx="24.151" cy="24.151" r="24.151" transform="translate(270.085 91.574)" fill="#f2f2f2"/><circle cx="24.151" cy="24.151" r="24.151" transform="translate(411.974)" fill="#f2f2f2"/><circle cx="24.151" cy="24.151" r="24.151" transform="translate(500.528 102.643)" fill="#f2f2f2"/><circle cx="24.151" cy="24.151" r="24.151" transform="translate(380.778 221.387)" fill="#f2f2f2"/><circle cx="24.151" cy="24.151" r="24.151" transform="translate(228.826 278.746)" fill="#f2f2f2"/><circle cx="24.151" cy="24.151" r="24.151" transform="translate(389.835 368.307)" fill="#f2f2f2"/><circle cx="24.151" cy="24.151" r="24.151" transform="translate(562.919 418.622)" fill="#f2f2f2"/><circle cx="24.151" cy="24.151" r="24.151" transform="translate(765.186 407.553)" fill="#f2f2f2"/><path d="M604.958,220.373c-72.345.511-131.58,59.3-132.608,131.641-.01.668-.014,5.364-.013,11.506a33.96,33.96,0,0,0,33.955,33.959h0a33.98,33.98,0,0,0,33.974-34c0-4.186-.006-7.078-.006-7.255A64.4,64.4,0,1,1,639.4,410.439l.012.014s-48.331,31.114-63.066,73.8l.013,0a94.6,94.6,0,0,0-3.9,26.937c0,3.749.221,36.55.647,63.173A35.006,35.006,0,0,0,608.12,608.8h0a35.015,35.015,0,0,0,35.013-35.231c-.148-24.382-.228-52.772-.228-54.833,0-26.209,25.284-52.323,46.052-69.352,23.916-19.61,41.126-46.333,48.038-76.478a87.305,87.305,0,0,0,2.515-18.952A133.587,133.587,0,0,0,604.958,220.373Z" transform="translate(-175.805 -151.941)" fill="#0284c7"/><circle cx="30.189" cy="30.189" r="30.189" transform="translate(602.221 214.339)" fill="#2f2e41"/><path d="M573.126,582.427H560.79l-5.87-47.586h18.209Z" transform="translate(3.498 3.372)" fill="#a0616a"/><path d="M552.089,578.626h23.793v14.981H537.109A14.981,14.981,0,0,1,552.089,578.626Z" transform="translate(3.386 3.648)" fill="#2f2e41"/><path d="M668.126,582.427H655.79l-5.87-47.586h18.209Z" transform="translate(4.097 3.372)" fill="#a0616a"/><path d="M647.089,578.626h23.793v14.981H632.109A14.981,14.981,0,0,1,647.089,578.626Z" transform="translate(3.985 3.648)" fill="#2f2e41"/><circle cx="24.716" cy="24.716" r="24.716" transform="translate(603.107 225.461)" fill="#a0616a"/><path d="M816.745,505.217,827.8,479.808a31.58,31.58,0,0,0-6.994-35.824,32.077,32.077,0,0,0-3.09-2.687,31.13,31.13,0,0,0-19.109-6.611,32.383,32.383,0,0,0-13.484,3c-.363.161-.715.332-1.077.5-.694.332-1.378.694-2.043,1.067a31.878,31.878,0,0,0-15.8,24.031l-4.881,40.9c-1.227,3.21-45.022,119.136-29.706,207.641a4.5,4.5,0,0,0,3.844,3.693l15.527,2.113a4.525,4.525,0,0,0,5.041-3.552l26.053-124.188a3.525,3.525,0,0,1,6.843-.231l36.811,130.6a4.5,4.5,0,0,0,4.337,3.3,5.162,5.162,0,0,0,.876-.081l18.968-3.653a4.5,4.5,0,0,0,3.653-4.84C850.788,683.9,835.975,528.191,816.745,505.217Z" transform="translate(-174.191 -150.59)" fill="#2f2e41"/><path d="M706.1,421.476a10.119,10.119,0,0,0,10.661,11.274l13.815,33.2,10.45-15.491-14.722-29.153a10.174,10.174,0,0,0-20.205.17Z" transform="translate(-174.332 -150.73)" fill="#a0616a"/><path d="M800.262,538.251a10.119,10.119,0,0,0,8.48-12.995l29.067-21.171-17.5-6.553-24.92,21.109a10.174,10.174,0,0,0,4.873,19.61Z" transform="translate(-173.81 -150.193)" fill="#a0616a"/><path d="M753.326,487.921a17.165,17.165,0,0,1-3.319-.327,16.408,16.408,0,0,1-12.023-9.677l-19.356-23.6a4.529,4.529,0,0,1,1.118-6.723l13.771-8.524a4.529,4.529,0,0,1,6.255,1.5l13.642,22.475,26.125-19.307a9.783,9.783,0,0,1,11.381,15.66l-26.075,23.786A16.355,16.355,0,0,1,753.326,487.921Z" transform="translate(-174.259 -150.566)" fill="#2f2e41"/><path d="M823.357,523.369h-.106a4.536,4.536,0,0,1-3.332-1.58l-12.243-14.283a4.528,4.528,0,0,1,.926-6.715l22.925-15.283-20.769-24.969a9.782,9.782,0,0,1,14.981-12.259l25.242,24.667a16.629,16.629,0,0,1-3.7,27.11l-20.63,21.891a4.536,4.536,0,0,1-3.3,1.422Z" transform="translate(-173.698 -150.52)" fill="#2f2e41"/><path d="M795.393,470.826a4.655,4.655,0,0,1-.588-.037,4.489,4.489,0,0,1-3.734-3.088l-9.2-28.206a3.1,3.1,0,0,1,1.6-3.748l.3-.141c.271-.129.539-.256.813-.378a32.779,32.779,0,0,1,13.689-3.042,31.524,31.524,0,0,1,17.27,5.189,3.15,3.15,0,0,1,.907,4.322l-17.258,27.037a4.483,4.483,0,0,1-3.8,2.093Z" transform="translate(-173.854 -150.605)" fill="#e5e7eb"/><circle cx="9.879" cy="9.879" r="9.879" transform="translate(646.333 211.293)" fill="#2f2e41"/><path d="M796.275,361.365h0a26.164,26.164,0,0,0-26.164,26.164V398.6h13.615l6.511-11.069,1.954,11.069h41.317l-11.069-11.069a26.164,26.164,0,0,0-26.164-26.164Z" transform="translate(-173.928 -151.052)" fill="#2f2e41"/><path d="M834.809,365.5a15.245,15.245,0,0,1,16.585-10.461c6.3,1.052,11.273,6.113,14.239,11.765s4.335,11.978,6.329,18.041,4.821,12.16,9.855,16.085,12.757,4.99,17.7.952a20.245,20.245,0,0,1-37.713,7.227c-2.608-4.641-3.282-10.08-4.055-15.347s-1.779-10.717-4.893-15.035-8.944-7.138-13.891-5.171Z" transform="translate(-173.52 -151.093)" fill="#2f2e41"/><path d="M515.885,381.07h0a33.96,33.96,0,0,1-33.957-33.955c0-6.146,0-10.842.013-11.51A132.336,132.336,0,0,1,497.4,275.319a132.634,132.634,0,0,0-25.519,76.387c-.009.668-.014,5.364-.013,11.506a33.96,33.96,0,0,0,33.955,33.959h0a33.986,33.986,0,0,0,32.693-24.746A33.834,33.834,0,0,1,515.885,381.07Z" transform="translate(-175.808 -151.594)" fill="#3f3d56"/><path d="M606.741,291.58a64.407,64.407,0,0,1,56.01,89.977,64.4,64.4,0,1,0-108.1-67.408,64.273,64.273,0,0,1,52.093-22.569Z" transform="translate(-175.286 -151.594)" fill="#3f3d56"/><path d="M617.083,591.268h0a35.008,35.008,0,0,1-35.009-34.446c-.426-26.615-.647-59.417-.647-63.166a94.6,94.6,0,0,1,3.9-26.937l-.012,0a95.659,95.659,0,0,1,5.529-12.781,110.744,110.744,0,0,0-15.592,28.882l.012,0a94.6,94.6,0,0,0-3.9,26.937c0,3.749.221,36.55.647,63.173a35.006,35.006,0,0,0,35.009,34.438h0a35.02,35.02,0,0,0,33.611-25.2,34.878,34.878,0,0,1-23.548,9.1Z" transform="translate(-175.18 -150.468)" fill="#3f3d56"/><path d="M126.541,582.883h12.336l5.87-47.586H126.538Z" transform="translate(0.798 3.374)" fill="#ffb8b8"/><path d="M0,0H38.774V14.981H14.981A14.981,14.981,0,0,1,0,0H0Z" transform="translate(163.466 597.713) rotate(179.997)" fill="#2f2e41"/><path d="M82.541,582.883H94.877l5.87-47.586H82.538Z" transform="translate(0.52 3.374)" fill="#ffb8b8"/><path d="M0,0H38.774V14.981H14.981A14.981,14.981,0,0,1,0,0H0Z" transform="translate(119.188 597.713) rotate(179.997)" fill="#2f2e41"/><path d="M271.02,721.445l-12.05-.634a4.7,4.7,0,0,1-4.446-5l14.4-159.465,66.327,17.9,6.39-1.743L321.659,713.671a4.726,4.726,0,0,1-4.386,3.969l-12.99.605a4.7,4.7,0,0,1-4.963-4.826l2.354-84.727a1.568,1.568,0,0,0-3.1-.362l-22.7,89.372a4.675,4.675,0,0,1-4.6,3.749C271.19,721.452,271.105,721.45,271.02,721.445Z" transform="translate(-177.178 -149.823)" fill="#2f2e41"/><circle cx="24.716" cy="24.716" r="24.716" transform="translate(104.838 226.617)" fill="#ffb8b8"/><path d="M265.512,474.532l2.718,58.635.982,21.332a4.672,4.672,0,0,0,3.094,4.2l63.735,23.088a4.5,4.5,0,0,0,1.61.282,4.673,4.673,0,0,0,4.693-4.818l-2.613-105.428a37.163,37.163,0,0,0-30.937-35.9c-.616-.094-1.244-.188-1.871-.272a36.478,36.478,0,0,0-29.349,9.5,37.471,37.471,0,0,0-12.062,29.38Z" transform="translate(-177.109 -150.585)" fill="#ccc"/><path d="M366.024,569.528a10.127,10.127,0,0,1-5.4-15.323l-21.613-28.74,18.651-1.154,17.665,27.469a10.175,10.175,0,0,1-9.3,17.748Z" transform="translate(-176.645 -150.025)" fill="#ffb8b8"/><path d="M350.979,549.461a4.674,4.674,0,0,1-2.557-2.534l-32.562-77.58a12.542,12.542,0,1,1,23.129-9.708l32.562,77.581a4.709,4.709,0,0,1-2.516,6.157l-14.456,6.067a4.671,4.671,0,0,1-3.6.017Z" transform="translate(-176.797 -150.481)" fill="#ccc"/><path d="M298.511,546.523l31.275-59.884a4.909,4.909,0,0,1,6.616-2.076l45.4,23.709a4.909,4.909,0,0,1,2.076,6.616L352.6,574.771a4.909,4.909,0,0,1-6.616,2.077l-45.4-23.709A4.909,4.909,0,0,1,298.511,546.523Z" transform="translate(-176.904 -150.279)" fill="#3f3d56"/><path d="M319.636,519.1a10.127,10.127,0,0,0-15.615-4.488l-29.966-19.879L274,513.415l28.464,16.012A10.175,10.175,0,0,0,319.637,519.1Z" transform="translate(-177.055 -150.211)" fill="#ffb8b8"/><path d="M281.928,523.617l-24.49-19.4a17.271,17.271,0,0,1-7.873-27.306L271.8,447.77a10.16,10.16,0,0,1,17.238,10.349L271.445,486.9,297.3,499.163a4.7,4.7,0,0,1,1.96,6.762l-10.437,16.518a4.711,4.711,0,0,1-3.187,2.124l-.078.012A4.725,4.725,0,0,1,281.928,523.617Z" transform="translate(-177.234 -150.531)" fill="#ccc"/><path d="M287.922,418.9a2.148,2.148,0,0,1,1.868-2.837,4.962,4.962,0,0,1,3.5,1.726,13.92,13.92,0,0,0,3.091,2.654c1.2.6,2.817.517,3.5-.632.64-1.079.2-2.524-.186-3.777a37.139,37.139,0,0,1-1.64-9.832c-.112-3.724.414-7.61,2.475-10.514,2.661-3.748,7.418-5.171,11.92-5.068s8.931,1.493,13.391,2.372c1.54.3,3.349.458,4.379-.735,1.095-1.269.693-3.322.227-5.035-1.208-4.445-2.491-9.041-5.3-12.631a19.018,19.018,0,0,0-12.137-6.833,29.12,29.12,0,0,0-13.547,1.538,36.324,36.324,0,0,0-17.794,12.4,29.42,29.42,0,0,0-5.613,21.736A26.835,26.835,0,0,0,286,420.385Z" transform="translate(-177.044 -151.013)" fill="#2f2e41"/><path d="M599.147,735.6a46.284,46.284,0,0,1-17.178-71.94,46.287,46.287,0,1,0,62.964,66.883,46.259,46.259,0,0,1-45.786,5.056Z" transform="translate(-175.233 -149.146)" fill="#3f3d56"/></g></svg>