<svg xmlns="http://www.w3.org/2000/svg" width="850" height="720.433" viewBox="0 0 850 720.433"><g transform="translate(-68 40)"><rect width="850" height="720" transform="translate(68 -40)" fill="none"/><circle cx="52.655" cy="52.655" r="52.655" transform="translate(431.737 574.622)" fill="#0284c7"/><path d="M968.136,822.558c29.457-8.847,60.775-18.072,84.136-39.1,20.876-18.793,34.97-47.491,26.321-75.676-8.631-28.127-34.482-46.881-61.173-56.209-15.138-5.29-30.976-8.226-46.807-10.531-17.21-2.506-34.5-4.56-51.774-6.536q-104.94-12-210.669-14.664c-34.78-.876-69.554-.855-104.339-.35-31.065.451-63.783.44-92.6-12.764-22.411-10.267-42.751-28.947-49-53.494-7.208-28.336,6.087-57.192,25.16-77.714,10.053-10.817,21.8-19.922,33.923-28.293,13.149-9.082,26.757-17.521,40.659-25.4a566.19,566.19,0,0,1,85.583-39.455c14.589-5.3,29.4-9.882,44.33-14.1,12.611-3.565,25.261-7.136,37.449-11.993,23.561-9.39,45.971-25.3,51.962-51.374,5.678-24.715-3.9-51.545-20.678-69.905-19.417-21.242-48.693-30.553-76.761-32.06-31.511-1.691-62.3,6.195-91.913,16.2-31.589,10.675-62.5,22.95-94.753,31.6a637.537,637.537,0,0,1-97.521,18.128c-16.12,1.716-32.726,3.655-48.942,2.341-13.59-1.1-27.111-5.1-37.126-14.743-8.588-8.27-13.7-19.636-11.945-31.63.319-2.178,3.629-1.252,3.311.913-2.141,14.6,7.784,28.054,20.013,34.946,14.135,7.965,31.334,7.976,47.071,7.065a615.645,615.645,0,0,0,101.32-14.647c32.729-7.475,64.289-18.162,95.813-29.577,29.94-10.842,60.549-21.423,92.535-23.772,27.754-2.038,56.949,2.006,81.127,16.51,21.249,12.747,36.875,34,41.854,58.4,4.865,23.837-1.873,47.83-19.917,64.464-18.683,17.223-44.3,24.586-68.172,31.368-30.279,8.6-59.909,18.656-88.589,31.711A556.116,556.116,0,0,0,524.7,449.059c-25.465,17.4-50.6,39.3-58.649,70.341-3.752,14.461-3.059,29.8,3.218,43.457,5.581,12.145,14.774,22.361,25.482,30.24,25.55,18.8,57.751,22.661,88.613,23.045,34.662.431,69.325-.739,104-.169q105.995,1.74,211.555,12.9,26.451,2.8,52.835,6.189c15.821,2.033,31.7,4.053,47.25,7.663,27.658,6.42,54.571,18.763,71.761,42.213a70.191,70.191,0,0,1,13.675,34.85c1.2,13.191-2.026,26.407-7.99,38.141-13.2,25.973-37.927,42.493-64.185,53.347-14.064,5.813-28.653,10.217-43.213,14.59-2.121.637-3.028-2.676-.913-3.311Z" transform="translate(-169.183 -145.585)" fill="#f2f2f2"/><circle cx="27.472" cy="27.472" r="27.472" transform="translate(107.224 52.082)" fill="#f2f2f2"/><circle cx="27.472" cy="27.472" r="27.472" transform="translate(297.811 104.165)" fill="#f2f2f2"/><circle cx="27.472" cy="27.472" r="27.472" transform="translate(459.209)" fill="#f2f2f2"/><circle cx="27.472" cy="27.472" r="27.472" transform="translate(559.94 116.756)" fill="#f2f2f2"/><circle cx="27.472" cy="27.472" r="27.472" transform="translate(423.724 251.826)" fill="#f2f2f2"/><circle cx="27.472" cy="27.472" r="27.472" transform="translate(250.88 317.072)" fill="#f2f2f2"/><circle cx="27.472" cy="27.472" r="27.472" transform="translate(434.026 418.948)" fill="#f2f2f2"/><circle cx="27.472" cy="27.472" r="27.472" transform="translate(630.909 476.181)" fill="#f2f2f2"/><circle cx="27.472" cy="27.472" r="27.472" transform="translate(860.987 463.59)" fill="#f2f2f2"/><path d="M623.193,220.373c-82.292.581-149.672,67.455-150.841,149.741-.011.76-.016,6.1-.015,13.088a38.63,38.63,0,0,0,38.623,38.628h0a38.652,38.652,0,0,0,38.645-38.679c0-4.761-.006-8.051-.006-8.253a73.259,73.259,0,1,1,112.773,61.674l.013.016s-54.976,35.393-71.737,83.945l.014,0a107.605,107.605,0,0,0-4.434,30.64c0,4.264.251,41.576.736,71.859a39.819,39.819,0,0,0,39.823,39.173h0a39.83,39.83,0,0,0,39.827-40.076c-.168-27.734-.259-60.028-.259-62.372,0-29.813,28.76-59.517,52.384-78.887,27.2-22.306,46.78-52.7,54.643-86.994a99.308,99.308,0,0,0,2.861-21.558A151.954,151.954,0,0,0,623.193,220.373Z" transform="translate(-144.442 -142.532)" fill="#0284c7"/><circle cx="34.34" cy="34.34" r="34.34" transform="translate(675.615 243.809)" fill="#2f2e41"/><path d="M575.629,588.97H561.6l-6.677-54.129h20.713Z" transform="translate(70.869 77.373)" fill="#a0616a"/><path d="M554.149,578.626h27.064v17.04h-44.1A17.04,17.04,0,0,1,554.149,578.626Z" transform="translate(68.292 83.707)" fill="#2f2e41"/><path d="M670.629,588.97H656.6l-6.677-54.129h20.713Z" transform="translate(84.612 77.373)" fill="#a0616a"/><path d="M649.149,578.626h27.064v17.04h-44.1A17.04,17.04,0,0,1,649.149,578.626Z" transform="translate(82.036 83.707)" fill="#2f2e41"/><circle cx="28.114" cy="28.114" r="28.114" transform="translate(676.622 256.461)" fill="#a0616a"/><path d="M828.9,514.915l12.58-28.9a35.922,35.922,0,0,0-7.955-40.75,36.489,36.489,0,0,0-3.514-3.056,35.41,35.41,0,0,0-21.737-7.521A36.835,36.835,0,0,0,792.93,438.1c-.413.183-.813.378-1.225.572-.79.378-1.568.79-2.323,1.213a36.261,36.261,0,0,0-17.971,27.335l-5.552,46.519c-1.4,3.651-51.212,135.517-33.79,236.19a5.113,5.113,0,0,0,4.372,4.2l17.662,2.4a5.147,5.147,0,0,0,5.734-4.041l29.636-141.263a4.01,4.01,0,0,1,7.783-.263l41.872,148.555a5.118,5.118,0,0,0,4.934,3.755,5.873,5.873,0,0,0,1-.092l21.576-4.155a5.118,5.118,0,0,0,4.156-5.506C867.619,718.162,850.77,541.048,828.9,514.915Z" transform="translate(-107.402 -111.528)" fill="#2f2e41"/><path d="M706.112,422.722a11.511,11.511,0,0,0,12.127,12.824l15.715,37.765,11.887-17.621L729.1,422.529a11.573,11.573,0,0,0-22.984.193Z" transform="translate(-110.634 -114.749)" fill="#a0616a"/><path d="M801.836,543.849a11.511,11.511,0,0,0,9.646-14.781l33.064-24.082-19.906-7.454-28.346,24.012a11.573,11.573,0,0,0,5.543,22.306Z" transform="translate(-98.659 -102.436)" fill="#a0616a"/><path d="M758.238,494.731a19.529,19.529,0,0,1-3.776-.372,18.664,18.664,0,0,1-13.676-11.007l-22.017-26.846a5.152,5.152,0,0,1,1.272-7.647l15.664-9.7a5.151,5.151,0,0,1,7.115,1.706l15.517,25.565,29.717-21.962A11.128,11.128,0,0,1,801,462.283l-29.66,27.056A18.6,18.6,0,0,1,758.238,494.731Z" transform="translate(-108.961 -110.992)" fill="#2f2e41"/><path d="M825.663,534.045h-.121a5.16,5.16,0,0,1-3.79-1.8L807.826,516a5.151,5.151,0,0,1,1.054-7.638l26.077-17.385-23.624-28.4a11.127,11.127,0,0,1,17.041-13.945l28.712,28.059a18.915,18.915,0,0,1-4.207,30.838l-23.467,24.9a5.16,5.16,0,0,1-3.749,1.618Z" transform="translate(-96.088 -109.931)" fill="#2f2e41"/><path d="M797.273,476.139a5.3,5.3,0,0,1-.669-.042,5.106,5.106,0,0,1-4.247-3.513L781.892,440.5a3.528,3.528,0,0,1,1.825-4.263l.339-.16c.308-.146.613-.291.924-.43a37.286,37.286,0,0,1,15.571-3.46,35.859,35.859,0,0,1,19.644,5.9A3.583,3.583,0,0,1,821.227,443L801.6,473.758a5.1,5.1,0,0,1-4.323,2.38Z" transform="translate(-99.685 -111.89)" fill="#e5e7eb"/><circle cx="11.237" cy="11.237" r="11.237" transform="translate(725.792 240.345)" fill="#2f2e41"/><path d="M799.873,361.365h0a29.761,29.761,0,0,0-29.761,29.761v12.591H785.6L793,391.126l2.222,12.591h47l-12.591-12.591a29.761,29.761,0,0,0-29.761-29.761Z" transform="translate(-101.364 -122.135)" fill="#2f2e41"/><path d="M834.809,366.955a17.342,17.342,0,0,1,18.865-11.9c7.161,1.2,12.823,6.953,16.2,13.382s4.931,13.624,7.2,20.522,5.484,13.832,11.21,18.3,14.511,5.676,20.134,1.083a23.029,23.029,0,0,1-42.9,8.22c-2.967-5.279-3.733-11.466-4.613-17.457s-2.023-12.19-5.565-17.1-10.173-8.119-15.8-5.882Z" transform="translate(-92.005 -123.071)" fill="#2f2e41"/><path d="M521.937,395.61h0a38.629,38.629,0,0,1-38.626-38.623c0-6.991,0-12.333.015-13.093a150.531,150.531,0,0,1,17.581-68.576,150.871,150.871,0,0,0-29.027,86.89c-.011.76-.016,6.1-.015,13.088a38.63,38.63,0,0,0,38.623,38.628h0a38.659,38.659,0,0,0,37.188-28.148A38.486,38.486,0,0,1,521.937,395.61Z" transform="translate(-144.51 -134.583)" fill="#3f3d56"/><path d="M613.9,293.8a73.263,73.263,0,0,1,63.711,102.348,73.255,73.255,0,1,0-122.967-76.676A73.111,73.111,0,0,1,613.9,293.8Z" transform="translate(-132.534 -134.57)" fill="#3f3d56"/><path d="M623.369,610.15h0a39.821,39.821,0,0,1-39.823-39.182c-.485-30.275-.736-67.586-.736-71.851a107.607,107.607,0,0,1,4.434-30.64l-.014,0a108.813,108.813,0,0,1,6.289-14.538,125.971,125.971,0,0,0-17.736,32.853l.014,0a107.6,107.6,0,0,0-4.434,30.64c0,4.264.251,41.576.736,71.859a39.819,39.819,0,0,0,39.823,39.173h0A39.835,39.835,0,0,0,650.155,599.8a39.674,39.674,0,0,1-26.785,10.351Z" transform="translate(-130.116 -108.743)" fill="#3f3d56"/><path d="M126.541,589.426h14.032l6.677-54.129H126.538Z" transform="translate(8.897 77.439)" fill="#ffb8b8"/><path d="M0,0H44.1V17.04H17.041A17.04,17.04,0,0,1,0,0H0Z" transform="translate(176.532 679.896) rotate(179.997)" fill="#2f2e41"/><path d="M82.541,589.426H96.574l6.677-54.129H82.538Z" transform="translate(2.532 77.439)" fill="#ffb8b8"/><path d="M0,0H44.1V17.04H17.04A17.04,17.04,0,0,1,0,0H0Z" transform="translate(126.167 679.895) rotate(179.997)" fill="#2f2e41"/><path d="M273.29,744.145l-13.707-.721a5.35,5.35,0,0,1-5.058-5.686l16.383-181.391,75.446,20.359,7.269-1.983L330.892,735.3a5.376,5.376,0,0,1-4.989,4.515l-14.776.688a5.35,5.35,0,0,1-5.645-5.489l2.677-96.377a1.784,1.784,0,0,0-3.529-.412L278.81,739.889a5.318,5.318,0,0,1-5.23,4.265C273.484,744.153,273.387,744.151,273.29,744.145Z" transform="translate(-175.953 -93.927)" fill="#2f2e41"/><circle cx="28.114" cy="28.114" r="28.114" transform="translate(109.844 257.776)" fill="#ffb8b8"/><path d="M265.518,479.916l3.091,66.7,1.117,24.265a5.314,5.314,0,0,0,3.519,4.78l72.5,26.262a5.127,5.127,0,0,0,1.831.321,5.315,5.315,0,0,0,5.338-5.481l-2.972-119.923A42.273,42.273,0,0,0,314.75,436c-.7-.107-1.415-.214-2.128-.309A41.494,41.494,0,0,0,279.238,446.5a42.623,42.623,0,0,0-13.72,33.42Z" transform="translate(-174.369 -111.428)" fill="#ccc"/><path d="M369.738,575.745a11.519,11.519,0,0,1-6.145-17.429l-24.585-32.692,21.216-1.313,20.094,31.246a11.574,11.574,0,0,1-10.579,20.188Z" transform="translate(-163.73 -98.562)" fill="#ffb8b8"/><path d="M355.943,562.869a5.316,5.316,0,0,1-2.909-2.883l-37.039-88.247A14.266,14.266,0,1,1,342.3,460.7l37.039,88.248a5.356,5.356,0,0,1-2.862,7l-16.444,6.9a5.313,5.313,0,0,1-4.095.02Z" transform="translate(-167.221 -109.031)" fill="#ccc"/><path d="M298.588,555.118,334.163,487a5.584,5.584,0,0,1,7.526-2.362l51.638,26.968a5.584,5.584,0,0,1,2.362,7.526l-35.575,68.118a5.584,5.584,0,0,1-7.526,2.362L300.95,562.644A5.584,5.584,0,0,1,298.588,555.118Z" transform="translate(-169.669 -104.393)" fill="#3f3d56"/><path d="M325.911,522.446a11.519,11.519,0,0,0-17.762-5.106l-34.086-22.612L274,515.984,306.382,534.2a11.574,11.574,0,0,0,19.528-11.753Z" transform="translate(-173.134 -102.842)" fill="#ffb8b8"/><path d="M286.914,534.558l-27.857-22.067a19.646,19.646,0,0,1-8.955-31.061L275.4,448.282A11.557,11.557,0,0,1,295,460.054L274.99,492.792l29.411,13.95a5.35,5.35,0,0,1,2.23,7.692l-11.872,18.789a5.359,5.359,0,0,1-3.625,2.416l-.088.014A5.374,5.374,0,0,1,286.914,534.558Z" transform="translate(-177.234 -110.174)" fill="#ccc"/><path d="M289.592,425.959a2.444,2.444,0,0,1,2.125-3.227,5.644,5.644,0,0,1,3.979,1.963,15.834,15.834,0,0,0,3.515,3.019c1.36.685,3.2.588,3.98-.719.728-1.227.229-2.871-.212-4.3a42.246,42.246,0,0,1-1.866-11.183c-.127-4.236.471-8.656,2.816-11.96,3.026-4.264,8.438-5.882,13.559-5.765s10.159,1.7,15.232,2.7c1.751.345,3.81.521,4.981-.836,1.245-1.443.788-3.779.258-5.728-1.375-5.056-2.833-10.284-6.027-14.368a21.633,21.633,0,0,0-13.806-7.772,33.125,33.125,0,0,0-15.41,1.75,41.318,41.318,0,0,0-20.241,14.1,33.465,33.465,0,0,0-6.385,24.725,30.524,30.524,0,0,0,11.316,19.293Z" transform="translate(-172.878 -121.243)" fill="#2f2e41"/><path d="M604.12,745.491a52.647,52.647,0,0,1-19.54-81.831A52.651,52.651,0,1,0,656.2,739.74a52.62,52.62,0,0,1-52.081,5.752Z" transform="translate(-131.33 -78.403)" fill="#3f3d56"/></g></svg>