<svg xmlns="http://www.w3.org/2000/svg" width="849.435" height="463.495" viewBox="0 0 849.435 463.495"><g transform="translate(0 -0.035)"><path d="M865.436,566.292A139.268,139.268,0,0,1,853.315,589.6a100.3,100.3,0,0,1-7.342,10.1.518.518,0,0,1-.081.089H25l.111-.089c.739-.576,5.074-4.085,11.818-10.1,4.838-4.306,10.91-9.905,17.727-16.642,55.76-54.844,162.871-184.661,73.665-303.582-82.927-110.553,6.36-130.614,65.259-132.956a168.27,168.27,0,0,1,66.375,10.851c27.212,10.341,76.944,26.192,141.738,33.461,2.127.236,4.269.473,6.441.687A620.54,620.54,0,0,0,511.382,183.3h0c1.012-.059,2.031-.133,3.058-.207A613.524,613.524,0,0,0,615.427,167.47c2.149-.524,4.269-1.019,6.382-1.514,110.523-25.572,212.412,61.581,186.936,160.071-9.418,36.43-7.025,75.26,24.375,106.675C884.529,483.978,878.3,534.479,865.436,566.292Z" transform="translate(-25 -136.26)" fill="#fda4af"/><path d="M865.475,714.039a139.267,139.267,0,0,1-12.121,23.312,100.305,100.305,0,0,1-7.342,10.1H25.15c.739-.576,5.074-4.085,11.818-10.1,4.838-4.306,10.91-9.905,17.727-16.642l86.517-17.875a16.837,16.837,0,0,1,3.4-.347l92.234-.133h.1l45.685-.059h.1l38.557-.044h51.092l105.936-.148H523.9l18.193-.207H548.1l52.916-.074h25.025l61.123-.081h18.2l57.895-.081,48.869-.059a17.319,17.319,0,0,1,4.04.48Z" transform="translate(-25.039 -284.006)" fill="#454b69"/><path d="M36.968,750H853.354a100.337,100.337,0,0,1-7.342,10.1H25.15C25.874,759.484,30.21,755.976,36.968,750Z" transform="translate(-25.039 -296.656)" fill="none"/><path d="M36.968,750H853.354a100.337,100.337,0,0,1-7.342,10.1H25.15C25.874,759.484,30.21,755.976,36.968,750Z" transform="translate(-25.039 -296.656)" opacity="0.4"/><path d="M683.481,363.9l-1.64.318-74.13,14.241c-21.531,4.136-43.373,8.295-65.244,6.707-15.844-1.152-30.646-5.85-45.87-9.972-8.605-2.334-17.727-3.265-20.645-12.9-4.026-13.3,2.526-32.98,4.07-46.453,1.477-13.222,2.349-26.776-.281-39.842a70.835,70.835,0,0,0-2.3-8.672c-2.637-7.822-6.781-15.955-4.543-23.9,1.765-6.3,7.15-10.8,12.188-14.965,9.868-8.125,19.943-17.233,23.858-29.413,1.92-5.909,2.282-12.269,4.351-18.134,3.922-11.154,13.776-19.493,24.737-23.91s23.016-5.355,34.842-5.355a236.03,236.03,0,0,1,31.21,2.074c11.3,1.479,22.689,3.909,32.609,9.508s18.281,14.773,20.593,25.956c3.272,15.814-5.813,32.655-.938,48.012,2.452,7.763,8.125,14.034,12.062,21.14A50.354,50.354,0,0,1,672.1,297.5c-4.713,14.6-16.25,29.376-10.341,43.536,3.76,9,13.362,13.813,20.054,20.948Q682.705,362.942,683.481,363.9Z" transform="translate(-141.893 -140.276)" fill="#454b69"/><path d="M682.693,393.753v2.179l-74.13,14.241c-21.531,4.136-43.373,8.295-65.244,6.707-15.844-1.152-30.646-5.85-45.87-9.972-8.605-2.334-17.727-3.265-20.645-12.9-4.026-13.3,2.526-32.98,4.07-46.453,1.477-13.222,24.22-61.492,21.591-74.559l135.91,5.909c.916,7.217,36.836,43.44,34.6,50.361-4.713,14.6-16.25,29.376-10.341,43.536C666.4,381.81,676,386.618,682.693,393.753Z" transform="translate(-142.745 -171.989)" opacity="0.1"/><path d="M552.372,371.632c.805,4.572,1.234,9.6-1.1,13.591-3.11,5.348-9.891,7.054-15.955,8.265l-21.051,4.21a8.17,8.17,0,0,0-4.026,1.6,7.041,7.041,0,0,0-1.876,4.6c-.849,7.623,1.847,15.135,4.306,22.4,4.971,14.706,9.144,29.723,15.43,43.912s14.913,27.736,27.226,37.22,28.608,14.536,43.683,10.828c13.133-3.228,23.9-12.5,33.187-22.329,7.66-8.125,14.825-16.989,18.54-27.529,2.563-7.239,3.4-14.95,4.2-22.588l3.738-35.13c.583-5.5.968-11.678-2.6-15.9a18.933,18.933,0,0,0-5.865-4.232c-8.081-4.292-16.59-7.837-24.109-13.008s-14.189-12.291-16.472-21.125c-1.367-5.3-1.123-11.08-3.449-16.021-2.6-5.54-8.125-9.292-14.034-10.939s-12.143-1.426-18.23-.739-29.546,2.445-32.065,9.307c-1.352,3.693,4.255,11.619,5.584,15.253A106.494,106.494,0,0,1,552.372,371.632Z" transform="translate(-151.289 -186.416)" fill="#efb7b9"/><path d="M552.372,371.632c.805,4.572,1.234,9.6-1.1,13.591-3.11,5.348-9.891,7.054-15.955,8.265l-21.051,4.21a8.17,8.17,0,0,0-4.026,1.6,7.041,7.041,0,0,0-1.876,4.6c-.849,7.623,1.847,15.135,4.306,22.4,4.971,14.706,9.144,29.723,15.43,43.912s14.913,27.736,27.226,37.22,28.608,14.536,43.683,10.828c13.133-3.228,23.9-12.5,33.187-22.329,7.66-8.125,14.825-16.989,18.54-27.529,2.563-7.239,3.4-14.95,4.2-22.588l3.738-35.13c.583-5.5.968-11.678-2.6-15.9a18.933,18.933,0,0,0-5.865-4.232c-8.081-4.292-16.59-7.837-24.109-13.008s-14.189-12.291-16.472-21.125c-1.367-5.3-1.123-11.08-3.449-16.021-2.6-5.54-8.125-9.292-14.034-10.939s-12.143-1.426-18.23-.739-29.546,2.445-32.065,9.307c-1.352,3.693,4.255,11.619,5.584,15.253A106.494,106.494,0,0,1,552.372,371.632Z" transform="translate(-151.289 -186.416)" opacity="0.1"/><path d="M599.636,470.083l12.343-26.133c5.784-12.247,11.693-25.114,11.08-38.638-.118-2.689-.148-6.049,2.216-7.268a6.337,6.337,0,0,1,3.243-.414,131.176,131.176,0,0,1,38.048,7.7c2.371.857,4.8,1.847,6.463,3.738s2.334,4.432,2.9,6.869a200.558,200.558,0,0,1,4.232,25.018c2.216,20.845,1.115,41.874,0,62.785l-3.28,63.841a6.1,6.1,0,0,1-.539,2.63c-.812,1.477-2.644,1.972-4.291,2.253-6.345,1.086-12.83.864-19.256.62-45.2-1.714-90.646-4.343-135.556,1.138q.3-9.964-.318-19.943c-1.78-28.726-9.226-56.75-16.538-84.582-4.262-16.25-8.391-33.978-1.529-49.29a21.118,21.118,0,0,1,4.277-6.515c2.918-2.859,6.9-4.365,10.843-5.444a69.011,69.011,0,0,1,20.9-2.364l46.571,101.394c2.127,4.639,3.878,9.521,6,14.1,1.906-7.911-.384-17.181,1.906-25.756C591.814,486.917,595.7,478.4,599.636,470.083Z" transform="translate(-147.889 -204.547)" fill="#fff"/><path d="M575.915,539.232c8.332.524,16.427-3.745,22.159-9.78s9.514-13.687,12.712-21.421a211.247,211.247,0,0,0,10.924-34.059c2.216-9.9,3.789-20.143,2.26-30.174-2.113-13.85-9.95-26.436-11.286-40.382-.229-2.438-.081-5.289,1.876-6.759a7.792,7.792,0,0,1,4.314-1.123c13.931-.827,29.235-.672,40.027,8.169,3.287,2.689,5.953,6.049,9.167,8.819,7.652,6.648,18.466,10.031,23.378,18.858,1.714,3.073,2.534,6.552,3.73,9.861,2.822,7.83,7.7,14.714,12.557,21.487-4.705,19.855-10.112,39.724-14.817,59.579-2.755,11.648-5.532,23.341-9.861,34.495-2.836,7.313-6.4,14.773-5.532,22.6a51.614,51.614,0,0,0,2.268,9,103.409,103.409,0,0,1,4.351,32.153l-210.764.517c10.1-14.477,13.059-32.234,12.032-49.851-.495-8.443-2.4-16.937-6.648-24.242-6.692-11.449-18.466-18.909-30.07-25.3-8.125-4.432-16.848,20.5-25.631,17.646,1.418-10.031,2.068-48.75,1.477-58.848-.192-3.309-.487-6.707.532-9.868.694-2.164,1.972-4.1,2.836-6.2,3.464-8.428.163-19.2,5.761-26.377,3.87-4.986,10.659-6.4,16.176-9.477,5.665-3.161,10.046-8.125,14.98-12.365a66.619,66.619,0,0,1,34.1-15.224,42.944,42.944,0,0,1,6.507,19.2c.377,4.292.1,8.642.7,12.911.82,5.784,3.213,11.213,5.584,16.56,9.876,22.3,19.788,44.666,32.3,65.606,3.538,5.909,7.386,11.818,12.513,16.42S569.031,539.557,575.915,539.232Z" transform="translate(-129.036 -203.93)" fill="#16a34a"/><path d="M575.915,539.232c8.332.524,16.427-3.745,22.159-9.78s9.514-13.687,12.712-21.421a211.247,211.247,0,0,0,10.924-34.059c2.216-9.9,3.789-20.143,2.26-30.174-2.113-13.85-9.95-26.436-11.286-40.382-.229-2.438-.081-5.289,1.876-6.759a7.792,7.792,0,0,1,4.314-1.123c13.931-.827,29.235-.672,40.027,8.169,3.287,2.689,5.953,6.049,9.167,8.819,7.652,6.648,18.466,10.031,23.378,18.858,1.714,3.073,2.534,6.552,3.73,9.861,2.822,7.83,7.7,14.714,12.557,21.487-4.705,19.855-10.112,39.724-14.817,59.579-2.755,11.648-5.532,23.341-9.861,34.495-2.836,7.313-6.4,14.773-5.532,22.6a51.614,51.614,0,0,0,2.268,9,103.409,103.409,0,0,1,4.351,32.153l-210.764.517c10.1-14.477,13.059-32.234,12.032-49.851-.495-8.443-2.4-16.937-6.648-24.242-6.692-11.449-18.466-18.909-30.07-25.3-8.125-4.432-16.848,20.5-25.631,17.646,1.418-10.031,2.068-48.75,1.477-58.848-.192-3.309-.487-6.707.532-9.868.694-2.164,1.972-4.1,2.836-6.2,3.464-8.428.163-19.2,5.761-26.377,3.87-4.986,10.659-6.4,16.176-9.477,5.665-3.161,10.046-8.125,14.98-12.365a66.619,66.619,0,0,1,34.1-15.224,42.944,42.944,0,0,1,6.507,19.2c.377,4.292.1,8.642.7,12.911.82,5.784,3.213,11.213,5.584,16.56,9.876,22.3,19.788,44.666,32.3,65.606,3.538,5.909,7.386,11.818,12.513,16.42S569.031,539.557,575.915,539.232Z" transform="translate(-129.036 -203.93)" opacity="0.1"/><circle cx="63.316" cy="63.316" r="63.316" transform="translate(372.416 56.907)" fill="#efb7b9"/><path d="M552.179,350.46c1.736-16.383-5.074-32.412-12.786-46.97-3.693-6.958-7.652-13.894-9.506-21.539s-1.322-16.3,3.42-22.588c4.033-5.348,10.43-8.236,16.346-11.375,16.7-8.864,31.969-21.893,39.311-39.318-4.151,2.26-3.073,9,.591,11.981s8.657,3.553,13.163,4.971C619.145,230.792,629,247.175,636.9,262.48c1.293,2.5,2.607,5.134,2.593,7.948s-1.3,5.311-2.644,7.7c-3.9,6.943-8.672,13.613-10.444,21.376-2.031,8.864.111,18.185,2.9,26.879,2.955,9.248,6.877,18.569,13.968,25.2s18.089,9.927,26.813,5.643c-8.709-14.972-17.727-31.7-14.33-48.677,1.64-8.125,6.049-15.512,7.926-23.592,3.575-15.415-2.378-31.274-8.221-45.988l-17.461-43.912c-2.666-6.714-5.7-13.879-11.818-17.683-4.136-2.563-9.144-3.228-13.99-3.693-15.6-1.389-31.762-.931-46.283,4.875-26.458,10.57-43.048,36.629-56.211,61.906-3.944,7.571-7.837,15.615-7.674,24.154.089,4.683,1.4,9.24,2.46,13.805,4.328,18.584,4.565,37.841,4.786,56.92.17,14.64-.591,28.438-6.995,41.77,8.775,1.743,21.5,6.448,30.188,3.006C543.781,375.647,550.754,361.857,552.179,350.46Z" transform="translate(-149.671 -145.861)" fill="#454b69"/><g transform="translate(352.307 61.642)" opacity="0.1"><path d="M509.215,366.1q.044-3.124,0-6.308c-.222-19.079-.458-38.336-4.786-56.92a96.062,96.062,0,0,1-2.26-10.991,28.73,28.73,0,0,0-.2,3.834c.089,4.683,1.4,9.24,2.46,13.805C508.735,327.992,509,347.13,509.215,366.1Z" transform="translate(-501.966 -238.565)"/><path d="M717.815,319.913a44.7,44.7,0,0,0,.96-13.163,41.027,41.027,0,0,1-.96,6.515c-1.876,8.125-6.286,15.445-7.926,23.592a39.146,39.146,0,0,0-.591,10.917,38.726,38.726,0,0,1,.591-4.269C711.529,335.358,715.939,328.008,717.815,319.913Z" transform="translate(-556.116 -242.451)"/><path d="M648.43,279.235a10.645,10.645,0,0,0,.576-3.257c0-2.814-1.3-5.451-2.593-7.948-7.9-15.3-17.727-31.673-34.184-36.858-4.506-1.418-9.492-1.994-13.163-4.971a9.366,9.366,0,0,1-3.235-6.5c-8.007,14.7-21.76,25.941-36.666,33.837-5.909,3.139-12.313,6.027-16.346,11.375-3.789,5.023-4.89,11.56-4.232,17.883a22.609,22.609,0,0,1,4.232-11.235c4.033-5.348,10.43-8.236,16.346-11.375,14.906-7.9,28.659-19.138,36.666-33.837a9.366,9.366,0,0,0,3.235,6.5c3.693,2.955,8.657,3.553,13.163,4.971,16.427,5.171,26.281,21.554,34.184,36.858a29.1,29.1,0,0,1,2.016,4.557Z" transform="translate(-511.49 -219.7)"/><path d="M687,391.178c-7.091-6.648-11-15.955-13.968-25.2a72.957,72.957,0,0,1-3.545-16.036c-.687,7.586,1.2,15.349,3.545,22.684,2.955,9.248,6.877,18.57,13.968,25.2s18.089,9.927,26.813,5.643c-1.049-1.795-2.09-3.619-3.124-5.459C702.588,400.293,693.281,397.043,687,391.178Z" transform="translate(-545.712 -253.739)"/><path d="M552.26,403.555c-1.426,11.4-8.4,25.188-19.751,29.693-7.881,3.124-19.1-.465-27.662-2.452a64.009,64.009,0,0,1-2.526,6.094c8.775,1.743,21.5,6.448,30.188,3.006,11.353-4.506,18.326-18.3,19.751-29.693a51.325,51.325,0,0,0,.162-8.583C552.378,402.263,552.311,402.913,552.26,403.555Z" transform="translate(-502.058 -267.246)"/></g><path d="M672.588,650.857c-11.412-1.81-22.994-5.3-34.31-2.955-6.559,1.359-12.557,4.624-18.008,8.568,3,2.4,6.5,4.543,8.406,7.881a31.02,31.02,0,0,1,2.644,7.29,62.04,62.04,0,0,1,2.585,13.562c.185,4.609-.739,9.41-3.486,13.126,14.389,1.418,28.334-2.127,42.369-5.591a11.6,11.6,0,0,0,4.483-1.81c2.216-1.743,2.866-4.846,2.881-7.675,0-5.052-1.418-9.979-2.859-14.825C675.58,662.616,674.309,656.633,672.588,650.857Z" transform="translate(-180.578 -269.767)" fill="#fff"/><path d="M764.677,483.343c5.665.739,10.06,5.311,13.3,10.009,9.078,13.074,12.993,28.925,17.351,44.237a588.792,588.792,0,0,0,19.109,56.225,84.611,84.611,0,0,0,5.732,12.335c1.824,3.051,4.04,5.983,4.845,9.447,1.95,8.376-4.956,16.25-12.158,20.918a48.117,48.117,0,0,1-12.446,6,74.131,74.131,0,0,1-13.236,2.26l-41,4.432c-18.872,2.053-37.915,4.107-56.794,2.127-1.189-4.136,1.145-7.061.975-11.368-.118-3.08-1.477-5.946-2.689-8.782a56.135,56.135,0,0,1-4.38-15.888,21.538,21.538,0,0,0-1.056-5.961c-.768-1.876-2.415-3.56-4.432-3.693,11.08-1.1,19.493-3.191,30.572-4.3,4.114-.414,8.391-.879,11.9-3.065,4.351-2.711,6.788-7.6,8.723-12.343,4.794-11.744,7.881-24.685,5.363-37.124-2.068-10.2-7.837-19.7-7.807-30.107,0-6.2,2.113-12.2,4.609-17.875,2.644-6,6.094-12.129,11.9-15.172S758.125,482.457,764.677,483.343Z" transform="translate(-195.611 -226.84)" fill="#16a34a"/><path d="M764.677,483.343c5.665.739,10.06,5.311,13.3,10.009,9.078,13.074,12.993,28.925,17.351,44.237a588.792,588.792,0,0,0,19.109,56.225,84.611,84.611,0,0,0,5.732,12.335c1.824,3.051,4.04,5.983,4.845,9.447,1.95,8.376-4.956,16.25-12.158,20.918a48.117,48.117,0,0,1-12.446,6,74.131,74.131,0,0,1-13.236,2.26l-41,4.432c-18.872,2.053-37.915,4.107-56.794,2.127-1.189-4.136,1.145-7.061.975-11.368-.118-3.08-1.477-5.946-2.689-8.782a56.135,56.135,0,0,1-4.38-15.888,21.538,21.538,0,0,0-1.056-5.961c-.768-1.876-2.415-3.56-4.432-3.693,11.08-1.1,19.493-3.191,30.572-4.3,4.114-.414,8.391-.879,11.9-3.065,4.351-2.711,6.788-7.6,8.723-12.343,4.794-11.744,7.881-24.685,5.363-37.124-2.068-10.2-7.837-19.7-7.807-30.107,0-6.2,2.113-12.2,4.609-17.875,2.644-6,6.094-12.129,11.9-15.172S758.125,482.457,764.677,483.343Z" transform="translate(-195.611 -226.84)" opacity="0.08"/><path d="M445.838,430.023c2.681-6.367,5.407-12.941,5.481-19.847.081-7.468-2.955-14.559-5.274-21.65a125.191,125.191,0,0,1-5.695-26.731,3.693,3.693,0,0,1,.369-2.563c.613-.864,1.795-1.042,2.836-1.271,5.111-1.167,8.974-5.3,12.165-9.455a103.661,103.661,0,0,0,12.454-20.8c2.445-5.444,5.754-12.084,11.722-12.136a338.57,338.57,0,0,1-8.923,33.424c6.242-1.6,12.173-3.915,18.414-5.51a11.027,11.027,0,0,1,3.782-.5c3.738.391,6.027,5.451,3.856,8.517,3.051,3.575,8.125,4.535,12.114,6.988s6.855,8.524,3.309,11.6a9.892,9.892,0,0,0-2.076,1.788c-1.714,2.644,2.482,5.68,2.135,8.812-.281,2.563-3.568,3.76-6.057,3.08s-4.432-2.541-6.648-3.907-5.111-2.216-7.261-.8c-.576,6.951-1.2,14.034-4.2,20.364-1.1,2.312-2.511,4.476-3.4,6.877a33.89,33.89,0,0,0-1.566,8.073l-2.681,24.516C467.9,441.457,456.43,437.623,445.838,430.023Z" transform="translate(-133.532 -183.115)" fill="#efb7b9"/><path d="M442.613,489.494l-2.356-15.947a25.921,25.921,0,0,1-.377-3.93c0-3.693,1.625-7.217,3.2-10.577,13.037,6.086,27.13,8.251,41.512,8.258,1.9,0,4.063-.177,5.244-1.662,2.445,2.814,2.519,7.342,1.477,10.917s-3.043,6.8-4.373,10.282c-.672,1.765-1.219,3.693-2.5,5.052-1.994,2.149-5.23,2.519-8.169,2.5a52.229,52.229,0,0,1-9.218-.879C459.173,492.05,450.487,488.083,442.613,489.494Z" transform="translate(-133.432 -220.612)" fill="#fff"/><path d="M483.989,496.675q-15.179-1.728-30.159-4.875c-4.9-1.027-9.839-2.172-14.832-1.972-3.25.133-6.744.783-9.6-.827a46.231,46.231,0,0,1-.377,28.763c-1.972,5.54-4.978,10.7-6.426,16.405-3.014,11.929,1.123,24.937-2.644,36.651a9.278,9.278,0,0,1-2.275,4.077c-1.152,1.056-2.726,1.6-3.789,2.748-1.566,1.684-1.662,4.218-1.669,6.515l-.066,20.35c-.044,12.956.126,26.695,6.965,37.671,7.8,12.557,24.22,19.064,38.513,15.246a28.63,28.63,0,0,0,10.459-5.119c4.964-3.944,8.125-9.647,11.22-15.2,3.693-6.648,7.386-13.443,8.576-20.926.842-5.3.369-10.7-.236-16.029-3.339-29.546-10.585-58.84-9.026-88.5a26.82,26.82,0,0,1,5.37-14.98Z" transform="translate(-126.183 -228.442)" fill="#16a34a"/><path d="M535.059,664.227a89.535,89.535,0,0,1-15.415,0c-3.693-.443-7.3-1.352-10.961-1.972a70.252,70.252,0,0,0-56.573,15.718c-2.836,2.423-5.7,6.138-4.136,9.529,1.684,3.649,6.832,3.546,10.8,2.866a32.5,32.5,0,0,0-11.08,8.664c-1.108,1.352-2.157,2.955-1.943,4.705.451,3.656,5.414,4.321,9.085,4-1.2,1.285-.391,3.56,1.13,4.432s3.413.694,5.134.377a38.055,38.055,0,0,0,10.9-3.774c-.694,1.81.51,3.929,2.216,4.831a9.127,9.127,0,0,0,5.695.525c9.026-1.477,16.56-7.756,25.365-10.223,14.079-3.937,28.807,2.342,43.44,2.785a30.307,30.307,0,0,0,13.451-2.216c5.119-2.327,9.248-6.692,14.655-8.243,6.005-1.714,12.9.259,18.392-2.7,4-2.15.392-18.717-.628-21.908-1.869-5.835-3.745-9.706-9.972-10.3C568.86,659.78,550.933,663.311,535.059,664.227Z" transform="translate(-134.959 -273.379)" fill="#efb7b9"/><path d="M619.88,658.3s23.851,20.187,10.09,42.213l26.591-9.181V672.056c0-.916-10.1-14.677-10.1-14.677l-11.929-1.839Z" transform="translate(-180.476 -271.968)" fill="#fff"/><path d="M250.256,521.32H259.2a18.466,18.466,0,0,1,18.466,18.466V567.2H231.79V539.786A18.466,18.466,0,0,1,250.256,521.32Z" transform="translate(-60.58 -136.241)" fill="#3f3d56"/><path d="M250.256,521.32H259.2a18.466,18.466,0,0,1,18.466,18.466V567.2H231.79V539.786A18.466,18.466,0,0,1,250.256,521.32Z" transform="translate(-60.58 -136.241)" opacity="0.1"/><circle cx="3.671" cy="3.671" r="3.671" transform="translate(188.642 387.826)" fill="#3f3d56"/><circle cx="3.671" cy="3.671" r="3.671" transform="translate(188.642 383.239)" fill="#3f3d56"/><circle cx="3.671" cy="3.671" r="3.671" transform="translate(188.642 378.652)" fill="#3f3d56"/><circle cx="3.671" cy="3.671" r="3.671" transform="translate(188.642 374.065)" fill="#3f3d56"/><circle cx="3.671" cy="3.671" r="3.671" transform="translate(188.642 369.479)" fill="#3f3d56"/><circle cx="3.671" cy="3.671" r="3.671" transform="translate(188.642 364.892)" fill="#3f3d56"/><circle cx="3.671" cy="3.671" r="3.671" transform="translate(188.642 360.297)" fill="#3f3d56"/><circle cx="3.671" cy="3.671" r="3.671" transform="translate(194.152 362.136)" fill="#3f3d56"/><circle cx="3.671" cy="3.671" r="3.671" transform="translate(197.823 360.297)" fill="#3f3d56"/><circle cx="3.671" cy="3.671" r="3.671" transform="translate(201.494 358.465)" fill="#3f3d56"/><circle cx="3.671" cy="3.671" r="3.671" transform="translate(188.642 355.71)" fill="#3f3d56"/><circle cx="3.671" cy="3.671" r="3.671" transform="translate(188.642 351.123)" fill="#3f3d56"/><circle cx="3.671" cy="3.671" r="3.671" transform="translate(188.642 346.536)" fill="#3f3d56"/><circle cx="3.671" cy="3.671" r="3.671" transform="translate(188.642 341.949)" fill="#3f3d56"/><path d="M295.088,583.549q-1.374.2-2.748.288a21.1,21.1,0,0,0,2.364-2.423,15.512,15.512,0,0,0-2.216-4.306,7.546,7.546,0,0,1-2.955.931c-.909.133-1.824.229-2.74.3a45.774,45.774,0,0,0,3.509-3.693,15.585,15.585,0,1,0,5.119,11.53,15.271,15.271,0,0,0-.236-2.681Z" transform="translate(-87.529 -249.77)" fill="#16a34a"/><path d="M317.4,612.184a7.12,7.12,0,0,1-3.088,1.027c-.909.133-1.824.236-2.74.3a26.9,26.9,0,0,0,2.718-2.822,9.189,9.189,0,1,0,3.11,1.477Z" transform="translate(-97.6 -260.167)" fill="#16a34a"/><circle cx="3.671" cy="3.671" r="3.671" transform="translate(183.139 362.136)" fill="#3f3d56"/><circle cx="3.671" cy="3.671" r="3.671" transform="translate(179.468 360.297)" fill="#3f3d56"/><circle cx="3.671" cy="3.671" r="3.671" transform="translate(175.797 358.465)" fill="#3f3d56"/><path d="M246.829,612.184a7.121,7.121,0,0,0,3.088,1.027c.909.133,1.824.236,2.74.3a26.163,26.163,0,0,1-2.718-2.822,9.189,9.189,0,1,1-3.11,1.477Z" transform="translate(-81.993 -260.167)" fill="#16a34a"/><path d="M250.248,525h8.945a18.466,18.466,0,0,1,18.466,18.466v24.279a3.132,3.132,0,0,1-3.132,3.132H234.892a3.132,3.132,0,0,1-3.132-3.132V543.466A18.466,18.466,0,0,1,250.248,525Z" transform="translate(-60.572 -137.203)" fill="#3f3d56"/><g transform="translate(176.934 321.042)" opacity="0.1"><path d="M305.922,589.49a13.9,13.9,0,0,1-1.182,1.123A12.008,12.008,0,0,0,306,590.5C305.981,590.162,305.959,589.822,305.922,589.49Z" transform="translate(-275.046 -575.747)"/><path d="M297.28,582.468c.923-.059,1.832-.155,2.748-.288a8.861,8.861,0,0,0,2.386-.65,16.187,16.187,0,0,0-1.285-2.12,5.556,5.556,0,0,1-1.477.628,21.264,21.264,0,0,1-2.371,2.43Z" transform="translate(-273.097 -573.113)"/><path d="M266.158,588.121A15.571,15.571,0,0,1,290.163,575l.236-.251a15.585,15.585,0,1,0-20.549,23.437,15.511,15.511,0,0,1-3.693-10.068Z" transform="translate(-264.54 -570.885)"/></g><g transform="translate(205.165 350.207)" opacity="0.1"><path d="M314.68,615.966c.916-.059,1.832-.155,2.74-.288a7.128,7.128,0,0,0,3.088-1.034,9.182,9.182,0,0,1,3.693,6.5,8.415,8.415,0,0,0,.052-.968,9.144,9.144,0,0,0-3.693-7.386,7.12,7.12,0,0,1-3.088,1.027l-.739.1a18.748,18.748,0,0,1-2.053,2.053Z" transform="translate(-305.875 -611.002)"/><path d="M311.934,612.2a7.537,7.537,0,0,1,.916.067c.48-.51.953-1.056,1.433-1.588a9.159,9.159,0,0,0-11.523,8.864,6.289,6.289,0,0,0,.044.916A9.174,9.174,0,0,1,311.934,612.2Z" transform="translate(-302.76 -610.37)"/></g><g transform="translate(161.091 350.207)" opacity="0.1"><path d="M252.663,615.966c-.916-.059-1.832-.155-2.74-.288a7.127,7.127,0,0,1-3.088-1.034,9.181,9.181,0,0,0-3.693,6.5,8.408,8.408,0,0,1-.052-.968,9.144,9.144,0,0,1,3.693-7.386,7.12,7.12,0,0,0,3.088,1.027l.739.1A17.485,17.485,0,0,0,252.663,615.966Z" transform="translate(-243.09 -611.002)"/><path d="M254.719,612.2a7.747,7.747,0,0,0-.923.066c-.473-.51-.945-1.056-1.426-1.588a9.159,9.159,0,0,1,11.523,8.864,6.294,6.294,0,0,1-.044.916,9.174,9.174,0,0,0-9.13-8.258Z" transform="translate(-245.515 -610.37)"/></g><path d="M195.231,721.135H123.065A3.065,3.065,0,0,1,120,718.07V683.915a3.065,3.065,0,0,1,4.38-2.77c20.734,9.839,43.07,13.214,69.432.155a3.073,3.073,0,0,1,4.432,2.74v33.978A3.065,3.065,0,0,1,195.231,721.135Z" transform="translate(-49.829 -278.583)" fill="#16a34a"/><path d="M195.231,721.135H123.065A3.065,3.065,0,0,1,120,718.07V683.915a3.065,3.065,0,0,1,4.38-2.77c20.734,9.839,43.07,13.214,69.432.155a3.073,3.073,0,0,1,4.432,2.74v33.978A3.065,3.065,0,0,1,195.231,721.135Z" transform="translate(-49.829 -278.583)" opacity="0.1"/><ellipse cx="4.269" cy="5.592" rx="4.269" ry="5.592" transform="translate(104.548 405.406)" fill="#3f3d56"/><ellipse cx="4.269" cy="5.592" rx="4.269" ry="5.592" transform="translate(104.548 398.574)" fill="#3f3d56"/><ellipse cx="4.269" cy="5.592" rx="4.269" ry="5.592" transform="translate(104.548 391.734)" fill="#3f3d56"/><ellipse cx="4.269" cy="5.592" rx="4.269" ry="5.592" transform="translate(104.548 384.901)" fill="#3f3d56"/><ellipse cx="4.269" cy="5.592" rx="4.269" ry="5.592" transform="translate(104.548 378.062)" fill="#3f3d56"/><ellipse cx="4.269" cy="5.592" rx="4.269" ry="5.592" transform="translate(104.548 371.222)" fill="#3f3d56"/><ellipse cx="4.269" cy="5.592" rx="4.269" ry="5.592" transform="translate(104.548 364.389)" fill="#3f3d56"/><path d="M181.066,562.052a21.726,21.726,0,0,0,1.588-2.341l-11.227-1.847,12.143.089a20.468,20.468,0,0,0,.391-16.25l-16.287,8.45,15.024-11.08a20.468,20.468,0,1,0-33.808,22.9,20.015,20.015,0,0,0-2.334,3.73l14.566,7.652-15.512-5.244a20.49,20.49,0,0,0,3.3,19.2,20.468,20.468,0,1,0,32.175,0,20.468,20.468,0,0,0,0-25.306Z" transform="translate(-56.235 -238.857)" fill="#16a34a"/><path d="M144.49,590.823a20.379,20.379,0,0,0,4.38,12.653,20.468,20.468,0,1,0,32.175,0C183.786,600,144.49,588.526,144.49,590.823Z" transform="translate(-56.229 -254.975)" opacity="0.1"/><path d="M195.231,722.945H123.065A3.065,3.065,0,0,1,120,719.88V683.915a3.065,3.065,0,0,1,4.38-2.77c20.734,9.839,37.176,21.31,69.432.155,1.913-1.256,4.432.458,4.432,2.74v35.824A3.065,3.065,0,0,1,195.231,722.945Z" transform="translate(-49.829 -278.583)" fill="#16a34a"/><path d="M863.856,574.625,757.388,588.71l-5.326.7-52.052-27.8V555.1L862.674,537.36Z" transform="translate(-182.952 -140.434)" fill="#9c9ca1"/><path d="M740.85,569.378l115.339-13.6-1.182,21.3-89.841,6.589Z" transform="translate(-193.626 -145.248)" fill="#939498"/><path d="M782.385,724.253v6.988l-5.326.739L725,704.147V697.64l49.689,26.591S781.2,724.844,782.385,724.253Z" transform="translate(-207.95 -282.971)" opacity="0.4"/><path d="M821.845,578.865,797.943,689.7a7.076,7.076,0,0,0,7.844,8.516L957.01,678.2a7.076,7.076,0,0,0,5.791-4.786l32.626-98.387a7.091,7.091,0,0,0-7.062-9.307l-159.931,7.593A7.091,7.091,0,0,0,821.845,578.865Z" transform="translate(-226.972 -248.49)" fill="#3f3d56"/><ellipse cx="6.426" cy="4.129" rx="6.426" ry="4.129" transform="translate(669.083 376.793) rotate(-84)" fill="#fff"/></g></svg>