<svg xmlns="http://www.w3.org/2000/svg" width="850" height="720" viewBox="0 0 850 720"><g transform="translate(0 85.394)"><rect width="850" height="720" transform="translate(0 -85.394)" fill="none"/><line x2="109.686" transform="translate(297.033 194.45)" fill="none" stroke="#3f3d56" stroke-miterlimit="10" stroke-width="2"/><ellipse cx="30.087" cy="9.445" rx="30.087" ry="9.445" transform="matrix(0.357, -0.934, 0.934, 0.357, 137.974, 336.866)" fill="#2f2e41"/><path d="M1057.135,477.692c11.933,88.807-4.316,177.71-86.963,212.329a162.244,162.244,0,0,1-212.329-86.963c-34.619-82.647,47.062-132.1,86.963-212.328C925.834,227.805,1020.078,201.905,1057.135,477.692Z" transform="translate(-210.623 -89.758)" fill="#fca5a5"/><ellipse cx="129.49" cy="17.616" rx="129.49" ry="17.616" transform="translate(568.234 587.512)" fill="#3f3d56"/><rect width="18.281" height="32.753" transform="translate(617.88 577.913) rotate(-105.453)" fill="#2f2e41"/><ellipse cx="5.713" cy="15.234" rx="5.713" ry="15.234" transform="translate(601.566 553.181) rotate(-15.453)" fill="#2f2e41"/><ellipse cx="30.087" cy="9.445" rx="30.087" ry="9.445" transform="translate(689.896 526.968) rotate(-82.281)" fill="#2f2e41"/><circle cx="60.175" cy="60.175" r="60.175" transform="translate(637.233 494.576)" fill="#2f2e41"/><rect width="18.281" height="32.753" transform="translate(617.88 567.249) rotate(-105.453)" fill="#2f2e41"/><ellipse cx="5.713" cy="15.234" rx="5.713" ry="15.234" transform="translate(601.566 542.517) rotate(-15.453)" fill="#2f2e41"/><circle cx="20.566" cy="20.566" r="20.566" transform="translate(692.643 499.713)" fill="#fff"/><circle cx="6.855" cy="6.855" r="6.855" transform="translate(712.93 504.339)" fill="#3f3d56"/><path d="M1039.722,788.446c22.268-1.115,39.323-21.943,38.093-46.522s-20.279-43.6-42.547-42.486-25.763,18.6-24.532,43.174S1017.454,789.56,1039.722,788.446Z" transform="translate(-272.824 -192.343)" fill="#4f46e5"/><path d="M920.705,720.028a13.711,13.711,0,0,1-2.212-27.332c7.548-.611,9.606,5.381,10.217,12.929S928.253,719.417,920.705,720.028Z" transform="translate(-247.891 -190.737)" fill="#fff"/><path d="M49.464,349.792h337.05L438.77,375.25l83.259,40.562,54.438-101.926H730.514" transform="translate(-11.787 -74.797)" fill="none" stroke="#3f3d56" stroke-miterlimit="10" stroke-width="2"/><circle cx="10.424" cy="10.424" r="10.424" transform="translate(159.293 275.235)" fill="#4f46e5"/><circle cx="10.424" cy="10.424" r="10.424" transform="translate(256.586 264.571)" fill="#4f46e5"/><circle cx="10.424" cy="10.424" r="10.424" transform="translate(416.424 290.053)" fill="#4f46e5"/><circle cx="10.424" cy="10.424" r="10.424" transform="translate(641.124 228.666)" fill="#4f46e5"/><circle cx="10.424" cy="10.424" r="10.424" transform="translate(532.249 269.204)" fill="#4f46e5"/><circle cx="11.239" cy="11.239" r="11.239" transform="translate(314.448 431.648)" fill="none" stroke="#3f3d56" stroke-miterlimit="10" stroke-width="2"/><ellipse cx="129.49" cy="17.616" rx="129.49" ry="17.616" transform="translate(0 598.938)" fill="#3f3d56"/><circle cx="60.175" cy="60.175" r="60.175" transform="translate(62.311 470.306)" fill="#2f2e41"/><rect width="18.281" height="32.753" transform="translate(95.065 577.707)" fill="#2f2e41"/><rect width="18.281" height="32.753" transform="translate(131.626 577.707)" fill="#2f2e41"/><ellipse cx="15.234" cy="5.713" rx="15.234" ry="5.713" transform="translate(95.065 605.128)" fill="#2f2e41"/><ellipse cx="15.234" cy="5.713" rx="15.234" ry="5.713" transform="translate(131.626 604.366)" fill="#2f2e41"/><circle cx="20.566" cy="20.566" r="20.566" transform="translate(103.443 494.68)" fill="#fff"/><circle cx="6.855" cy="6.855" r="6.855" transform="translate(117.154 508.391)" fill="#3f3d56"/><path d="M125.937,640.951c-4.859-21.76,10.673-43.748,34.691-49.111s47.428,7.929,52.287,29.69-11.059,29.786-35.077,35.149S130.8,662.711,125.937,640.951Z" transform="translate(-61.822 -166.431)" fill="#4f46e5"/><circle cx="60.175" cy="60.175" r="60.175" transform="translate(41.745 297.398)" fill="#2f2e41"/><rect width="18.281" height="32.753" transform="translate(74.498 404.799)" fill="#2f2e41"/><rect width="18.281" height="32.753" transform="translate(111.06 404.799)" fill="#2f2e41"/><ellipse cx="15.234" cy="5.713" rx="15.234" ry="5.713" transform="translate(74.498 432.22)" fill="#2f2e41"/><ellipse cx="15.234" cy="5.713" rx="15.234" ry="5.713" transform="translate(111.06 431.459)" fill="#2f2e41"/><circle cx="20.566" cy="20.566" r="20.566" transform="translate(82.877 321.773)" fill="#fff"/><circle cx="6.855" cy="6.855" r="6.855" transform="translate(96.588 335.484)" fill="#3f3d56"/><path d="M98.937,413.951c-4.859-21.76,10.673-43.748,34.691-49.111s47.428,7.929,52.287,29.69-11.059,29.786-35.077,35.149S103.8,435.711,98.937,413.951Z" transform="translate(-55.388 -112.339)" fill="#4f46e5"/><ellipse cx="9.445" cy="30.087" rx="9.445" ry="30.087" transform="translate(2.911 325.293) rotate(-64.626)" fill="#2f2e41"/><path d="M137.043,529.37c0,5.89,15.165,17.519,31.992,17.519s32.6-16.581,32.6-22.47-15.777,1.142-32.6,1.142S137.043,523.481,137.043,529.37Z" transform="translate(-64.681 -150.088)" fill="#fff"/><rect width="96.073" height="48.872" transform="translate(636.387 430.143)" fill="#4f46e5"/><rect width="96.073" height="48.872" transform="translate(628.868 438.08)" fill="none" stroke="#3f3d56" stroke-miterlimit="10" stroke-width="2"/><rect width="27.421" height="27.421" transform="translate(172.605 151.58)" fill="#dc2626"/><rect width="27.421" height="27.421" transform="translate(165.75 142.439)" fill="none" stroke="#3f3d56" stroke-miterlimit="10" stroke-width="2"/><circle cx="60.175" cy="60.175" r="60.175" transform="translate(629.972 84.146)" fill="#2f2e41"/><rect width="18.281" height="32.753" transform="translate(731.374 218.133) rotate(169.739)" fill="#2f2e41"/><rect width="18.281" height="32.753" transform="translate(695.397 224.646) rotate(169.739)" fill="#2f2e41"/><ellipse cx="15.234" cy="5.713" rx="15.234" ry="5.713" transform="matrix(0.763, -0.646, 0.646, 0.763, 667.952, 235.816)" fill="#2f2e41"/><ellipse cx="15.234" cy="5.713" rx="15.234" ry="5.713" transform="matrix(0.763, -0.646, 0.646, 0.763, 703.18, 229.439)" fill="#2f2e41"/><circle cx="20.566" cy="20.566" r="20.566" transform="translate(665.368 109.036)" fill="#fff"/><circle cx="6.855" cy="6.855" r="6.855" transform="translate(670.626 115.374)" fill="#3f3d56"/><path d="M982.547,124.047c.9-22.278-18.3-41.147-42.885-42.146S894.406,98.152,893.5,120.43s16.188,27.339,40.777,28.338S981.642,146.325,982.547,124.047Z" transform="translate(-244.931 -45.19)" fill="#4f46e5"/><ellipse cx="9.445" cy="30.087" rx="9.445" ry="30.087" transform="matrix(0.223, -0.975, 0.975, 0.223, 603.145, 135.843)" fill="#2f2e41"/><ellipse cx="9.445" cy="30.087" rx="9.445" ry="30.087" transform="matrix(0.223, -0.975, 0.975, 0.223, 721.265, 155.487)" fill="#2f2e41"/><path d="M961.29,252.085a13.711,13.711,0,0,1-26.983,4.885c-1.349-7.451,4.412-10.088,11.863-11.437S959.941,244.634,961.29,252.085Z" transform="translate(-254.616 -84.05)" fill="#fff"/><line x2="69.315" y2="53.32" transform="translate(542.795 75.409)" fill="none" stroke="#3f3d56" stroke-miterlimit="10" stroke-width="2"/><circle cx="51.796" cy="51.796" r="51.796" transform="translate(458.246)" fill="#dc2626"/><ellipse cx="30.087" cy="9.445" rx="30.087" ry="9.445" transform="translate(667.31 541.266) rotate(-82.281)" fill="#2f2e41"/><circle cx="10.424" cy="10.424" r="10.424" transform="translate(41.99 588.297)" fill="#4f46e5"/><rect width="27.421" height="27.421" transform="translate(195.457 586.515)" fill="#dc2626"/><circle cx="10.424" cy="10.424" r="10.424" transform="translate(185.191 594.391)" fill="#4f46e5"/><circle cx="10.424" cy="10.424" r="10.424" transform="translate(341.452 183.83)" fill="#4f46e5"/><circle cx="4.978" cy="4.978" r="4.978" transform="translate(549.332 512.413)" fill="#dc2626"/><line y1="56.68" transform="translate(578.699 543.336)" fill="#3f3d56" stroke="#3f3d56" stroke-miterlimit="10" stroke-width="2"/><circle cx="8.015" cy="8.015" r="8.015" transform="translate(570.684 535.321)" fill="#3f3d56"/><path d="M794.081,786.011s-1.145-24.627-24.618-21.765" transform="translate(-215.382 -207.743)" fill="#3f3d56"/></g></svg>